<svg width="50" height="60" xmlns="http://www.w3.org/2000/svg"><defs><linearGradient id="a" gradientUnits="userSpaceOnUse" x1="25.001" y1="59.998" x2="24.997" y2="-.001"><stop stop-color="#f26725" offset="0"/><stop stop-color="#ffb62a" offset="1"/></linearGradient></defs><path d="M50.001 1v27.458a30.83 30.83 0 01-17.138 27.727l-7.417 3.712a.993.993 0 01-.447.1.993.993 0 01-.447-.1l-7.417-3.707A30.832 30.832 0 01-.003 28.458V1a1 1 0 011-1h48.004a1 1 0 011 1zm-2 1H1.997v26.458a28.841 28.841 0 0016.032 25.94L25 57.88l6.97-3.482A28.841 28.841 0 0048 28.458zM3.997 28.458V4.999a1 1 0 011-1h40.004a1 1 0 011 1v23.459a26.854 26.854 0 01-14.928 24.149l-5.627 2.813a.996.996 0 01-.894 0l-5.627-2.813a26.853 26.853 0 01-14.928-24.15zm2 0a24.864 24.864 0 0013.822 22.36l5.18 2.59 5.18-2.59A24.864 24.864 0 0044 28.458V5.999H5.997zm15.295 8.247l-9.901-9.9a1 1 0 010-1.413l2.828-2.83a1.03 1.03 0 011.414 0L22 28.928l13.437-13.434a1 1 0 011.414 0l2.828 2.827a1 1 0 010 1.415l-16.972 16.97a1.001 1.001 0 01-1.414 0zM13.513 26.1L22 34.585l15.558-15.557-1.414-1.414-13.437 13.435a1 1 0 01-1.414 0l-6.365-6.364z" fill="none"/><path d="M50.001 1v27.458a30.83 30.83 0 01-17.138 27.727l-7.417 3.712a.993.993 0 01-.447.1.993.993 0 01-.447-.1l-7.417-3.707A30.832 30.832 0 01-.003 28.458V1a1 1 0 011-1h48.004a1 1 0 011 1zm-2 1H1.997v26.458a28.841 28.841 0 0016.032 25.94L25 57.88l6.97-3.482A28.841 28.841 0 0048 28.458zM3.997 28.458V4.999a1 1 0 011-1h40.004a1 1 0 011 1v23.459a26.854 26.854 0 01-14.928 24.149l-5.627 2.813a.996.996 0 01-.894 0l-5.627-2.813a26.853 26.853 0 01-14.928-24.15zm2 0a24.864 24.864 0 0013.822 22.36l5.18 2.59 5.18-2.59A24.864 24.864 0 0044 28.458V5.999H5.997zm15.295 8.247l-9.901-9.9a1 1 0 010-1.413l2.828-2.83a1.03 1.03 0 011.414 0L22 28.928l13.437-13.434a1 1 0 011.414 0l2.828 2.827a1 1 0 010 1.415l-16.972 16.97a1.001 1.001 0 01-1.414 0zM13.513 26.1L22 34.585l15.558-15.557-1.414-1.414-13.437 13.435a1 1 0 01-1.414 0l-6.365-6.364z" fill="url(#a)"/></svg>