<svg width="48" height="60" xmlns="http://www.w3.org/2000/svg"><defs><linearGradient id="a" gradientUnits="userSpaceOnUse" x1="23.913" y1="59.285" x2="24.089" y2=".715"><stop stop-color="#f26725" offset="0"/><stop stop-color="#ffb62a" offset="1"/></linearGradient></defs><path d="M23.91 34.047c-5.883 0-10.654-4.747-10.654-10.581s4.783-10.58 10.654-10.58c5.883 0 10.653 4.746 10.653 10.58 0 5.846-4.782 10.593-10.653 10.58zm8.202-10.461c0-4.507-3.67-8.154-8.202-8.154s-8.203 3.647-8.203 8.154 3.671 8.153 8.203 8.153c4.531 0 8.202-3.646 8.202-8.153zM46.448 54.25l-5.631-1.1-1.842 5.357c-.239.788-1.674 1.207-2.331.119L27.389 42.69l-3.36 3.659-3.467-3.79-9.386 16.068c-.574 1.04-1.913.67-2.2-.239l-1.842-5.356-5.631 1.1c-.885.227-1.83-.73-1.22-1.83l9.374-16.187-5.512-1.196 2.14-6.682-5.213-4.723 5.213-4.722-2.14-6.684 6.9-1.494 1.506-6.85 6.72 2.14L24.029.715l4.747 5.176 6.732-2.127 1.506 6.874 6.9 1.494-2.14 6.683 5.212 4.723-5.213 4.722 2.14 6.683-5.679 1.232 9.422 16.247c.717 1.16-.191 2.116-1.208 1.83zM18.194 41.52l-5.643 1.78-1.208-5.488-7.76 13.403 4.042-.73h.239c.49 0 .98.359 1.1.85l1.35 3.765zm5.847 1.172l3.994-4.364 5.655 1.793 1.268-5.763 5.799-1.255-1.806-5.619 4.388-3.969-4.388-3.97 1.806-5.618-5.8-1.256-1.267-5.762L28.035 8.7l-4.018-4.35-3.993 4.364-5.656-1.793-1.267 5.762-5.8 1.256 1.806 5.619-4.388 3.969 4.4 3.993-1.805 5.62 5.799 1.254 1.267 5.763 5.656-1.794zm20.195 8.512l-7.592-13.055-1.136 5.14-5.943-1.876L37.493 55.1l1.35-3.766c.252-.61.742-.848 1.352-.848z" fill="none"/><path d="M23.91 34.047c-5.883 0-10.654-4.747-10.654-10.581s4.783-10.58 10.654-10.58c5.883 0 10.653 4.746 10.653 10.58 0 5.846-4.782 10.593-10.653 10.58zm8.202-10.461c0-4.507-3.67-8.154-8.202-8.154s-8.203 3.647-8.203 8.154 3.671 8.153 8.203 8.153c4.531 0 8.202-3.646 8.202-8.153zM46.448 54.25l-5.631-1.1-1.842 5.357c-.239.788-1.674 1.207-2.331.119L27.389 42.69l-3.36 3.659-3.467-3.79-9.386 16.068c-.574 1.04-1.913.67-2.2-.239l-1.842-5.356-5.631 1.1c-.885.227-1.83-.73-1.22-1.83l9.374-16.187-5.512-1.196 2.14-6.682-5.213-4.723 5.213-4.722-2.14-6.684 6.9-1.494 1.506-6.85 6.72 2.14L24.029.715l4.747 5.176 6.732-2.127 1.506 6.874 6.9 1.494-2.14 6.683 5.212 4.723-5.213 4.722 2.14 6.683-5.679 1.232 9.422 16.247c.717 1.16-.191 2.116-1.208 1.83zM18.194 41.52l-5.643 1.78-1.208-5.488-7.76 13.403 4.042-.73h.239c.49 0 .98.359 1.1.85l1.35 3.765zm5.847 1.172l3.994-4.364 5.655 1.793 1.268-5.763 5.799-1.255-1.806-5.619 4.388-3.969-4.388-3.97 1.806-5.618-5.8-1.256-1.267-5.762L28.035 8.7l-4.018-4.35-3.993 4.364-5.656-1.793-1.267 5.762-5.8 1.256 1.806 5.619-4.388 3.969 4.4 3.993-1.805 5.62 5.799 1.254 1.267 5.763 5.656-1.794zm20.195 8.512l-7.592-13.055-1.136 5.14-5.943-1.876L37.493 55.1l1.35-3.766c.252-.61.742-.848 1.352-.848z" fill="url(#a)"/></svg>