<svg width="60" height="60" xmlns="http://www.w3.org/2000/svg"><defs><linearGradient id="a" gradientUnits="userSpaceOnUse" x1="30" y1="59.972" x2="30" y2="-.014"><stop stop-color="#f26725" offset="0"/><stop stop-color="#ffb62a" offset="1"/></linearGradient></defs><path d="M60 8.983v39.991a1 1 0 01-1 1H43v-1.999h15V9.983h-7a1 1 0 01-1-1V1.985H24v9.998h-2V.986a1 1 0 011-1h28c.265 0 .52.106.707.293l8 7.998a.999.999 0 01.293.706zm-3.414-1L52 3.4v4.585zm-23.586 7v43.99a1 1 0 01-1 1H1a1 1 0 01-1-1v-43.99a1 1 0 011-1h31a1 1 0 011 1zm-2 .999H2v41.99h29zm-2 4v7.997a1 1 0 01-1 1H5a1 1 0 01-1-1v-7.998a1 1 0 011-1h23a1 1 0 011 1zm-2 .999H6v5.999h21zM11 49.974v5a1 1 0 01-1 .999H5a1 1 0 01-1-1v-4.999a1 1 0 011-1h5a1 1 0 011 1zm-2 1H6v3h3zm11-1v5a1 1 0 01-1 .999h-5a1 1 0 01-1-1v-4.999a1 1 0 011-1h5a1 1 0 011 1zm-2 1h-3v3h3zm-7-9.997v4.998a1 1 0 01-1 1H5a1 1 0 01-1-1v-4.998a1 1 0 011-1h5a1 1 0 011 1zm-2 1H6v2.999h3zm11-1v4.998a1 1 0 01-1 1h-5a1 1 0 01-1-1v-4.998a1 1 0 011-1h5a1 1 0 011 1zm-2 1h-3v2.999h3zm-7-9.999v5a1 1 0 01-1 1H5a1 1 0 01-1-1v-5a1 1 0 011-1h5a1 1 0 011 1zm-2 1H6v3h3zm11-1v5a1 1 0 01-1 1h-5a1 1 0 01-1-1v-5a1 1 0 011-1h5a1 1 0 011 1zm-2 1h-3v3h3zm11-1v5a1 1 0 01-1 1h-5a1 1 0 01-1-1v-5a1 1 0 011-1h5a1 1 0 011 1zm-2 1h-3v3h3zm2 7.999v13.996a1 1 0 01-1 1h-5a1 1 0 01-1-1V40.977a1 1 0 011-1h5a1 1 0 011 1zm-2 1h-3v11.996h3zM23 22.98h2v2h-2zm-4 0h2v2h-2zm-4 0h2v2h-2zM29 5.984h19v2H29zm0 4h19v2H29zm24 3.999V26.98H35v-6h2v4h2v-6.998h2v6.998h2v-4h2v4h2v-8.998h2v8.998h2V13.983zm-8 20.994v10.998h-2v-9.997h-2v19.995c0 .198-.059.39-.168.555l-2 3a1 1 0 01-1.664 0l-2-3a1.003 1.003 0 01-.168-.555V30.979a1 1 0 011-1h4a1 1 0 011 1v2.999h3a1 1 0 011 1zm-6 1h-2v19.696l1 1.5 1-1.5zm0-3.999h-2v2h2zm4-2h10v2H43zm4 4h6v2h-6zm0 4h6v1.999h-6zm0 3.998h6v2h-6z" fill="none"/><path d="M60 8.983v39.991a1 1 0 01-1 1H43v-1.999h15V9.983h-7a1 1 0 01-1-1V1.985H24v9.998h-2V.986a1 1 0 011-1h28c.265 0 .52.106.707.293l8 7.998a.999.999 0 01.293.706zm-3.414-1L52 3.4v4.585zm-23.586 7v43.99a1 1 0 01-1 1H1a1 1 0 01-1-1v-43.99a1 1 0 011-1h31a1 1 0 011 1zm-2 .999H2v41.99h29zm-2 4v7.997a1 1 0 01-1 1H5a1 1 0 01-1-1v-7.998a1 1 0 011-1h23a1 1 0 011 1zm-2 .999H6v5.999h21zM11 49.974v5a1 1 0 01-1 .999H5a1 1 0 01-1-1v-4.999a1 1 0 011-1h5a1 1 0 011 1zm-2 1H6v3h3zm11-1v5a1 1 0 01-1 .999h-5a1 1 0 01-1-1v-4.999a1 1 0 011-1h5a1 1 0 011 1zm-2 1h-3v3h3zm-7-9.997v4.998a1 1 0 01-1 1H5a1 1 0 01-1-1v-4.998a1 1 0 011-1h5a1 1 0 011 1zm-2 1H6v2.999h3zm11-1v4.998a1 1 0 01-1 1h-5a1 1 0 01-1-1v-4.998a1 1 0 011-1h5a1 1 0 011 1zm-2 1h-3v2.999h3zm-7-9.999v5a1 1 0 01-1 1H5a1 1 0 01-1-1v-5a1 1 0 011-1h5a1 1 0 011 1zm-2 1H6v3h3zm11-1v5a1 1 0 01-1 1h-5a1 1 0 01-1-1v-5a1 1 0 011-1h5a1 1 0 011 1zm-2 1h-3v3h3zm11-1v5a1 1 0 01-1 1h-5a1 1 0 01-1-1v-5a1 1 0 011-1h5a1 1 0 011 1zm-2 1h-3v3h3zm2 7.999v13.996a1 1 0 01-1 1h-5a1 1 0 01-1-1V40.977a1 1 0 011-1h5a1 1 0 011 1zm-2 1h-3v11.996h3zM23 22.98h2v2h-2zm-4 0h2v2h-2zm-4 0h2v2h-2zM29 5.984h19v2H29zm0 4h19v2H29zm24 3.999V26.98H35v-6h2v4h2v-6.998h2v6.998h2v-4h2v4h2v-8.998h2v8.998h2V13.983zm-8 20.994v10.998h-2v-9.997h-2v19.995c0 .198-.059.39-.168.555l-2 3a1 1 0 01-1.664 0l-2-3a1.003 1.003 0 01-.168-.555V30.979a1 1 0 011-1h4a1 1 0 011 1v2.999h3a1 1 0 011 1zm-6 1h-2v19.696l1 1.5 1-1.5zm0-3.999h-2v2h2zm4-2h10v2H43zm4 4h6v2h-6zm0 4h6v1.999h-6zm0 3.998h6v2h-6z" fill="url(#a)"/></svg>