<svg width="60" height="60" xmlns="http://www.w3.org/2000/svg"><defs><linearGradient id="a" gradientUnits="userSpaceOnUse" x1="30" y1="59.986" x2="29.998" y2=".013"><stop stop-color="#f26725" offset="0"/><stop stop-color="#ffb62a" offset="1"/></linearGradient></defs><path d="M8.999 35.996h8v2h-8zm51 11.995v7.996a1 1 0 01-1 1h-3.141a3.98 3.98 0 01-7.716 0h-7.284a3.98 3.98 0 01-7.716 0h-4.143a1 1 0 01-1-1V37.995a1 1 0 011-1h20a1 1 0 011 1v2.999h6a1 1 0 01.895.552l3 5.998a1 1 0 01.106.447zm-21 7.996a2 2 0 10-3.998 0 2 2 0 003.998 0zm9-16.992H30v15.993h3.142a3.996 3.996 0 013.858-3 3.996 3.996 0 013.859 3H48zm6 7.996h3.383l-2-3.998H54zm0 8.996a2 2 0 10-3.998 0 2 2 0 003.999 0zm4-6.997h-5a1 1 0 01-1-1v-4.997h-2v9.552a3.953 3.953 0 012-.556 3.996 3.996 0 013.859 2.999H58zM22 14.007h2v1.998h-2zm4 0h2v1.998h-2zm4 0h2v1.998h-2zm4 0h2v1.998h-2zm21.998 4.9a3.101 3.101 0 01-3.107 3.096H34.106l-5.298 7.57a1 1 0 01-1.136.375l-2.998-1a1 1 0 01-.598-1.354l2.485-5.591h-.272a13.697 13.697 0 01-9.747-4.041l-6.25-6.248a.99.99 0 01-.284-.706h-.01V1.012a1 1 0 011-1h5a1 1 0 01.959.714l2.786 9.282h7.975l-1.69-6.754A1 1 0 0127 2.012h3a1 1 0 01.848.47l4.707 7.526h7.756a12.329 12.329 0 018.678 3.604l3.099 3.096a3.1 3.1 0 01.91 2.2zM28.28 4.012l1.5 5.997h3.415l-3.75-5.997zm-16.281 5.997h5.656l-2.4-7.996h-3.256zm21.066 9.995h-3.427L26.352 27.4l1.245.416zm20.61-1.878l-2.12-2.12H42v-1.998h7.368a10.314 10.314 0 00-6.058-2H13.413l4.543 4.541a11.711 11.711 0 008.333 3.455h1.16l.625-1.405a1 1 0 01.914-.594h5.997a1 1 0 01.819 1.573l-.299.426H52.89c.451.007.86-.265 1.026-.685a1.07 1.07 0 00-.241-1.193zm-27.676 39.86v2a3.88 3.88 0 01-2.844-1.264 1.936 1.936 0 00-1.487-.735 1.629 1.629 0 00-.62.117c-.008.004-.014.012-.023.016-.31.156-.593.363-.834.613a3.928 3.928 0 01-2.853 1.253 3.879 3.879 0 01-2.844-1.265 1.874 1.874 0 00-2.976 0 3.883 3.883 0 01-2.845 1.265 3.935 3.935 0 01-2.855-1.253 3.084 3.084 0 00-.842-.616c-.009-.003-.014-.01-.022-.015a1.634 1.634 0 00-.618-.115c-.582.01-1.13.28-1.491.735a3.887 3.887 0 01-2.847 1.264v-2a1.945 1.945 0 001.491-.734 4.002 4.002 0 012.386-1.235L.057 45.328.05 45.31a1 1 0 01.632-1.266l2.439-.813 1.894-10.412a1 1 0 01.984-.82h4v-3a1 1 0 011-1h4a1 1 0 011 1v3h4a1 1 0 01.984.82l1.894 10.412 2.438.813.019.006a1 1 0 01.607 1.278l-3.819 10.687a4 4 0 012.39 1.236c.36.456.906.726 1.487.735zM12 31.999h2v-2h-2zm0 10.383l-9.715 3.236 3.873 10.84a5.72 5.72 0 011.026.794 1.878 1.878 0 002.979 0A4.31 4.31 0 0112 56.118zm1.316-2.336l7.398 2.466-1.549-8.514H6.834l-1.55 8.514 7.398-2.466c.206-.068.428-.068.633 0zm10.399 5.572L14 42.382v13.73a4.284 4.284 0 011.852 1.141 1.872 1.872 0 002.973 0c.307-.3.648-.565 1.014-.788zM38 14.008h2v1.998h-2z" fill="none"/><path d="M8.999 35.996h8v2h-8zm51 11.995v7.996a1 1 0 01-1 1h-3.141a3.98 3.98 0 01-7.716 0h-7.284a3.98 3.98 0 01-7.716 0h-4.143a1 1 0 01-1-1V37.995a1 1 0 011-1h20a1 1 0 011 1v2.999h6a1 1 0 01.895.552l3 5.998a1 1 0 01.106.447zm-21 7.996a2 2 0 10-3.998 0 2 2 0 003.998 0zm9-16.992H30v15.993h3.142a3.996 3.996 0 013.858-3 3.996 3.996 0 013.859 3H48zm6 7.996h3.383l-2-3.998H54zm0 8.996a2 2 0 10-3.998 0 2 2 0 003.999 0zm4-6.997h-5a1 1 0 01-1-1v-4.997h-2v9.552a3.953 3.953 0 012-.556 3.996 3.996 0 013.859 2.999H58zM22 14.007h2v1.998h-2zm4 0h2v1.998h-2zm4 0h2v1.998h-2zm4 0h2v1.998h-2zm21.998 4.9a3.101 3.101 0 01-3.107 3.096H34.106l-5.298 7.57a1 1 0 01-1.136.375l-2.998-1a1 1 0 01-.598-1.354l2.485-5.591h-.272a13.697 13.697 0 01-9.747-4.041l-6.25-6.248a.99.99 0 01-.284-.706h-.01V1.012a1 1 0 011-1h5a1 1 0 01.959.714l2.786 9.282h7.975l-1.69-6.754A1 1 0 0127 2.012h3a1 1 0 01.848.47l4.707 7.526h7.756a12.329 12.329 0 018.678 3.604l3.099 3.096a3.1 3.1 0 01.91 2.2zM28.28 4.012l1.5 5.997h3.415l-3.75-5.997zm-16.281 5.997h5.656l-2.4-7.996h-3.256zm21.066 9.995h-3.427L26.352 27.4l1.245.416zm20.61-1.878l-2.12-2.12H42v-1.998h7.368a10.314 10.314 0 00-6.058-2H13.413l4.543 4.541a11.711 11.711 0 008.333 3.455h1.16l.625-1.405a1 1 0 01.914-.594h5.997a1 1 0 01.819 1.573l-.299.426H52.89c.451.007.86-.265 1.026-.685a1.07 1.07 0 00-.241-1.193zm-27.676 39.86v2a3.88 3.88 0 01-2.844-1.264 1.936 1.936 0 00-1.487-.735 1.629 1.629 0 00-.62.117c-.008.004-.014.012-.023.016-.31.156-.593.363-.834.613a3.928 3.928 0 01-2.853 1.253 3.879 3.879 0 01-2.844-1.265 1.874 1.874 0 00-2.976 0 3.883 3.883 0 01-2.845 1.265 3.935 3.935 0 01-2.855-1.253 3.084 3.084 0 00-.842-.616c-.009-.003-.014-.01-.022-.015a1.634 1.634 0 00-.618-.115c-.582.01-1.13.28-1.491.735a3.887 3.887 0 01-2.847 1.264v-2a1.945 1.945 0 001.491-.734 4.002 4.002 0 012.386-1.235L.057 45.328.05 45.31a1 1 0 01.632-1.266l2.439-.813 1.894-10.412a1 1 0 01.984-.82h4v-3a1 1 0 011-1h4a1 1 0 011 1v3h4a1 1 0 01.984.82l1.894 10.412 2.438.813.019.006a1 1 0 01.607 1.278l-3.819 10.687a4 4 0 012.39 1.236c.36.456.906.726 1.487.735zM12 31.999h2v-2h-2zm0 10.383l-9.715 3.236 3.873 10.84a5.72 5.72 0 011.026.794 1.878 1.878 0 002.979 0A4.31 4.31 0 0112 56.118zm1.316-2.336l7.398 2.466-1.549-8.514H6.834l-1.55 8.514 7.398-2.466c.206-.068.428-.068.633 0zm10.399 5.572L14 42.382v13.73a4.284 4.284 0 011.852 1.141 1.872 1.872 0 002.973 0c.307-.3.648-.565 1.014-.788zM38 14.008h2v1.998h-2z" fill="url(#a)"/></svg>