<svg width="52" height="52" xmlns="http://www.w3.org/2000/svg"><defs><linearGradient id="a" gradientUnits="userSpaceOnUse" x1="25.783" y1="51.375" x2="26.625" y2=".216"><stop stop-color="#f26725" offset="0"/><stop stop-color="#ffb62a" offset="1"/></linearGradient></defs><path d="M34.356 39.718l-1.176 2.84a2.157 2.157 0 01-2.498 1.261c-.607-.151-1.227-.312-1.844-.477a14.282 14.282 0 01-2.354 2.354c.167.622.327 1.241.478 1.844a2.157 2.157 0 01-1.262 2.497l-2.84 1.177a2.157 2.157 0 01-2.658-.874c-.324-.54-.649-1.09-.966-1.641-1.105.13-2.224.129-3.33-.001-.32.557-.646 1.11-.966 1.642a2.156 2.156 0 01-2.658.873l-2.84-1.176A2.157 2.157 0 018.18 47.54c.151-.606.312-1.226.477-1.845a14.294 14.294 0 01-2.354-2.353 105 105 0 01-1.844.477 2.156 2.156 0 01-2.497-1.262l-1.176-2.84a2.157 2.157 0 01.873-2.657c.537-.323 1.089-.648 1.642-.967a14.305 14.305 0 010-3.329c-.552-.32-1.105-.644-1.642-.966a2.157 2.157 0 01-.873-2.659L1.962 26.3a2.157 2.157 0 012.497-1.262c.606.151 1.226.311 1.845.478a14.293 14.293 0 012.353-2.355c-.165-.616-.325-1.236-.477-1.844a2.156 2.156 0 011.262-2.497l2.84-1.176a2.157 2.157 0 012.658.873c.321.536.646 1.087.966 1.642a14.317 14.317 0 013.329 0c.319-.553.644-1.104.966-1.642a2.157 2.157 0 012.659-.873l2.84 1.176a2.156 2.156 0 011.261 2.497c-.15.607-.312 1.227-.477 1.845.873.69 1.665 1.48 2.354 2.353.618-.166 1.237-.326 1.844-.477A2.157 2.157 0 0133.18 26.3l1.176 2.84a2.157 2.157 0 01-.873 2.658c-.535.322-1.087.646-1.641.966.13 1.104.129 2.223 0 3.329.551.318 1.103.643 1.641.967a2.157 2.157 0 01.874 2.658zm-2.164-.762a98.007 98.007 0 00-1.576-.926 2.14 2.14 0 01-1.06-2.121c.122-.984.122-1.981 0-2.964a2.138 2.138 0 011.06-2.119 92.345 92.345 0 001.576-.926l-1.081-2.61a98.6 98.6 0 00-1.768.46 2.138 2.138 0 01-2.25-.749 12.007 12.007 0 00-2.095-2.094 2.14 2.14 0 01-.75-2.25c.16-.592.314-1.186.46-1.77l-2.61-1.08c-.31.516-.62 1.046-.925 1.575a2.139 2.139 0 01-2.122 1.061 12.032 12.032 0 00-2.963 0 2.139 2.139 0 01-2.12-1.061 107.51 107.51 0 00-.925-1.575l-2.61 1.08c.146.585.3 1.178.46 1.769a2.138 2.138 0 01-.75 2.249 12.012 12.012 0 00-2.094 2.096 2.14 2.14 0 01-2.25.75 98.248 98.248 0 00-1.769-.46l-1.08 2.61c.515.31 1.045.62 1.575.926a2.139 2.139 0 011.06 2.121 12.021 12.021 0 000 2.963 2.14 2.14 0 01-1.06 2.12c-.53.305-1.06.616-1.576.925l1.081 2.61a98.6 98.6 0 001.768-.46 2.14 2.14 0 012.25.75c.608.78 1.313 1.485 2.095 2.094a2.14 2.14 0 01.75 2.25 106 106 0 00-.46 1.768l2.61 1.082c.307-.513.618-1.042.926-1.576a2.137 2.137 0 012.121-1.06 12.04 12.04 0 002.963 0 2.138 2.138 0 012.12 1.061c.304.528.615 1.057.925 1.575l2.61-1.081c-.145-.58-.3-1.174-.46-1.768a2.14 2.14 0 01.75-2.25 12.017 12.017 0 002.094-2.094 2.14 2.14 0 012.25-.751c.592.16 1.186.314 1.77.46zm-11.635 2.682a7.79 7.79 0 01-2.986.599c-1.012 0-2.024-.2-2.987-.599a7.753 7.753 0 01-4.223-4.223c-1.647-3.975.248-8.55 4.223-10.197 3.976-1.646 8.55.248 10.197 4.224 1.647 3.976-.248 8.55-4.224 10.196zm2.108-9.32a5.524 5.524 0 00-5.101-3.404c-.702 0-1.415.135-2.103.42a5.52 5.52 0 00-2.985 7.204 5.477 5.477 0 002.985 2.985 5.477 5.477 0 004.22 0 5.52 5.52 0 002.984-7.205zm29.118-20.222v2.234c0 .892-.664 1.664-1.544 1.795-.395.06-.801.116-1.21.171-.206.686-.481 1.35-.82 1.98.25.327.496.655.734.978.53.715.453 1.73-.177 2.36l-1.58 1.58c-.63.63-1.645.706-2.36.177a81.575 81.575 0 01-.977-.735c-.631.34-1.295.615-1.98.82a80.4 80.4 0 01-.172 1.21 1.824 1.824 0 01-1.794 1.544h-2.234a1.824 1.824 0 01-1.795-1.543 73.616 73.616 0 01-.17-1.21 10.701 10.701 0 01-1.981-.82 82.66 82.66 0 01-.977.734 1.823 1.823 0 01-2.36-.178l-1.58-1.58a1.824 1.824 0 01-.178-2.36c.239-.322.485-.65.735-.976a10.684 10.684 0 01-.82-1.98 73.758 73.758 0 01-1.21-.172 1.824 1.824 0 01-1.544-1.795v-2.234c0-.89.663-1.663 1.543-1.794.395-.06.802-.116 1.21-.172.207-.684.482-1.349.821-1.98a75.68 75.68 0 01-.735-.977 1.825 1.825 0 01.178-2.36l1.58-1.58a1.825 1.825 0 012.36-.177c.323.239.65.485.977.735a10.53 10.53 0 011.98-.82c.055-.41.112-.816.171-1.211A1.825 1.825 0 0137.67.216h2.234c.891 0 1.663.664 1.794 1.544.06.395.117.802.171 1.21.686.206 1.35.481 1.98.82.327-.249.655-.495.978-.734a1.825 1.825 0 012.36.177l1.58 1.58c.63.63.707 1.645.178 2.36-.239.322-.485.65-.736.977.34.631.615 1.296.821 1.98.41.055.815.113 1.21.172.88.131 1.544.903 1.544 1.794zm-2.176 1.923v-1.611a78.028 78.028 0 00-1.092-.15 1.81 1.81 0 01-1.516-1.314 8.477 8.477 0 00-.8-1.932 1.81 1.81 0 01.142-2.001c.226-.294.45-.588.666-.88l-1.139-1.14c-.293.219-.587.442-.88.667a1.81 1.81 0 01-2.001.142 8.478 8.478 0 00-1.931-.8 1.809 1.809 0 01-1.314-1.516 78.744 78.744 0 00-.15-1.092H37.98c-.052.36-.103.725-.15 1.092A1.808 1.808 0 0136.514 5a8.472 8.472 0 00-1.93.8 1.81 1.81 0 01-2.002-.142 77.932 77.932 0 00-.88-.666l-1.14 1.139c.218.291.442.586.667.88a1.81 1.81 0 01.142 2.001 8.451 8.451 0 00-.8 1.931 1.81 1.81 0 01-1.516 1.314 99.73 99.73 0 00-1.092.15v1.612c.359.053.725.103 1.092.15a1.81 1.81 0 011.516 1.315c.185.673.455 1.322.8 1.93a1.81 1.81 0 01-.142 2.002 75.17 75.17 0 00-.666.88l1.14 1.14c.292-.22.586-.442.879-.667a1.809 1.809 0 012.001-.142 8.477 8.477 0 001.931.8 1.81 1.81 0 011.314 1.516c.048.367.099.733.15 1.092h1.613c.052-.359.102-.725.15-1.092a1.81 1.81 0 011.314-1.516 8.476 8.476 0 001.93-.8 1.81 1.81 0 012.002.142c.293.225.588.448.88.666l1.14-1.14a77.77 77.77 0 00-.667-.878 1.81 1.81 0 01-.142-2.002 8.475 8.475 0 00.8-1.931 1.809 1.809 0 011.516-1.314c.367-.048.733-.098 1.092-.15zm-6.185-.806a4.641 4.641 0 01-4.636 4.637 4.641 4.641 0 01-4.637-4.637 4.642 4.642 0 014.637-4.636 4.641 4.641 0 014.636 4.636zm-2.06 0a2.579 2.579 0 00-2.576-2.575 2.578 2.578 0 00-2.576 2.575 2.578 2.578 0 002.576 2.576 2.578 2.578 0 002.575-2.576z" fill="none"/><path d="M34.356 39.718l-1.176 2.84a2.157 2.157 0 01-2.498 1.261c-.607-.151-1.227-.312-1.844-.477a14.282 14.282 0 01-2.354 2.354c.167.622.327 1.241.478 1.844a2.157 2.157 0 01-1.262 2.497l-2.84 1.177a2.157 2.157 0 01-2.658-.874c-.324-.54-.649-1.09-.966-1.641-1.105.13-2.224.129-3.33-.001-.32.557-.646 1.11-.966 1.642a2.156 2.156 0 01-2.658.873l-2.84-1.176A2.157 2.157 0 018.18 47.54c.151-.606.312-1.226.477-1.845a14.294 14.294 0 01-2.354-2.353 105 105 0 01-1.844.477 2.156 2.156 0 01-2.497-1.262l-1.176-2.84a2.157 2.157 0 01.873-2.657c.537-.323 1.089-.648 1.642-.967a14.305 14.305 0 010-3.329c-.552-.32-1.105-.644-1.642-.966a2.157 2.157 0 01-.873-2.659L1.962 26.3a2.157 2.157 0 012.497-1.262c.606.151 1.226.311 1.845.478a14.293 14.293 0 012.353-2.355c-.165-.616-.325-1.236-.477-1.844a2.156 2.156 0 011.262-2.497l2.84-1.176a2.157 2.157 0 012.658.873c.321.536.646 1.087.966 1.642a14.317 14.317 0 013.329 0c.319-.553.644-1.104.966-1.642a2.157 2.157 0 012.659-.873l2.84 1.176a2.156 2.156 0 011.261 2.497c-.15.607-.312 1.227-.477 1.845.873.69 1.665 1.48 2.354 2.353.618-.166 1.237-.326 1.844-.477A2.157 2.157 0 0133.18 26.3l1.176 2.84a2.157 2.157 0 01-.873 2.658c-.535.322-1.087.646-1.641.966.13 1.104.129 2.223 0 3.329.551.318 1.103.643 1.641.967a2.157 2.157 0 01.874 2.658zm-2.164-.762a98.007 98.007 0 00-1.576-.926 2.14 2.14 0 01-1.06-2.121c.122-.984.122-1.981 0-2.964a2.138 2.138 0 011.06-2.119 92.345 92.345 0 001.576-.926l-1.081-2.61a98.6 98.6 0 00-1.768.46 2.138 2.138 0 01-2.25-.749 12.007 12.007 0 00-2.095-2.094 2.14 2.14 0 01-.75-2.25c.16-.592.314-1.186.46-1.77l-2.61-1.08c-.31.516-.62 1.046-.925 1.575a2.139 2.139 0 01-2.122 1.061 12.032 12.032 0 00-2.963 0 2.139 2.139 0 01-2.12-1.061 107.51 107.51 0 00-.925-1.575l-2.61 1.08c.146.585.3 1.178.46 1.769a2.138 2.138 0 01-.75 2.249 12.012 12.012 0 00-2.094 2.096 2.14 2.14 0 01-2.25.75 98.248 98.248 0 00-1.769-.46l-1.08 2.61c.515.31 1.045.62 1.575.926a2.139 2.139 0 011.06 2.121 12.021 12.021 0 000 2.963 2.14 2.14 0 01-1.06 2.12c-.53.305-1.06.616-1.576.925l1.081 2.61a98.6 98.6 0 001.768-.46 2.14 2.14 0 012.25.75c.608.78 1.313 1.485 2.095 2.094a2.14 2.14 0 01.75 2.25 106 106 0 00-.46 1.768l2.61 1.082c.307-.513.618-1.042.926-1.576a2.137 2.137 0 012.121-1.06 12.04 12.04 0 002.963 0 2.138 2.138 0 012.12 1.061c.304.528.615 1.057.925 1.575l2.61-1.081c-.145-.58-.3-1.174-.46-1.768a2.14 2.14 0 01.75-2.25 12.017 12.017 0 002.094-2.094 2.14 2.14 0 012.25-.751c.592.16 1.186.314 1.77.46zm-11.635 2.682a7.79 7.79 0 01-2.986.599c-1.012 0-2.024-.2-2.987-.599a7.753 7.753 0 01-4.223-4.223c-1.647-3.975.248-8.55 4.223-10.197 3.976-1.646 8.55.248 10.197 4.224 1.647 3.976-.248 8.55-4.224 10.196zm2.108-9.32a5.524 5.524 0 00-5.101-3.404c-.702 0-1.415.135-2.103.42a5.52 5.52 0 00-2.985 7.204 5.477 5.477 0 002.985 2.985 5.477 5.477 0 004.22 0 5.52 5.52 0 002.984-7.205zm29.118-20.222v2.234c0 .892-.664 1.664-1.544 1.795-.395.06-.801.116-1.21.171-.206.686-.481 1.35-.82 1.98.25.327.496.655.734.978.53.715.453 1.73-.177 2.36l-1.58 1.58c-.63.63-1.645.706-2.36.177a81.575 81.575 0 01-.977-.735c-.631.34-1.295.615-1.98.82a80.4 80.4 0 01-.172 1.21 1.824 1.824 0 01-1.794 1.544h-2.234a1.824 1.824 0 01-1.795-1.543 73.616 73.616 0 01-.17-1.21 10.701 10.701 0 01-1.981-.82 82.66 82.66 0 01-.977.734 1.823 1.823 0 01-2.36-.178l-1.58-1.58a1.824 1.824 0 01-.178-2.36c.239-.322.485-.65.735-.976a10.684 10.684 0 01-.82-1.98 73.758 73.758 0 01-1.21-.172 1.824 1.824 0 01-1.544-1.795v-2.234c0-.89.663-1.663 1.543-1.794.395-.06.802-.116 1.21-.172.207-.684.482-1.349.821-1.98a75.68 75.68 0 01-.735-.977 1.825 1.825 0 01.178-2.36l1.58-1.58a1.825 1.825 0 012.36-.177c.323.239.65.485.977.735a10.53 10.53 0 011.98-.82c.055-.41.112-.816.171-1.211A1.825 1.825 0 0137.67.216h2.234c.891 0 1.663.664 1.794 1.544.06.395.117.802.171 1.21.686.206 1.35.481 1.98.82.327-.249.655-.495.978-.734a1.825 1.825 0 012.36.177l1.58 1.58c.63.63.707 1.645.178 2.36-.239.322-.485.65-.736.977.34.631.615 1.296.821 1.98.41.055.815.113 1.21.172.88.131 1.544.903 1.544 1.794zm-2.176 1.923v-1.611a78.028 78.028 0 00-1.092-.15 1.81 1.81 0 01-1.516-1.314 8.477 8.477 0 00-.8-1.932 1.81 1.81 0 01.142-2.001c.226-.294.45-.588.666-.88l-1.139-1.14c-.293.219-.587.442-.88.667a1.81 1.81 0 01-2.001.142 8.478 8.478 0 00-1.931-.8 1.809 1.809 0 01-1.314-1.516 78.744 78.744 0 00-.15-1.092H37.98c-.052.36-.103.725-.15 1.092A1.808 1.808 0 0136.514 5a8.472 8.472 0 00-1.93.8 1.81 1.81 0 01-2.002-.142 77.932 77.932 0 00-.88-.666l-1.14 1.139c.218.291.442.586.667.88a1.81 1.81 0 01.142 2.001 8.451 8.451 0 00-.8 1.931 1.81 1.81 0 01-1.516 1.314 99.73 99.73 0 00-1.092.15v1.612c.359.053.725.103 1.092.15a1.81 1.81 0 011.516 1.315c.185.673.455 1.322.8 1.93a1.81 1.81 0 01-.142 2.002 75.17 75.17 0 00-.666.88l1.14 1.14c.292-.22.586-.442.879-.667a1.809 1.809 0 012.001-.142 8.477 8.477 0 001.931.8 1.81 1.81 0 011.314 1.516c.048.367.099.733.15 1.092h1.613c.052-.359.102-.725.15-1.092a1.81 1.81 0 011.314-1.516 8.476 8.476 0 001.93-.8 1.81 1.81 0 012.002.142c.293.225.588.448.88.666l1.14-1.14a77.77 77.77 0 00-.667-.878 1.81 1.81 0 01-.142-2.002 8.475 8.475 0 00.8-1.931 1.809 1.809 0 011.516-1.314c.367-.048.733-.098 1.092-.15zm-6.185-.806a4.641 4.641 0 01-4.636 4.637 4.641 4.641 0 01-4.637-4.637 4.642 4.642 0 014.637-4.636 4.641 4.641 0 014.636 4.636zm-2.06 0a2.579 2.579 0 00-2.576-2.575 2.578 2.578 0 00-2.576 2.575 2.578 2.578 0 002.576 2.576 2.578 2.578 0 002.575-2.576z" fill="url(#a)"/></svg>