<svg width="60" height="60" xmlns="http://www.w3.org/2000/svg"><defs><linearGradient id="a" gradientUnits="userSpaceOnUse" x1="29.987" y1="60.003" x2="30.013" y2="-.004"><stop stop-color="#f26725" offset="0"/><stop stop-color="#ffb62a" offset="1"/></linearGradient></defs><path d="M59.987 30c0 16.57-13.426 30.003-29.987 30.003C13.438 60.003.013 46.57.013 30A29.668 29.668 0 016.01 12.02V8.998a3.003 3.003 0 012.999-3h3.022a29.904 29.904 0 0135.938 0h3.022a3.003 3.003 0 012.999 3v3.024A29.67 29.67 0 0159.987 30zM15.571 5.997h28.858a27.666 27.666 0 00-14.43-4 27.666 27.666 0 00-14.428 4zM8.009 36h43.982V8.997a1 1 0 00-1-1H9.009a1 1 0 00-1 1zm0 3a1 1 0 001 1H50.99a1 1 0 001-1v-1H8.009zm17.993 7.001a5.007 5.007 0 00-4.898 4h17.792a5.007 5.007 0 00-4.898-4zm6.997-2v-2H27v2zM57.988 30a27.705 27.705 0 00-3.998-14.437V39a3.003 3.003 0 01-3 3H34.999v2.08a7.005 7.005 0 015.997 6.921.998.998 0 01-1 1h-19.99a1 1 0 01-1-1 7.005 7.005 0 015.997-6.921V42H9.009a3.003 3.003 0 01-2.999-3V15.56A27.706 27.706 0 002.012 30C2.029 45.46 14.55 57.985 30 58.003c15.45-.018 27.97-12.545 27.988-28.004zM39.926 16.653c.044.11.068.227.07.345V27a.93.93 0 01-.026.127.732.732 0 01-.127.374.943.943 0 01-.104.154.985.985 0 01-.161.137.989.989 0 01-.097.082l-8.98 4.992-.002.001-.014.008a.943.943 0 01-.142.057c-.03.01-.058.027-.09.035A.988.988 0 0130 33a.723.723 0 01-.349-.072.962.962 0 01-.136-.054l-.02-.012h-.003l-8.973-4.989a.973.973 0 01-.096-.082.995.995 0 01-.162-.137 1.58 1.58 0 01-.19-.325.983.983 0 01-.041-.203.954.954 0 01-.026-.127v-10a.989.989 0 01.105-.43.983.983 0 01.175-.26c.007-.006.01-.015.017-.021a.997.997 0 01.218-.164l8.996-5.001a.951.951 0 01.1-.032.971.971 0 01.2-.064c.122-.022.248-.022.371 0a.952.952 0 01.199.064c.034.009.067.02.1.032l8.996 5c.08.045.153.1.218.165.006.006.01.015.017.022a.98.98 0 01.21.343zM29 22.587l-6.997-3.89v7.714L29 30.301zm7.937-5.589L30 13.141l-6.938 3.857L30 20.855zm1.06 1.7L31 22.586V30.3l6.997-3.889z" fill="none"/><path d="M59.987 30c0 16.57-13.426 30.003-29.987 30.003C13.438 60.003.013 46.57.013 30A29.668 29.668 0 016.01 12.02V8.998a3.003 3.003 0 012.999-3h3.022a29.904 29.904 0 0135.938 0h3.022a3.003 3.003 0 012.999 3v3.024A29.67 29.67 0 0159.987 30zM15.571 5.997h28.858a27.666 27.666 0 00-14.43-4 27.666 27.666 0 00-14.428 4zM8.009 36h43.982V8.997a1 1 0 00-1-1H9.009a1 1 0 00-1 1zm0 3a1 1 0 001 1H50.99a1 1 0 001-1v-1H8.009zm17.993 7.001a5.007 5.007 0 00-4.898 4h17.792a5.007 5.007 0 00-4.898-4zm6.997-2v-2H27v2zM57.988 30a27.705 27.705 0 00-3.998-14.437V39a3.003 3.003 0 01-3 3H34.999v2.08a7.005 7.005 0 015.997 6.921.998.998 0 01-1 1h-19.99a1 1 0 01-1-1 7.005 7.005 0 015.997-6.921V42H9.009a3.003 3.003 0 01-2.999-3V15.56A27.706 27.706 0 002.012 30C2.029 45.46 14.55 57.985 30 58.003c15.45-.018 27.97-12.545 27.988-28.004zM39.926 16.653c.044.11.068.227.07.345V27a.93.93 0 01-.026.127.732.732 0 01-.127.374.943.943 0 01-.104.154.985.985 0 01-.161.137.989.989 0 01-.097.082l-8.98 4.992-.002.001-.014.008a.943.943 0 01-.142.057c-.03.01-.058.027-.09.035A.988.988 0 0130 33a.723.723 0 01-.349-.072.962.962 0 01-.136-.054l-.02-.012h-.003l-8.973-4.989a.973.973 0 01-.096-.082.995.995 0 01-.162-.137 1.58 1.58 0 01-.19-.325.983.983 0 01-.041-.203.954.954 0 01-.026-.127v-10a.989.989 0 01.105-.43.983.983 0 01.175-.26c.007-.006.01-.015.017-.021a.997.997 0 01.218-.164l8.996-5.001a.951.951 0 01.1-.032.971.971 0 01.2-.064c.122-.022.248-.022.371 0a.952.952 0 01.199.064c.034.009.067.02.1.032l8.996 5c.08.045.153.1.218.165.006.006.01.015.017.022a.98.98 0 01.21.343zM29 22.587l-6.997-3.89v7.714L29 30.301zm7.937-5.589L30 13.141l-6.938 3.857L30 20.855zm1.06 1.7L31 22.586V30.3l6.997-3.889z" fill="url(#a)"/></svg>