<svg width="60" height="60" xmlns="http://www.w3.org/2000/svg"><defs><linearGradient id="a" gradientUnits="userSpaceOnUse" x1="30.017" y1="60.008" x2="30.025" y2="-.011"><stop stop-color="#f26725" offset="0"/><stop stop-color="#ffb62a" offset="1"/></linearGradient></defs><path d="M60.017 47.877v2.264a1 1 0 01-.597.915l-1.382.609a9.502 9.502 0 01-.175.56l.77 1.325c.177.306.18.682.008.99a11.286 11.286 0 01-1.44 2.011.995.995 0 01-.97.307l-1.454-.331c-.143.111-.29.22-.44.324l-.14 1.54a.998.998 0 01-.577.817c-.742.346-1.521.607-2.322.779a.999.999 0 01-.964-.327l-1.018-1.181h-.49l-1.018 1.181a.998.998 0 01-.963.327 10.864 10.864 0 01-2.322-.78.998.998 0 01-.577-.815l-.14-1.541a9.164 9.164 0 01-.441-.325l-1.453.332a.997.997 0 01-.97-.307 11.298 11.298 0 01-1.44-2.01 1.002 1.002 0 01.008-.99l.77-1.327a9.414 9.414 0 01-.175-.56l-1.382-.608a1 1 0 01-.597-.916v-2.263a1 1 0 01.597-.915l1.382-.61a9.43 9.43 0 01.175-.56l-.77-1.325a1 1 0 01-.007-.99c.404-.72.887-1.395 1.44-2.01a.998.998 0 01.968-.308l1.455.332c.143-.112.29-.22.44-.324l.14-1.542a1 1 0 01.577-.816 10.859 10.859 0 012.322-.778.991.991 0 01.964.327l1.018 1.181h.489l1.018-1.181a.996.996 0 01.964-.327c.801.171 1.58.432 2.322.778.324.15.544.461.576.816l.141 1.542c.15.105.297.212.44.324l1.455-.332a.996.996 0 01.968.307c.553.616 1.036 1.29 1.441 2.011a1 1 0 01-.008.99l-.77 1.326c.063.18.121.366.175.56l1.382.61a.997.997 0 01.597.914zm-2.001 1.612v-.961l-1.233-.543a.997.997 0 01-.572-.693 7.478 7.478 0 00-.377-1.206 1.002 1.002 0 01.058-.886l.713-1.226a9.283 9.283 0 00-.522-.73l-1.341.306a.997.997 0 01-.885-.225 7.399 7.399 0 00-.999-.736 1.003 1.003 0 01-.47-.76l-.13-1.428a8.84 8.84 0 00-.808-.274l-.917 1.064c-.19.22-.467.347-.759.348H48.37a1 1 0 01-.759-.348l-.917-1.064a8.842 8.842 0 00-.807.274l-.13 1.428a1.003 1.003 0 01-.471.76 7.404 7.404 0 00-1 .736 1 1 0 01-.884.225l-1.341-.307a9.36 9.36 0 00-.521.73l.712 1.226a1 1 0 01.058.885c-.16.392-.285.795-.377 1.208a.996.996 0 01-.572.693l-1.232.543v.96l1.232.544c.29.127.502.385.572.693.091.412.218.816.377 1.206.12.289.098.616-.058.886l-.713 1.226c.161.25.335.494.522.73l1.34-.307c.315-.072.645.013.887.226.311.273.645.52.998.737a1 1 0 01.471.76l.13 1.428c.269.104.539.197.807.273l.917-1.064c.19-.22.467-.347.759-.347h1.405c.292 0 .569.127.759.347l.917 1.064c.268-.076.538-.169.807-.273l.13-1.428c.03-.313.204-.595.471-.76a7.4 7.4 0 001-.737.992.992 0 01.884-.225l1.341.307c.187-.237.36-.48.522-.73l-.713-1.227a1.003 1.003 0 01-.058-.886c.16-.39.286-.794.377-1.206a.997.997 0 01.572-.693zm-3.94-.48c0 2.76-2.24 5-5.005 5a5.002 5.002 0 01-5.004-5c0-2.762 2.24-5 5.004-5a5.008 5.008 0 015.005 5zm-2.002 0c0-1.657-1.344-3-3.003-3a3.001 3.001 0 00-3.002 3c0 1.656 1.344 3 3.002 3a3.005 3.005 0 003.003-3zm-9.008-29.997c0 8.283-6.722 14.998-15.015 14.998-8.288-.01-15.005-6.72-15.014-14.998 0-8.284 6.722-15 15.014-15 8.293 0 15.015 6.716 15.015 15zM31.76 31.465c-.245-.161-.5-.318-.726-.488a1 1 0 01-.348-1.11l.46-1.397a12.842 12.842 0 01-.552-.55l-1.399.458a1.001 1.001 0 01-1.112-.349 15.01 15.01 0 01-1.839-3.145.998.998 0 01.253-1.137l1.113-.996c-.076-.25-.143-.5-.203-.751l-1.45-.305a1 1 0 01-.795-.978v-3.41a1 1 0 01.795-.978l1.45-.305c.06-.25.127-.502.204-.751l-1.114-.996a.998.998 0 01-.253-1.137 14.942 14.942 0 011.84-3.147c.26-.34.705-.48 1.112-.348l1.398.46c.178-.19.363-.374.551-.552l-.46-1.397a1 1 0 01.35-1.11c.226-.171.48-.327.725-.488a12.973 12.973 0 00-7.424-.005c-6.886 2.048-10.807 9.285-8.757 16.164 2.05 6.88 9.295 10.796 16.181 8.748zm5.952-3.777a8.99 8.99 0 01-6.35-6.344c-1.29-4.792 1.553-9.72 6.35-11.008a13.066 13.066 0 00-3.631-2.832 13.95 13.95 0 00-1.263.73l.433 1.315a1 1 0 01-.303 1.076c-.461.39-.89.819-1.28 1.28-.264.31-.69.43-1.077.304l-1.323-.435c-.328.482-.623.985-.884 1.506l1.05.94c.303.27.412.699.274 1.082a10.88 10.88 0 00-.47 1.743 1 1 0 01-.78.801l-1.294.272v1.787l1.295.273a1 1 0 01.78.8c.107.593.264 1.175.47 1.741a1 1 0 01-.275 1.084l-1.05.94a12.9 12.9 0 00.884 1.506l1.322-.434a1.006 1.006 0 011.076.302c.391.462.82.89 1.282 1.28.31.263.43.689.304 1.076l-.433 1.316c.407.265.829.51 1.263.73a13.076 13.076 0 003.63-2.83zm1.339-1.764a12.88 12.88 0 000-13.825 6.988 6.988 0 00-5.924 5.918 6.985 6.985 0 005.924 7.907zm15.966-7.93v2.036a.999.999 0 01-.597.915l-1.2.529a8.665 8.665 0 01-.131.422l.67 1.153c.177.306.18.682.006.99a10.278 10.278 0 01-1.307 1.826.996.996 0 01-.97.309l-1.262-.288c-.106.081-.214.16-.325.239l-.123 1.341a1.002 1.002 0 01-.576.815 9.764 9.764 0 01-2.111.708 1.002 1.002 0 01-.946-.305L45.05 27.48a18.807 18.807 0 01-20.1 10.254l-3.123 3.9a1.002 1.002 0 01-1.37.184l-2.025-1.47-11.624 14.29a1.004 1.004 0 01-1.403.152l-5.005-4-.003-.003a1 1 0 01-.148-1.409l11.37-13.98-2.173-1.58a.993.993 0 01-.404-.675c-.036-.27.04-.544.21-.757l2.678-3.344c-.333-.53-.64-1.077-.918-1.639C6.35 18.014 10.19 6.628 19.587 1.97c9.398-4.658 20.797-.823 25.46 8.565l1.105-1.2a.998.998 0 01.941-.3 9.78 9.78 0 012.11.707 1 1 0 01.576.816l.123 1.34c.11.077.22.157.326.24l1.26-.289a.998.998 0 01.971.31c.502.559.94 1.17 1.308 1.826a1 1 0 01-.008.989l-.67 1.153c.048.138.09.279.132.422l1.2.53a.996.996 0 01.597.914zM16.81 39.17l-3.568-2.594L2.438 49.857l3.442 2.751zm5.963-1.92a19.054 19.054 0 01-9.646-6.5l-1.657 2.067 7.258 5.273.114.083 2.018 1.466zm22.295-18.238c0-9.388-7.619-16.998-17.016-16.998-9.394.01-17.006 7.614-17.017 16.998 0 9.387 7.619 16.998 17.017 16.998 9.397 0 17.016-7.61 17.016-16.998zm7.949.367v-.735l-1.05-.461a.999.999 0 01-.57-.694 6.769 6.769 0 00-.335-1.072.997.997 0 01.058-.883l.61-1.052a8.599 8.599 0 00-.392-.547l-1.143.261a.997.997 0 01-.886-.223 6.44 6.44 0 00-.886-.655 1.004 1.004 0 01-.47-.76l-.113-1.222a7.659 7.659 0 00-.618-.21l-1.31 1.422a18.624 18.624 0 01.006 12.91l1.307 1.438c.206-.06.41-.13.615-.208l.112-1.224a1 1 0 01.47-.758c.313-.193.61-.413.887-.656a.992.992 0 01.886-.224l1.143.262c.14-.178.27-.361.392-.547l-.61-1.051a.999.999 0 01-.058-.884c.14-.348.252-.706.334-1.072a.997.997 0 01.572-.694l1.049-.461z" fill="none"/><path d="M60.017 47.877v2.264a1 1 0 01-.597.915l-1.382.609a9.502 9.502 0 01-.175.56l.77 1.325c.177.306.18.682.008.99a11.286 11.286 0 01-1.44 2.011.995.995 0 01-.97.307l-1.454-.331c-.143.111-.29.22-.44.324l-.14 1.54a.998.998 0 01-.577.817c-.742.346-1.521.607-2.322.779a.999.999 0 01-.964-.327l-1.018-1.181h-.49l-1.018 1.181a.998.998 0 01-.963.327 10.864 10.864 0 01-2.322-.78.998.998 0 01-.577-.815l-.14-1.541a9.164 9.164 0 01-.441-.325l-1.453.332a.997.997 0 01-.97-.307 11.298 11.298 0 01-1.44-2.01 1.002 1.002 0 01.008-.99l.77-1.327a9.414 9.414 0 01-.175-.56l-1.382-.608a1 1 0 01-.597-.916v-2.263a1 1 0 01.597-.915l1.382-.61a9.43 9.43 0 01.175-.56l-.77-1.325a1 1 0 01-.007-.99c.404-.72.887-1.395 1.44-2.01a.998.998 0 01.968-.308l1.455.332c.143-.112.29-.22.44-.324l.14-1.542a1 1 0 01.577-.816 10.859 10.859 0 012.322-.778.991.991 0 01.964.327l1.018 1.181h.489l1.018-1.181a.996.996 0 01.964-.327c.801.171 1.58.432 2.322.778.324.15.544.461.576.816l.141 1.542c.15.105.297.212.44.324l1.455-.332a.996.996 0 01.968.307c.553.616 1.036 1.29 1.441 2.011a1 1 0 01-.008.99l-.77 1.326c.063.18.121.366.175.56l1.382.61a.997.997 0 01.597.914zm-2.001 1.612v-.961l-1.233-.543a.997.997 0 01-.572-.693 7.478 7.478 0 00-.377-1.206 1.002 1.002 0 01.058-.886l.713-1.226a9.283 9.283 0 00-.522-.73l-1.341.306a.997.997 0 01-.885-.225 7.399 7.399 0 00-.999-.736 1.003 1.003 0 01-.47-.76l-.13-1.428a8.84 8.84 0 00-.808-.274l-.917 1.064c-.19.22-.467.347-.759.348H48.37a1 1 0 01-.759-.348l-.917-1.064a8.842 8.842 0 00-.807.274l-.13 1.428a1.003 1.003 0 01-.471.76 7.404 7.404 0 00-1 .736 1 1 0 01-.884.225l-1.341-.307a9.36 9.36 0 00-.521.73l.712 1.226a1 1 0 01.058.885c-.16.392-.285.795-.377 1.208a.996.996 0 01-.572.693l-1.232.543v.96l1.232.544c.29.127.502.385.572.693.091.412.218.816.377 1.206.12.289.098.616-.058.886l-.713 1.226c.161.25.335.494.522.73l1.34-.307c.315-.072.645.013.887.226.311.273.645.52.998.737a1 1 0 01.471.76l.13 1.428c.269.104.539.197.807.273l.917-1.064c.19-.22.467-.347.759-.347h1.405c.292 0 .569.127.759.347l.917 1.064c.268-.076.538-.169.807-.273l.13-1.428c.03-.313.204-.595.471-.76a7.4 7.4 0 001-.737.992.992 0 01.884-.225l1.341.307c.187-.237.36-.48.522-.73l-.713-1.227a1.003 1.003 0 01-.058-.886c.16-.39.286-.794.377-1.206a.997.997 0 01.572-.693zm-3.94-.48c0 2.76-2.24 5-5.005 5a5.002 5.002 0 01-5.004-5c0-2.762 2.24-5 5.004-5a5.008 5.008 0 015.005 5zm-2.002 0c0-1.657-1.344-3-3.003-3a3.001 3.001 0 00-3.002 3c0 1.656 1.344 3 3.002 3a3.005 3.005 0 003.003-3zm-9.008-29.997c0 8.283-6.722 14.998-15.015 14.998-8.288-.01-15.005-6.72-15.014-14.998 0-8.284 6.722-15 15.014-15 8.293 0 15.015 6.716 15.015 15zM31.76 31.465c-.245-.161-.5-.318-.726-.488a1 1 0 01-.348-1.11l.46-1.397a12.842 12.842 0 01-.552-.55l-1.399.458a1.001 1.001 0 01-1.112-.349 15.01 15.01 0 01-1.839-3.145.998.998 0 01.253-1.137l1.113-.996c-.076-.25-.143-.5-.203-.751l-1.45-.305a1 1 0 01-.795-.978v-3.41a1 1 0 01.795-.978l1.45-.305c.06-.25.127-.502.204-.751l-1.114-.996a.998.998 0 01-.253-1.137 14.942 14.942 0 011.84-3.147c.26-.34.705-.48 1.112-.348l1.398.46c.178-.19.363-.374.551-.552l-.46-1.397a1 1 0 01.35-1.11c.226-.171.48-.327.725-.488a12.973 12.973 0 00-7.424-.005c-6.886 2.048-10.807 9.285-8.757 16.164 2.05 6.88 9.295 10.796 16.181 8.748zm5.952-3.777a8.99 8.99 0 01-6.35-6.344c-1.29-4.792 1.553-9.72 6.35-11.008a13.066 13.066 0 00-3.631-2.832 13.95 13.95 0 00-1.263.73l.433 1.315a1 1 0 01-.303 1.076c-.461.39-.89.819-1.28 1.28-.264.31-.69.43-1.077.304l-1.323-.435c-.328.482-.623.985-.884 1.506l1.05.94c.303.27.412.699.274 1.082a10.88 10.88 0 00-.47 1.743 1 1 0 01-.78.801l-1.294.272v1.787l1.295.273a1 1 0 01.78.8c.107.593.264 1.175.47 1.741a1 1 0 01-.275 1.084l-1.05.94a12.9 12.9 0 00.884 1.506l1.322-.434a1.006 1.006 0 011.076.302c.391.462.82.89 1.282 1.28.31.263.43.689.304 1.076l-.433 1.316c.407.265.829.51 1.263.73a13.076 13.076 0 003.63-2.83zm1.339-1.764a12.88 12.88 0 000-13.825 6.988 6.988 0 00-5.924 5.918 6.985 6.985 0 005.924 7.907zm15.966-7.93v2.036a.999.999 0 01-.597.915l-1.2.529a8.665 8.665 0 01-.131.422l.67 1.153c.177.306.18.682.006.99a10.278 10.278 0 01-1.307 1.826.996.996 0 01-.97.309l-1.262-.288c-.106.081-.214.16-.325.239l-.123 1.341a1.002 1.002 0 01-.576.815 9.764 9.764 0 01-2.111.708 1.002 1.002 0 01-.946-.305L45.05 27.48a18.807 18.807 0 01-20.1 10.254l-3.123 3.9a1.002 1.002 0 01-1.37.184l-2.025-1.47-11.624 14.29a1.004 1.004 0 01-1.403.152l-5.005-4-.003-.003a1 1 0 01-.148-1.409l11.37-13.98-2.173-1.58a.993.993 0 01-.404-.675c-.036-.27.04-.544.21-.757l2.678-3.344c-.333-.53-.64-1.077-.918-1.639C6.35 18.014 10.19 6.628 19.587 1.97c9.398-4.658 20.797-.823 25.46 8.565l1.105-1.2a.998.998 0 01.941-.3 9.78 9.78 0 012.11.707 1 1 0 01.576.816l.123 1.34c.11.077.22.157.326.24l1.26-.289a.998.998 0 01.971.31c.502.559.94 1.17 1.308 1.826a1 1 0 01-.008.989l-.67 1.153c.048.138.09.279.132.422l1.2.53a.996.996 0 01.597.914zM16.81 39.17l-3.568-2.594L2.438 49.857l3.442 2.751zm5.963-1.92a19.054 19.054 0 01-9.646-6.5l-1.657 2.067 7.258 5.273.114.083 2.018 1.466zm22.295-18.238c0-9.388-7.619-16.998-17.016-16.998-9.394.01-17.006 7.614-17.017 16.998 0 9.387 7.619 16.998 17.017 16.998 9.397 0 17.016-7.61 17.016-16.998zm7.949.367v-.735l-1.05-.461a.999.999 0 01-.57-.694 6.769 6.769 0 00-.335-1.072.997.997 0 01.058-.883l.61-1.052a8.599 8.599 0 00-.392-.547l-1.143.261a.997.997 0 01-.886-.223 6.44 6.44 0 00-.886-.655 1.004 1.004 0 01-.47-.76l-.113-1.222a7.659 7.659 0 00-.618-.21l-1.31 1.422a18.624 18.624 0 01.006 12.91l1.307 1.438c.206-.06.41-.13.615-.208l.112-1.224a1 1 0 01.47-.758c.313-.193.61-.413.887-.656a.992.992 0 01.886-.224l1.143.262c.14-.178.27-.361.392-.547l-.61-1.051a.999.999 0 01-.058-.884c.14-.348.252-.706.334-1.072a.997.997 0 01.572-.694l1.049-.461z" fill="url(#a)"/></svg>