<svg width="60" height="60" xmlns="http://www.w3.org/2000/svg"><defs><linearGradient id="a" gradientUnits="userSpaceOnUse" x1="30" y1="59.973" x2="30" y2="-.014"><stop stop-color="#f26725" offset="0"/><stop stop-color="#ffb62a" offset="1"/></linearGradient></defs><path d="M60 8.984v39.99a1 1 0 01-1 1H43v-2h15V9.985h-7a1 1 0 01-1-1V1.986H24v9.997h-2V.985a1 1 0 011-1h28a1 1 0 01.707.294l8 7.998a1 1 0 01.293.707zm-3.414-1L52 3.399v4.585zM33 14.982v43.99a1 1 0 01-1 1H1a1 1 0 01-1-1v-43.99a1 1 0 011-1h31a1 1 0 011 1zm-2 1H2v41.99h29zm-2 4v7.998a1 1 0 01-1 1H5a1 1 0 01-1-1v-8a1 1 0 011-1h23a1 1 0 011 1zm-2 .999H6v5.999h21zM11 49.975v4.998a1 1 0 01-1 1H5a1 1 0 01-1-1v-4.998a1 1 0 011-1h5a1 1 0 011 1zm-2 1H6v2.999h3zm11-1v4.998a1 1 0 01-1 1h-5a1 1 0 01-1-1v-4.998a1 1 0 011-1h5a1 1 0 011 1zm-2 1h-3v2.999h3zm-7-9.999v5a1 1 0 01-1 1H5a1 1 0 01-1-1v-5a1 1 0 011-1h5a1 1 0 011 1zm-2 1H6v3h3zm11-1v5a1 1 0 01-1 1h-5a1 1 0 01-1-1v-5a1 1 0 011-1h5a1 1 0 011 1zm-2 1h-3v3h3zm-7-9.998v5a1 1 0 01-1 .999H5a1 1 0 01-1-1v-4.999a1 1 0 011-1h5a1 1 0 011 1zm-2 1H6v3h3zm11-1v5a1 1 0 01-1 .999h-5a1 1 0 01-1-1v-4.999a1 1 0 011-1h5a1 1 0 011 1zm-2 1h-3v3h3zm11-1v5a1 1 0 01-1 .999h-5a1 1 0 01-1-1v-4.999a1 1 0 011-1h5a1 1 0 011 1zm-2 1h-3v3h3zm2 7.998v13.997a1 1 0 01-1 1h-5a1 1 0 01-1-1V40.976a1 1 0 011-1h5a1 1 0 011 1zm-2 1h-3v11.998h3zm-4-18.995h2v1.999h-2zm-4 0h2v1.999h-2zm-4 0h2v1.999h-2zM29 5.985h19v1.999H29zm0 3.998h19v2H29zm24 4V26.98H35v-6h2v4h2v-6.999h2v6.999h2v-4h2v4h2v-8.998h2v8.998h2V13.983zm-8 20.995v10.997h-2v-9.997h-2v19.995c0 .197-.059.39-.168.555l-2 3a1 1 0 01-1.664 0l-2-3a1.008 1.008 0 01-.168-.555V30.98a1 1 0 011-1h4a1 1 0 011 1v3h3a1 1 0 011 .999zm-6 1h-2v19.695l1 1.5 1-1.5zm0-4h-2v2h2zm4-1.999h10v2H43zm4 4h6v1.999h-6zm0 3.998h6v2h-6zm0 4h6v1.999h-6z" fill="none"/><path d="M60 8.984v39.99a1 1 0 01-1 1H43v-2h15V9.985h-7a1 1 0 01-1-1V1.986H24v9.997h-2V.985a1 1 0 011-1h28a1 1 0 01.707.294l8 7.998a1 1 0 01.293.707zm-3.414-1L52 3.399v4.585zM33 14.982v43.99a1 1 0 01-1 1H1a1 1 0 01-1-1v-43.99a1 1 0 011-1h31a1 1 0 011 1zm-2 1H2v41.99h29zm-2 4v7.998a1 1 0 01-1 1H5a1 1 0 01-1-1v-8a1 1 0 011-1h23a1 1 0 011 1zm-2 .999H6v5.999h21zM11 49.975v4.998a1 1 0 01-1 1H5a1 1 0 01-1-1v-4.998a1 1 0 011-1h5a1 1 0 011 1zm-2 1H6v2.999h3zm11-1v4.998a1 1 0 01-1 1h-5a1 1 0 01-1-1v-4.998a1 1 0 011-1h5a1 1 0 011 1zm-2 1h-3v2.999h3zm-7-9.999v5a1 1 0 01-1 1H5a1 1 0 01-1-1v-5a1 1 0 011-1h5a1 1 0 011 1zm-2 1H6v3h3zm11-1v5a1 1 0 01-1 1h-5a1 1 0 01-1-1v-5a1 1 0 011-1h5a1 1 0 011 1zm-2 1h-3v3h3zm-7-9.998v5a1 1 0 01-1 .999H5a1 1 0 01-1-1v-4.999a1 1 0 011-1h5a1 1 0 011 1zm-2 1H6v3h3zm11-1v5a1 1 0 01-1 .999h-5a1 1 0 01-1-1v-4.999a1 1 0 011-1h5a1 1 0 011 1zm-2 1h-3v3h3zm11-1v5a1 1 0 01-1 .999h-5a1 1 0 01-1-1v-4.999a1 1 0 011-1h5a1 1 0 011 1zm-2 1h-3v3h3zm2 7.998v13.997a1 1 0 01-1 1h-5a1 1 0 01-1-1V40.976a1 1 0 011-1h5a1 1 0 011 1zm-2 1h-3v11.998h3zm-4-18.995h2v1.999h-2zm-4 0h2v1.999h-2zm-4 0h2v1.999h-2zM29 5.985h19v1.999H29zm0 3.998h19v2H29zm24 4V26.98H35v-6h2v4h2v-6.999h2v6.999h2v-4h2v4h2v-8.998h2v8.998h2V13.983zm-8 20.995v10.997h-2v-9.997h-2v19.995c0 .197-.059.39-.168.555l-2 3a1 1 0 01-1.664 0l-2-3a1.008 1.008 0 01-.168-.555V30.98a1 1 0 011-1h4a1 1 0 011 1v3h3a1 1 0 011 .999zm-6 1h-2v19.695l1 1.5 1-1.5zm0-4h-2v2h2zm4-1.999h10v2H43zm4 4h6v1.999h-6zm0 3.998h6v2h-6zm0 4h6v1.999h-6z" fill="url(#a)"/></svg>