<svg width="60" height="60" xmlns="http://www.w3.org/2000/svg"><defs><linearGradient id="a" gradientUnits="userSpaceOnUse" x1="30.007" y1="60.007" x2="29.992" y2="-.009"><stop stop-color="#f26725" offset="0"/><stop stop-color="#ffb62a" offset="1"/></linearGradient></defs><path d="M29 18.997c0 5.501-4.502 10.002-10.003 10.002s-10.002-4.5-10.002-10.002c0-5.501 4.5-10.002 10.002-10.002C24.5 8.995 29 13.495 29 18.997zm-2 0c0-4.401-3.602-8.002-8.003-8.002s-8.002 3.601-8.002 8.002c0 4.4 3.601 8.002 8.002 8.002 4.401 0 8.002-3.601 8.002-8.002zm33.007 23.005v6.002c0 .6-.4 1-1 1h-2.1c-.4 0-.7.2-.9.6v.1c-.1.3 0 .7.2.9l1.5 1.501c.4.4.4 1 0 1.4l-4.201 4.202c-.4.4-1 .4-1.4 0l-1.5-1.501c-.301-.3-.701-.3-1.001-.2-.4.2-.6.5-.6.9v2.1c0 .6-.4 1.001-1 1.001h-6.002c-.6 0-1-.4-1-1v-2.101c0-.4-.2-.7-.6-.9h-.1c-.3-.1-.7 0-.9.2l-1.5 1.5a.968.968 0 01-1.401 0l-4.201-4.2c-.4-.4-.4-1 0-1.4l1.5-1.502c.3-.3.3-.7.2-1-.2-.4-.5-.6-.9-.6H31c-.6 0-1-.4-1-1v-6.002c0-.6.4-1 1-1h2.1c.4 0 .7-.2.9-.6v-.1c.1-.3 0-.7-.2-.9l-1.5-1.5c-.4-.4-.4-1 0-1.401l4.2-4.2a.966.966 0 011.401 0l1.5 1.5c.3.3.7.3 1 .2.4-.2.6-.5.6-.9V31c0-.6.4-1 1.001-1h6.002c.6 0 1 .4 1 1v2.1c0 .4.2.7.6.9h.1c.3.1.7 0 .9-.2l1.5-1.5c.4-.4 1-.4 1.4 0l4.202 4.201c.4.4.4 1 0 1.4l-1.5 1.501c-.3.3-.3.7-.2 1 .2.4.5.6.9.6h2.1c.6 0 1 .4 1 1zm-2 5.002v-4.001h-1.1c-1.2 0-2.301-.7-2.701-1.8-.5-1.101-.2-2.402.6-3.202l.7-.7-2.8-2.8-.7.6c-.801.8-2.101 1.1-3.202.6-1.1-.5-1.8-1.5-1.8-2.701v-1h-4.001v1.1c0 1.2-.7 2.301-1.8 2.701-1.1.5-2.401.2-3.201-.6l-.7-.7-2.801 2.8.8.8c.8.801 1.1 2.1.6 3.201-.5 1.1-1.5 1.8-2.7 1.8H32v4.002h1.1c1.2 0 2.3.7 2.7 1.8.5 1.1.2 2.4-.6 3.201l-.7.7 2.8 2.801.801-.8c.8-.8 2.1-1.1 3.2-.6 1.101.5 1.801 1.5 1.801 2.7v1.1h3.901v-1.1c0-1.2.7-2.3 1.8-2.7 1.1-.5 2.401-.2 3.202.6l.7.7 2.8-2.8-.6-.701c-.8-.8-1.1-2.1-.6-3.2.5-1.101 1.5-1.801 2.7-1.801zm-6.002-2c0 3.9-3.1 7-7.001 7a6.958 6.958 0 01-7.002-7c0-3.902 3.1-7.003 7.002-7.003 3.9 0 7.001 3.1 7.001 7.002zm-2 0c0-2.802-2.2-5.002-5.001-5.002s-5.002 2.2-5.002 5.001 2.201 5.002 5.002 5.002c2.8 0 5.001-2.201 5.001-5.002zM30.4 34.5c-.4.4-1 .4-1.4 0l-.2-.2c-.9-.9-2.301-1.2-3.601-.6-1.3.5-2.1 1.7-2.1 3v.3c-.1.6-.5 1-1.101 1h-6.002c-.6 0-1-.4-1-1v-.2c0-1.3-.8-2.5-2.1-3-1.3-.6-2.8-.3-3.701.6l-.2.2c-.4.4-1 .4-1.4 0l-4.202-4.202c-.4-.4-.4-1 0-1.4l.2-.2c.9-.9 1.2-2.3.6-3.6-.5-1.301-1.7-2.101-3-2.101h-.2c-.6 0-1-.4-1-1v-6.002c0-.6.4-1 1-1h.2c1.3 0 2.5-.8 3-2.1.6-1.3.3-2.802-.6-3.702l-.2-.2c-.4-.4-.4-1 0-1.4l4.201-4.201c.4-.4 1-.4 1.4 0l.2.2c.901.9 2.301 1.2 3.602.6 1.3-.5 2.1-1.7 2.1-3V.991c0-.6.4-1 1-1h6.002c.6 0 1 .4 1 1v.2c0 1.3.8 2.501 2.1 3.001 1.301.6 2.801.3 3.702-.6l.2-.2c.4-.4 1-.4 1.4 0l4.201 4.2c.4.401.4 1 0 1.402l-.2.2c-.9.9-1.2 2.3-.6 3.6.5 1.3 1.7 2.1 3 2.1h.3c.6 0 1 .401 1 1.001v6.001c0 .6-.4 1-1 1h-.2c-1.3 0-2.5.8-3 2.101-.6 1.3-.3 2.8.6 3.701l.2.2c.4.4.4 1 0 1.4zm2-4.901c-1.1-1.5-1.3-3.401-.6-5.202.7-1.8 2.3-3 4.101-3.3v-4.102c-1.8-.3-3.3-1.5-4-3.3-.8-1.8-.5-3.801.5-5.202l-2.901-2.9c-1.5 1.1-3.401 1.3-5.201.6-1.8-.7-3.001-2.3-3.301-4.102h-4.101c-.3 1.801-1.5 3.302-3.301 4.001-1.8.8-3.801.5-5.201-.5L5.494 8.394c1.1 1.5 1.3 3.4.6 5.201-.7 1.8-2.3 3.001-4.101 3.301v4.101c1.8.3 3.3 1.5 4.001 3.3.8 1.802.5 3.802-.5 5.202l2.9 2.901c1.5-1.1 3.401-1.3 5.202-.6 1.8.9 3.1 2.4 3.3 4.2h4.102c.3-1.8 1.5-3.3 3.3-4 1.8-.8 3.801-.5 5.202.5z" fill="none"/><path d="M29 18.997c0 5.501-4.502 10.002-10.003 10.002s-10.002-4.5-10.002-10.002c0-5.501 4.5-10.002 10.002-10.002C24.5 8.995 29 13.495 29 18.997zm-2 0c0-4.401-3.602-8.002-8.003-8.002s-8.002 3.601-8.002 8.002c0 4.4 3.601 8.002 8.002 8.002 4.401 0 8.002-3.601 8.002-8.002zm33.007 23.005v6.002c0 .6-.4 1-1 1h-2.1c-.4 0-.7.2-.9.6v.1c-.1.3 0 .7.2.9l1.5 1.501c.4.4.4 1 0 1.4l-4.201 4.202c-.4.4-1 .4-1.4 0l-1.5-1.501c-.301-.3-.701-.3-1.001-.2-.4.2-.6.5-.6.9v2.1c0 .6-.4 1.001-1 1.001h-6.002c-.6 0-1-.4-1-1v-2.101c0-.4-.2-.7-.6-.9h-.1c-.3-.1-.7 0-.9.2l-1.5 1.5a.968.968 0 01-1.401 0l-4.201-4.2c-.4-.4-.4-1 0-1.4l1.5-1.502c.3-.3.3-.7.2-1-.2-.4-.5-.6-.9-.6H31c-.6 0-1-.4-1-1v-6.002c0-.6.4-1 1-1h2.1c.4 0 .7-.2.9-.6v-.1c.1-.3 0-.7-.2-.9l-1.5-1.5c-.4-.4-.4-1 0-1.401l4.2-4.2a.966.966 0 011.401 0l1.5 1.5c.3.3.7.3 1 .2.4-.2.6-.5.6-.9V31c0-.6.4-1 1.001-1h6.002c.6 0 1 .4 1 1v2.1c0 .4.2.7.6.9h.1c.3.1.7 0 .9-.2l1.5-1.5c.4-.4 1-.4 1.4 0l4.202 4.201c.4.4.4 1 0 1.4l-1.5 1.501c-.3.3-.3.7-.2 1 .2.4.5.6.9.6h2.1c.6 0 1 .4 1 1zm-2 5.002v-4.001h-1.1c-1.2 0-2.301-.7-2.701-1.8-.5-1.101-.2-2.402.6-3.202l.7-.7-2.8-2.8-.7.6c-.801.8-2.101 1.1-3.202.6-1.1-.5-1.8-1.5-1.8-2.701v-1h-4.001v1.1c0 1.2-.7 2.301-1.8 2.701-1.1.5-2.401.2-3.201-.6l-.7-.7-2.801 2.8.8.8c.8.801 1.1 2.1.6 3.201-.5 1.1-1.5 1.8-2.7 1.8H32v4.002h1.1c1.2 0 2.3.7 2.7 1.8.5 1.1.2 2.4-.6 3.201l-.7.7 2.8 2.801.801-.8c.8-.8 2.1-1.1 3.2-.6 1.101.5 1.801 1.5 1.801 2.7v1.1h3.901v-1.1c0-1.2.7-2.3 1.8-2.7 1.1-.5 2.401-.2 3.202.6l.7.7 2.8-2.8-.6-.701c-.8-.8-1.1-2.1-.6-3.2.5-1.101 1.5-1.801 2.7-1.801zm-6.002-2c0 3.9-3.1 7-7.001 7a6.958 6.958 0 01-7.002-7c0-3.902 3.1-7.003 7.002-7.003 3.9 0 7.001 3.1 7.001 7.002zm-2 0c0-2.802-2.2-5.002-5.001-5.002s-5.002 2.2-5.002 5.001 2.201 5.002 5.002 5.002c2.8 0 5.001-2.201 5.001-5.002zM30.4 34.5c-.4.4-1 .4-1.4 0l-.2-.2c-.9-.9-2.301-1.2-3.601-.6-1.3.5-2.1 1.7-2.1 3v.3c-.1.6-.5 1-1.101 1h-6.002c-.6 0-1-.4-1-1v-.2c0-1.3-.8-2.5-2.1-3-1.3-.6-2.8-.3-3.701.6l-.2.2c-.4.4-1 .4-1.4 0l-4.202-4.202c-.4-.4-.4-1 0-1.4l.2-.2c.9-.9 1.2-2.3.6-3.6-.5-1.301-1.7-2.101-3-2.101h-.2c-.6 0-1-.4-1-1v-6.002c0-.6.4-1 1-1h.2c1.3 0 2.5-.8 3-2.1.6-1.3.3-2.802-.6-3.702l-.2-.2c-.4-.4-.4-1 0-1.4l4.201-4.201c.4-.4 1-.4 1.4 0l.2.2c.901.9 2.301 1.2 3.602.6 1.3-.5 2.1-1.7 2.1-3V.991c0-.6.4-1 1-1h6.002c.6 0 1 .4 1 1v.2c0 1.3.8 2.501 2.1 3.001 1.301.6 2.801.3 3.702-.6l.2-.2c.4-.4 1-.4 1.4 0l4.201 4.2c.4.401.4 1 0 1.402l-.2.2c-.9.9-1.2 2.3-.6 3.6.5 1.3 1.7 2.1 3 2.1h.3c.6 0 1 .401 1 1.001v6.001c0 .6-.4 1-1 1h-.2c-1.3 0-2.5.8-3 2.101-.6 1.3-.3 2.8.6 3.701l.2.2c.4.4.4 1 0 1.4zm2-4.901c-1.1-1.5-1.3-3.401-.6-5.202.7-1.8 2.3-3 4.101-3.3v-4.102c-1.8-.3-3.3-1.5-4-3.3-.8-1.8-.5-3.801.5-5.202l-2.901-2.9c-1.5 1.1-3.401 1.3-5.201.6-1.8-.7-3.001-2.3-3.301-4.102h-4.101c-.3 1.801-1.5 3.302-3.301 4.001-1.8.8-3.801.5-5.201-.5L5.494 8.394c1.1 1.5 1.3 3.4.6 5.201-.7 1.8-2.3 3.001-4.101 3.301v4.101c1.8.3 3.3 1.5 4.001 3.3.8 1.802.5 3.802-.5 5.202l2.9 2.901c1.5-1.1 3.401-1.3 5.202-.6 1.8.9 3.1 2.4 3.3 4.2h4.102c.3-1.8 1.5-3.3 3.3-4 1.8-.8 3.801-.5 5.202.5z" fill="url(#a)"/></svg>