<svg width="60" height="60" xmlns="http://www.w3.org/2000/svg"><defs><linearGradient id="a" gradientUnits="userSpaceOnUse" x1="29.987" y1="59.987" x2="30.012" y2=".012"><stop stop-color="#f26725" offset="0"/><stop stop-color="#ffb62a" offset="1"/></linearGradient></defs><path d="M59.987.012v49.735l-10.24 10.24H19.36v-14.51h-8.384a4.864 4.864 0 01-2.902-.967l-1.805-1.355a2.923 2.923 0 00-1.741-.58h-2.58v1.935H.012V26.13h1.935v1.935h2.267c.775 0 1.504-.302 2.052-.85l2.218-2.218a10.638 10.638 0 003.136-7.573c0-1.6 1.302-2.902 2.902-2.902s2.903 1.302 2.903 2.902v3.59a11.05 11.05 0 01-1.915 6.232.656.656 0 00.635.818h3.214V.013zM17.425 30.967c0 .533.433.967.967.967h6.771a.968.968 0 000-1.935h-6.771a.968.968 0 00-.967.968zm0 3.87c0 .533.433.967.967.967h6.771a.968.968 0 000-1.935h-6.771a.968.968 0 00-.967.967zm0 3.868c0 .534.433.968.967.968h6.771a.968.968 0 000-1.935h-6.771a.968.968 0 00-.967.967zm-1.935-3.869c0-.746.29-1.42.754-1.934a2.883 2.883 0 01-.754-1.935c0-.358.073-.698.192-1.014a2.59 2.59 0 01-2.127-2.543c0-.33.062-.653.186-.961l.104-.194a9.136 9.136 0 001.645-5.242v-3.59a.968.968 0 00-1.935 0 12.56 12.56 0 01-3.703 8.942l-2.218 2.218a4.806 4.806 0 01-3.42 1.416H1.947V40.64h2.58c1.04 0 2.071.344 2.902.968l1.805 1.354c.5.374 1.117.58 1.741.58h4.693a2.874 2.874 0 01-.178-.967c0-.746.29-1.42.754-1.935a2.884 2.884 0 01-.754-1.935c0-.746.29-1.42.754-1.934a2.882 2.882 0 01-.754-1.935zm9.673 8.706a.968.968 0 000-1.934h-6.771a.968.968 0 000 1.934zm31.522 6.771h-6.37v6.372zm1.368-48.367h-36.76v26.119h3.87c1.6 0 2.902 1.301 2.902 2.902 0 .746-.29 1.42-.754 1.935.463.514.754 1.188.754 1.934s-.29 1.42-.754 1.935c.463.514.754 1.188.754 1.934 0 .747-.29 1.42-.754 1.935.463.515.754 1.188.754 1.935 0 1.6-1.302 2.902-2.902 2.902h-3.87v12.575H48.38v-9.673h9.674zM43.259 22.944l-3.586 3.586v7.339H30v-9.673h9.273l2.618-2.619zm-5.52 5.521l-2.902 2.902-2.619-2.618 1.368-1.368 1.25 1.25 2.502-2.5h-5.403v5.803h5.804zm1.934 8.306v9.673H30v-9.673zm-1.934 1.934h-5.804v5.805h5.804zm6.771-14.51h11.608v1.935H44.51zm0 7.74h11.608v1.934H44.51zm0-3.87h4.837v1.934H44.51zm6.771 0h4.837v1.934h-4.837zM44.51 36.77h11.608v1.934H44.51zm0 7.739h11.608v1.934H44.51zm0-3.87h4.837v1.935H44.51zm6.771 0h4.837v1.935h-4.837zM34.29 6.613l-1.405 2.4-.208 2.862-2.676-.68-2.675.68-.208-2.863-1.405-2.4 2.49-1.079L30 3.31l1.8 2.225zm-2.774.906l-.922-.4L30 6.388l-.594.732-.922.4.53.904.074 1.007.912-.232.913.232.074-1.007zm12.448-.906l-1.406 2.4-.208 2.862-2.676-.68-2.675.68-.207-2.863-1.406-2.4 2.49-1.079 1.798-2.223 1.8 2.225zm-2.775.906l-.922-.4-.593-.732-.593.733-.922.398.529.905.074 1.007.912-.232.914.232.073-1.007zm-2.062 6.833l-1.406 2.4-.208 2.862-2.675-.68-2.676.68-.208-2.863-1.406-2.4 2.491-1.079 1.799-2.223 1.799 2.224zm-2.774.906l-.922-.399-.593-.734-.593.734-.922.398.529.905.073 1.007.913-.232.912.232.073-1.006zm12.447-.906l-1.405 2.4-.208 2.862-2.676-.68-2.676.68-.208-2.863-1.405-2.4 2.49-1.079 1.799-2.223 1.8 2.224zm-2.774.906l-.922-.399-.593-.734-.593.734-.922.398.53.905.073 1.007.912-.232.912.232.074-1.006zm7.61-8.645l-1.405 2.4-.208 2.862-2.675-.68-2.676.68-.207-2.863-1.405-2.4 2.49-1.079 1.798-2.223 1.799 2.225zm-2.773.906l-.922-.4-.593-.732-.593.733-.923.398.529.905.075 1.007.912-.232.913.232.073-1.007z" fill="none"/><path d="M59.987.012v49.735l-10.24 10.24H19.36v-14.51h-8.384a4.864 4.864 0 01-2.902-.967l-1.805-1.355a2.923 2.923 0 00-1.741-.58h-2.58v1.935H.012V26.13h1.935v1.935h2.267c.775 0 1.504-.302 2.052-.85l2.218-2.218a10.638 10.638 0 003.136-7.573c0-1.6 1.302-2.902 2.902-2.902s2.903 1.302 2.903 2.902v3.59a11.05 11.05 0 01-1.915 6.232.656.656 0 00.635.818h3.214V.013zM17.425 30.967c0 .533.433.967.967.967h6.771a.968.968 0 000-1.935h-6.771a.968.968 0 00-.967.968zm0 3.87c0 .533.433.967.967.967h6.771a.968.968 0 000-1.935h-6.771a.968.968 0 00-.967.967zm0 3.868c0 .534.433.968.967.968h6.771a.968.968 0 000-1.935h-6.771a.968.968 0 00-.967.967zm-1.935-3.869c0-.746.29-1.42.754-1.934a2.883 2.883 0 01-.754-1.935c0-.358.073-.698.192-1.014a2.59 2.59 0 01-2.127-2.543c0-.33.062-.653.186-.961l.104-.194a9.136 9.136 0 001.645-5.242v-3.59a.968.968 0 00-1.935 0 12.56 12.56 0 01-3.703 8.942l-2.218 2.218a4.806 4.806 0 01-3.42 1.416H1.947V40.64h2.58c1.04 0 2.071.344 2.902.968l1.805 1.354c.5.374 1.117.58 1.741.58h4.693a2.874 2.874 0 01-.178-.967c0-.746.29-1.42.754-1.935a2.884 2.884 0 01-.754-1.935c0-.746.29-1.42.754-1.934a2.882 2.882 0 01-.754-1.935zm9.673 8.706a.968.968 0 000-1.934h-6.771a.968.968 0 000 1.934zm31.522 6.771h-6.37v6.372zm1.368-48.367h-36.76v26.119h3.87c1.6 0 2.902 1.301 2.902 2.902 0 .746-.29 1.42-.754 1.935.463.514.754 1.188.754 1.934s-.29 1.42-.754 1.935c.463.514.754 1.188.754 1.934 0 .747-.29 1.42-.754 1.935.463.515.754 1.188.754 1.935 0 1.6-1.302 2.902-2.902 2.902h-3.87v12.575H48.38v-9.673h9.674zM43.259 22.944l-3.586 3.586v7.339H30v-9.673h9.273l2.618-2.619zm-5.52 5.521l-2.902 2.902-2.619-2.618 1.368-1.368 1.25 1.25 2.502-2.5h-5.403v5.803h5.804zm1.934 8.306v9.673H30v-9.673zm-1.934 1.934h-5.804v5.805h5.804zm6.771-14.51h11.608v1.935H44.51zm0 7.74h11.608v1.934H44.51zm0-3.87h4.837v1.934H44.51zm6.771 0h4.837v1.934h-4.837zM44.51 36.77h11.608v1.934H44.51zm0 7.739h11.608v1.934H44.51zm0-3.87h4.837v1.935H44.51zm6.771 0h4.837v1.935h-4.837zM34.29 6.613l-1.405 2.4-.208 2.862-2.676-.68-2.675.68-.208-2.863-1.405-2.4 2.49-1.079L30 3.31l1.8 2.225zm-2.774.906l-.922-.4L30 6.388l-.594.732-.922.4.53.904.074 1.007.912-.232.913.232.074-1.007zm12.448-.906l-1.406 2.4-.208 2.862-2.676-.68-2.675.68-.207-2.863-1.406-2.4 2.49-1.079 1.798-2.223 1.8 2.225zm-2.775.906l-.922-.4-.593-.732-.593.733-.922.398.529.905.074 1.007.912-.232.914.232.073-1.007zm-2.062 6.833l-1.406 2.4-.208 2.862-2.675-.68-2.676.68-.208-2.863-1.406-2.4 2.491-1.079 1.799-2.223 1.799 2.224zm-2.774.906l-.922-.399-.593-.734-.593.734-.922.398.529.905.073 1.007.913-.232.912.232.073-1.006zm12.447-.906l-1.405 2.4-.208 2.862-2.676-.68-2.676.68-.208-2.863-1.405-2.4 2.49-1.079 1.799-2.223 1.8 2.224zm-2.774.906l-.922-.399-.593-.734-.593.734-.922.398.53.905.073 1.007.912-.232.912.232.074-1.006zm7.61-8.645l-1.405 2.4-.208 2.862-2.675-.68-2.676.68-.207-2.863-1.405-2.4 2.49-1.079 1.798-2.223 1.799 2.225zm-2.773.906l-.922-.4-.593-.732-.593.733-.923.398.529.905.075 1.007.912-.232.913.232.073-1.007z" fill="url(#a)"/></svg>