<svg width="32" height="18" xmlns="http://www.w3.org/2000/svg"><path d="M14.527 15.318a2.675 2.675 0 01-2.671 2.678 2.675 2.675 0 01-2.671-2.678 2.676 2.676 0 012.671-2.683 2.676 2.676 0 012.671 2.683zm-1.335 0a1.336 1.336 0 10-2.672 0c0 .736.597 1.339 1.336 1.339a1.34 1.34 0 001.336-1.34zm18.811-1.804a1.29 1.29 0 01-1.288 1.292h-1.379a3.543 3.543 0 00-3.5-3.032 3.542 3.542 0 00-3.496 3.032h-6.987a3.542 3.542 0 00-3.496-3.032 3.542 3.542 0 00-3.496 3.032H6.635a1.29 1.29 0 01-1.289-1.292v-2.86h26.657zm-3.492 1.804a2.677 2.677 0 01-2.672 2.678 2.678 2.678 0 01-2.675-2.678 2.68 2.68 0 012.675-2.683 2.679 2.679 0 012.672 2.683zm-1.336 0a1.336 1.336 0 10-2.671 0c0 .736.597 1.339 1.335 1.339.735 0 1.336-.603 1.336-1.34zm4.827-6.32v.942H5.345V7.402L-.002 6.391l9.351-.813-9.351-1.333L9.38 3.31.117 2.1l5.228-.603v-.203c0-.715.58-1.292 1.289-1.292h14.748c.712 0 1.288.577 1.288 1.292v.96h2.555c.451 0 .885.181 1.207.5l5.064 5.02c.322.323.506.762.506 1.223zm-2.576-1.405L25.462 3.8a.217.217 0 00-.142-.056h-.932a.202.202 0 00-.202.203V7.74c0 .112.09.202.202.202h4.9c.18 0 .27-.224.138-.349z" fill="#fff"/></svg>