<svg width="31" height="32" xmlns="http://www.w3.org/2000/svg"><defs><linearGradient id="a" gradientUnits="userSpaceOnUse" x1="15.675" y1="31.299" x2="15.7" y2=".699"><stop stop-color="#f26725" offset="0"/><stop stop-color="#ffb62a" offset="1"/></linearGradient></defs><path d="M15.687 31.3a14.37 14.37 0 01-3.986-.551 15.04 15.04 0 01-3.582-1.546 14.99 14.99 0 01-3.028-2.386 15.237 15.237 0 01-2.338-3.091 15.688 15.688 0 01-1.514-3.657 15.25 15.25 0 01-.54-4.07c0-1.407.18-2.764.54-4.07.36-1.305.865-2.524 1.514-3.656a15.219 15.219 0 012.338-3.09A14.975 14.975 0 018.12 2.795 15.008 15.008 0 0111.7 1.25a14.37 14.37 0 013.986-.552 14.3 14.3 0 015.83 1.21 15.138 15.138 0 014.767 3.273c1.349 1.377 2.418 2.999 3.207 4.866.79 1.866 1.184 3.85 1.184 5.952 0 1.407-.18 2.764-.54 4.069a15.688 15.688 0 01-1.513 3.657 15.233 15.233 0 01-2.338 3.09 14.986 14.986 0 01-3.028 2.387 15.042 15.042 0 01-3.582 1.546 14.37 14.37 0 01-3.987.55zm4.647-24.634H12.18v.092l-3.567 3.58c-.04.041-.06.071-.06.092v13.495c0 .122.045.234.135.336a.44.44 0 00.345.153h7.943v-1.591h-6.864v-11.2h3.147c.12 0 .18-.06.18-.183V8.258h5.816v4.314h1.558V7.156a.5.5 0 00-.135-.337.44.44 0 00-.344-.153zM24.8 17.927h-3.297v-3.366c0-.183-.08-.276-.24-.276h-2.308c-.16 0-.24.093-.24.276v3.366h-3.327c-.16 0-.24.082-.24.245v2.356c0 .164.08.245.24.245h3.327v3.366c0 .184.08.275.24.275h2.308c.16 0 .24-.091.24-.275v-3.366H24.8c.18 0 .27-.081.27-.245v-2.356c0-.164-.09-.245-.27-.245z" fill="#f26725"/><path d="M15.687 31.3a14.37 14.37 0 01-3.986-.551 15.04 15.04 0 01-3.582-1.546 14.99 14.99 0 01-3.028-2.386 15.237 15.237 0 01-2.338-3.091 15.688 15.688 0 01-1.514-3.657 15.25 15.25 0 01-.54-4.07c0-1.407.18-2.764.54-4.07.36-1.305.865-2.524 1.514-3.656a15.219 15.219 0 012.338-3.09A14.975 14.975 0 018.12 2.795 15.008 15.008 0 0111.7 1.25a14.37 14.37 0 013.986-.552 14.3 14.3 0 015.83 1.21 15.138 15.138 0 014.767 3.273c1.349 1.377 2.418 2.999 3.207 4.866.79 1.866 1.184 3.85 1.184 5.952 0 1.407-.18 2.764-.54 4.069a15.688 15.688 0 01-1.513 3.657 15.233 15.233 0 01-2.338 3.09 14.986 14.986 0 01-3.028 2.387 15.042 15.042 0 01-3.582 1.546 14.37 14.37 0 01-3.987.55zm4.647-24.634H12.18v.092l-3.567 3.58c-.04.041-.06.071-.06.092v13.495c0 .122.045.234.135.336a.44.44 0 00.345.153h7.943v-1.591h-6.864v-11.2h3.147c.12 0 .18-.06.18-.183V8.258h5.816v4.314h1.558V7.156a.5.5 0 00-.135-.337.44.44 0 00-.344-.153zM24.8 17.927h-3.297v-3.366c0-.183-.08-.276-.24-.276h-2.308c-.16 0-.24.093-.24.276v3.366h-3.327c-.16 0-.24.082-.24.245v2.356c0 .164.08.245.24.245h3.327v3.366c0 .184.08.275.24.275h2.308c.16 0 .24-.091.24-.275v-3.366H24.8c.18 0 .27-.081.27-.245v-2.356c0-.164-.09-.245-.27-.245z" fill="url(#a)"/></svg>