<svg width="21" height="21" xmlns="http://www.w3.org/2000/svg"><path d="M18.149 15.74c.661.667.657 1.483-.009 2.157-.45.454-.928.887-1.352 1.361-.62.696-1.394.92-2.285.87-1.295-.07-2.485-.499-3.633-1.057-2.552-1.24-4.732-2.96-6.56-5.133-1.352-1.607-2.467-3.36-3.2-5.333C.752 7.651.498 6.674.578 5.636c.05-.636.287-1.182.757-1.627.508-.483.986-.987 1.486-1.478.649-.641 1.465-.641 2.118-.004.404.396.8.8 1.199 1.199.387.391.774.774 1.16 1.165.683.687.683 1.487.005 2.17-.487.49-.97.982-1.465 1.46-.129.13-.142.234-.075.392.329.783.8 1.478 1.328 2.128 1.065 1.307 2.268 2.468 3.704 3.372.308.19.649.332.97.508.162.09.274.062.407-.075.487-.5.982-.991 1.478-1.482.649-.646 1.465-.646 2.118 0 .795.79 1.59 1.581 2.38 2.376zm-4.657-8.56a5.297 5.297 0 00-3.03-1.51l.216-1.545a6.826 6.826 0 013.912 1.953 6.864 6.864 0 011.919 3.705l-1.536.263a5.3 5.3 0 00-1.481-2.865zm7.07 2.337l-1.535.262a9.816 9.816 0 00-2.751-5.308 9.817 9.817 0 00-5.61-2.798L10.882.13a11.326 11.326 0 016.492 3.238 11.415 11.415 0 013.188 6.15z" fill="#252525"/></svg>