<?xml version="1.0" encoding="UTF-8"?>
<svg id="SVGDoc" width="50" height="60" xmlns="http://www.w3.org/2000/svg" version="1.1" xmlns:xlink="http://www.w3.org/1999/xlink" xmlns:avocode="https://avocode.com/" viewBox="0 0 50 60"><defs><linearGradient id="LinearGradient1333" gradientUnits="userSpaceOnUse" x1="25.001129150390625" y1="59.99764263629913" x2="24.99671173095703" y2="-0.0005797147750854492"><stop stop-opacity="1" stop-color="#f26725" offset="0"></stop><stop stop-opacity="1" stop-color="#ffb62a" offset="1"></stop></linearGradient></defs><desc>Generated with Avocode.</desc><g><g><title>Forma 1</title><path d="M50.00095,0.9995v27.45831c0.03994,11.75305 -6.6069,22.50603 -17.13833,27.72698l-7.41657,3.71248c-0.13927,0.06768 -0.29228,0.10233 -0.44712,0.10029c-0.15472,0.00204 -0.30773,-0.03262 -0.44701,-0.10029l-7.41657,-3.70718c-10.53303,-5.22177 -17.1801,-15.9776 -17.13844,-27.73228v-27.45831c0,-0.55243 0.44781,-1.00008 1.0001,-1.00008h48.00385c0.55241,0 1.0001,0.44765 1.0001,1.00008zM48.00087,1.99958h-46.00376v26.45823c-0.03811,10.99515 6.1797,21.05586 16.03226,25.94005l6.96957,3.48213l6.96957,-3.48213c9.85256,-4.8842 16.07059,-14.9449 16.03237,-25.94005zM3.99731,28.45781v-23.45841c0,-0.55243 0.44781,-1.00008 1.0001,-1.00008h40.00317c0.55229,0 1.0001,0.44765 1.0001,1.00008v23.45841c0.03422,10.23643 -5.75489,19.6016 -14.92722,24.14904l-5.6274,2.8131c-0.1387,0.06972 -0.29182,0.106 -0.44712,0.106c-0.15518,0 -0.30842,-0.03628 -0.44701,-0.106l-5.6274,-2.8131c-9.17233,-4.54703 -14.96155,-13.91262 -14.92722,-24.14904zM5.99739,28.45781c-0.03181,9.47811 5.32837,18.1498 13.82114,22.36007l5.1804,2.59009l5.1804,-2.59009c8.49289,-4.21027 13.85307,-12.88196 13.82114,-22.36007v-22.45874h-38.00308zM21.29162,36.70549l-9.90074,-9.89967c-0.39036,-0.39016 -0.39036,-1.02372 0,-1.4143l2.82818,-2.829c0.39677,-0.37508 1.01738,-0.37508 1.41415,0l6.36555,6.36454l13.43708,-13.43439c0.39047,-0.39016 1.02356,-0.39016 1.41403,0l2.82829,2.82778c0.39036,0.39098 0.39036,1.02413 0,1.4143l-16.97239,16.97074c-0.18745,0.18713 -0.44174,0.29273 -0.70702,0.29273c-0.26516,0 -0.51956,-0.10559 -0.70713,-0.29273zM13.51307,26.09888l8.48568,8.48578l15.55824,-15.55686l-1.41415,-1.41389l-13.43708,13.4348c-0.39047,0.39016 -1.02356,0.39016 -1.41415,0l-6.36452,-6.36372z" fill="#000000" fill-opacity="0"></path><path d="M50.00095,0.9995v27.45831c0.03994,11.75305 -6.6069,22.50603 -17.13833,27.72698l-7.41657,3.71248c-0.13927,0.06768 -0.29228,0.10233 -0.44712,0.10029c-0.15472,0.00204 -0.30773,-0.03262 -0.44701,-0.10029l-7.41657,-3.70718c-10.53303,-5.22177 -17.1801,-15.9776 -17.13844,-27.73228v-27.45831c0,-0.55243 0.44781,-1.00008 1.0001,-1.00008h48.00385c0.55241,0 1.0001,0.44765 1.0001,1.00008zM48.00087,1.99958h-46.00376v26.45823c-0.03811,10.99515 6.1797,21.05586 16.03226,25.94005l6.96957,3.48213l6.96957,-3.48213c9.85256,-4.8842 16.07059,-14.9449 16.03237,-25.94005zM3.99731,28.45781v-23.45841c0,-0.55243 0.44781,-1.00008 1.0001,-1.00008h40.00317c0.55229,0 1.0001,0.44765 1.0001,1.00008v23.45841c0.03422,10.23643 -5.75489,19.6016 -14.92722,24.14904l-5.6274,2.8131c-0.1387,0.06972 -0.29182,0.106 -0.44712,0.106c-0.15518,0 -0.30842,-0.03628 -0.44701,-0.106l-5.6274,-2.8131c-9.17233,-4.54703 -14.96155,-13.91262 -14.92722,-24.14904zM5.99739,28.45781c-0.03181,9.47811 5.32837,18.1498 13.82114,22.36007l5.1804,2.59009l5.1804,-2.59009c8.49289,-4.21027 13.85307,-12.88196 13.82114,-22.36007v-22.45874h-38.00308zM21.29162,36.70549l-9.90074,-9.89967c-0.39036,-0.39016 -0.39036,-1.02372 0,-1.4143l2.82818,-2.829c0.39677,-0.37508 1.01738,-0.37508 1.41415,0l6.36555,6.36454l13.43708,-13.43439c0.39047,-0.39016 1.02356,-0.39016 1.41403,0l2.82829,2.82778c0.39036,0.39098 0.39036,1.02413 0,1.4143l-16.97239,16.97074c-0.18745,0.18713 -0.44174,0.29273 -0.70702,0.29273c-0.26516,0 -0.51956,-0.10559 -0.70713,-0.29273zM13.51307,26.09888l8.48568,8.48578l15.55824,-15.55686l-1.41415,-1.41389l-13.43708,13.4348c-0.39047,0.39016 -1.02356,0.39016 -1.41415,0l-6.36452,-6.36372z" fill="url(#LinearGradient1333)"></path></g></g></svg>
