<?xml version="1.0" encoding="UTF-8"?>
<svg id="SVGDoc" width="52" height="52" xmlns="http://www.w3.org/2000/svg" version="1.1" xmlns:xlink="http://www.w3.org/1999/xlink" xmlns:avocode="https://avocode.com/" viewBox="0 0 52 52"><defs><linearGradient id="LinearGradient1108" gradientUnits="userSpaceOnUse" x1="25.782864570617676" y1="51.374712109565735" x2="26.624581336975098" y2="0.21612751483917236"><stop stop-opacity="1" stop-color="#f26725" offset="0"></stop><stop stop-opacity="1" stop-color="#ffb62a" offset="1"></stop></linearGradient></defs><desc>Generated with Avocode.</desc><g><g><title>Shape 1</title><path d="M34.35567,39.7178l-1.17611,2.8396c-0.4034,0.97358 -1.47697,1.51622 -2.49722,1.26182c-0.60711,-0.15126 -1.22726,-0.31189 -1.84456,-0.47741c-0.68996,0.87369 -1.48121,1.66503 -2.35348,2.35404c0.16663,0.62174 0.32707,1.24143 0.47722,1.84442c0.25429,1.02005 -0.28839,2.09352 -1.26183,2.49714l-2.83951,1.1762c-0.97389,0.4028 -2.11658,0.02772 -2.65835,-0.87369c-0.32364,-0.53897 -0.64854,-1.09059 -0.96611,-1.64138c-1.10435,0.12965 -2.22336,0.12924 -3.32897,-0.00082c-0.32146,0.55732 -0.64636,1.10934 -0.96657,1.64179c-0.39539,0.65761 -1.10996,1.03514 -1.84559,1.03514c-0.27317,0 -0.5492,-0.05219 -0.81299,-0.16145l-2.83962,-1.1762c-0.97355,-0.40362 -1.51611,-1.47708 -1.26183,-2.49714c0.15095,-0.60624 0.31151,-1.22635 0.47733,-1.84482c-0.87353,-0.68982 -1.66477,-1.48075 -2.35428,-2.35322c-0.61798,0.16593 -1.23791,0.32656 -1.84387,0.47741c-1.02093,0.2544 -2.09393,-0.28865 -2.49722,-1.26223l-1.17622,-2.83919c-0.40329,-0.97399 -0.02769,-2.11676 0.87341,-2.65818c0.53638,-0.32249 1.08822,-0.64742 1.64154,-0.96665c-0.12943,-1.10404 -0.12909,-2.22317 0.00057,-3.32884c-0.55286,-0.31923 -1.10493,-0.64375 -1.642,-0.96624c-0.90099,-0.54142 -1.27659,-1.6846 -0.87341,-2.65858l1.17588,-2.83919c0.4034,-0.97358 1.47675,-1.51663 2.49733,-1.26223c0.60551,0.15126 1.22566,0.31148 1.84479,0.47782c0.68985,-0.87369 1.48098,-1.66544 2.35336,-2.35485c-0.16537,-0.61562 -0.32581,-1.23613 -0.47722,-1.8436c-0.25429,-1.02046 0.28839,-2.09393 1.26183,-2.49714l2.83951,-1.17661c0.97366,-0.40321 2.11636,-0.02772 2.65835,0.87369c0.32135,0.5353 0.64625,1.08651 0.96611,1.64138c1.10447,-0.12924 2.22313,-0.12883 3.32897,0.00082c0.31883,-0.55324 0.64396,-1.10486 0.96657,-1.6422c0.54176,-0.90142 1.68468,-1.2769 2.65835,-0.87369l2.83939,1.17661c0.97366,0.40321 1.51623,1.47667 1.26194,2.49714c-0.15106,0.60624 -0.31174,1.22676 -0.47745,1.84442c0.87364,0.68982 1.66489,1.48116 2.35439,2.35363c0.61752,-0.16593 1.23734,-0.32616 1.84399,-0.47741c1.0207,-0.25399 2.09393,0.28865 2.49722,1.26182l1.17611,2.8396c0.00011,0.00041 0.00011,0.00041 0.00011,0.00041c0.40329,0.97399 0.02758,2.11676 -0.87364,2.65818c-0.53524,0.32167 -1.08696,0.6462 -1.6412,0.96583c0.12955,1.10404 0.1292,2.22317 -0.00057,3.32924c0.55206,0.31841 1.10413,0.64334 1.642,0.96665c0.90099,0.54142 1.27659,1.6846 0.87353,2.65818zM32.19205,38.95582c-0.51716,-0.31026 -1.04668,-0.62133 -1.57585,-0.92547c-0.75108,-0.43257 -1.16741,-1.26508 -1.06087,-2.12165c0.12245,-0.98418 0.12268,-1.98099 0.00046,-2.96354c-0.10643,-0.85494 0.31013,-1.68705 1.0611,-2.1192c0.53089,-0.30577 1.0603,-0.61644 1.57516,-0.92547l-1.08101,-2.60966c-0.58239,0.14555 -1.17657,0.30006 -1.76788,0.45947c-0.83714,0.22546 -1.7197,-0.0689 -2.24934,-0.74894c-0.60825,-0.78115 -1.31332,-1.48564 -2.09553,-2.09474c-0.68092,-0.53 -0.97538,-1.41307 -0.75016,-2.25007c0.15942,-0.59197 0.31391,-1.18599 0.45994,-1.76899l-2.61005,-1.0808c-0.30933,0.51614 -0.62038,1.04615 -0.92537,1.57574c-0.43224,0.75098 -1.26457,1.16764 -2.12139,1.06082c-0.98454,-0.12231 -1.98143,-0.12231 -2.96333,-0.00041c-0.85453,0.10682 -1.68743,-0.31026 -2.11979,-1.06123c-0.30613,-0.53123 -0.61707,-1.06082 -0.92514,-1.57493l-2.61005,1.0808c0.14637,0.58423 0.30087,1.17783 0.45971,1.76818c0.22533,0.837 -0.06855,1.71966 -0.74879,2.24926c-0.78083,0.60828 -1.48579,1.31319 -2.09484,2.09556c-0.53032,0.68085 -1.41357,0.97562 -2.25014,0.75016c-0.59292,-0.15982 -1.18721,-0.31433 -1.76868,-0.45947l-1.08112,2.60925c0.51636,0.30985 1.04588,0.62092 1.57585,0.92628c0.7513,0.43216 1.16741,1.26508 1.06075,2.12124c-0.12222,0.98377 -0.12245,1.98099 -0.00034,2.96273c0.10632,0.85575 -0.31013,1.68786 -1.06098,2.12043c-0.5302,0.30496 -1.05961,0.61562 -1.57516,0.92506l1.08101,2.61007c0.58205,-0.14636 1.17634,-0.30047 1.76811,-0.46029c0.83668,-0.22464 1.71959,0.0689 2.24911,0.74934c0.60837,0.78074 1.31321,1.48564 2.09564,2.09474c0.68092,0.53 0.97538,1.41348 0.75005,2.25007c-0.15942,0.59157 -0.31391,1.18639 -0.45994,1.76818l2.61005,1.08162c0.30704,-0.51247 0.61798,-1.04166 0.9256,-1.57615c0.43224,-0.75098 1.26366,-1.16723 2.12139,-1.06001c0.98362,0.1219 1.98074,0.12231 2.96299,0.00041c0.85545,-0.10641 1.68755,0.30985 2.1199,1.06082c0.30384,0.52797 0.61466,1.05675 0.92514,1.57534l2.61005,-1.08162c-0.14523,-0.57893 -0.29961,-1.17335 -0.45971,-1.76777c-0.22533,-0.83618 0.06855,-1.71925 0.74867,-2.24926c0.78106,-0.60828 1.48602,-1.31319 2.09507,-2.09515c0.52998,-0.68126 1.41312,-0.97562 2.25002,-0.75057c0.5912,0.15941 1.18572,0.31393 1.76891,0.45988zM20.55741,41.63845c-0.96313,0.39913 -1.97491,0.5985 -2.98668,0.5985c-1.01177,0 -2.02354,-0.19936 -2.98645,-0.5985c-1.92581,-0.79786 -3.42602,-2.29737 -4.22367,-4.22332c-1.6468,-3.97544 0.24799,-8.5502 4.22356,-10.19688c3.97625,-1.64668 8.55011,0.24788 10.1968,4.22332c0.00011,0.00041 0.00011,0.00041 0.00011,0.00041c1.64658,3.97585 -0.24811,8.5502 -4.22367,10.19647zM22.66541,32.31812c-0.87868,-2.12083 -2.93678,-3.40426 -5.10178,-3.40426c-0.70198,0 -1.41506,0.13495 -2.10297,0.41993c-2.80918,1.16397 -4.14814,4.39578 -2.98439,7.20439c0.56374,1.3617 1.62357,2.4209 2.98428,2.98474c1.36116,0.56384 2.85976,0.56384 4.22047,0c2.80907,-1.16356 4.14803,-4.39578 2.98439,-7.2048zM51.78284,12.09641v2.23377c0,0.89204 -0.66364,1.6634 -1.54369,1.79508c-0.39516,0.05912 -0.8012,0.11619 -1.20998,0.17082c-0.20611,0.68574 -0.48145,1.34947 -0.82077,1.98059c0.24982,0.32616 0.49644,0.65394 0.73483,0.97684c0.52929,0.7151 0.45273,1.73026 -0.17761,2.36056l-1.57951,1.57941c-0.63023,0.6303 -1.6452,0.70694 -2.36046,0.17735c-0.32307,-0.23891 -0.65105,-0.48597 -0.97698,-0.73467c-0.63091,0.3392 -1.29513,0.6144 -1.98029,0.82069c-0.0547,0.40892 -0.11204,0.81458 -0.17109,1.21004c-0.13161,0.88022 -0.90317,1.54313 -1.79466,1.54313h-2.23377c-0.89149,0 -1.66306,-0.66332 -1.79466,-1.54313c-0.05917,-0.39546 -0.11662,-0.80112 -0.17109,-1.21004c-0.68516,-0.20629 -1.34937,-0.48149 -1.9804,-0.82069c-0.32616,0.24869 -0.6538,0.49576 -0.97698,0.73467c-0.71537,0.52919 -1.73023,0.45295 -2.36046,-0.17735l-1.57951,-1.57982c-0.63034,-0.62989 -0.70679,-1.64505 -0.17784,-2.36015c0.23861,-0.3229 0.48523,-0.65027 0.73505,-0.97684c-0.33943,-0.63152 -0.61455,-1.29525 -0.82066,-1.98059c-0.4089,-0.05463 -0.81482,-0.11171 -1.2101,-0.17123c-0.88005,-0.13128 -1.54346,-0.90305 -1.54346,-1.79468v-2.23377c0,-0.89122 0.66364,-1.66299 1.54358,-1.79427c0.39516,-0.05952 0.80132,-0.1166 1.20998,-0.17164c0.20622,-0.68493 0.48145,-1.34947 0.82077,-1.98018c-0.25005,-0.32697 -0.49667,-0.65517 -0.73483,-0.97725c-0.52917,-0.71551 -0.45261,-1.73026 0.17784,-2.36056l1.5794,-1.57901c0.63011,-0.6303 1.64486,-0.70694 2.36046,-0.17776c0.32295,0.23932 0.65094,0.48516 0.97698,0.73508c0.63068,-0.33961 1.2949,-0.61481 1.98029,-0.82069c0.05459,-0.40892 0.11204,-0.81539 0.17109,-1.21045c0.13149,-0.8794 0.90305,-1.54354 1.79455,-1.54354h2.23377c0.89149,0 1.66306,0.66414 1.79466,1.54354c0.05917,0.39546 0.11639,0.80194 0.17109,1.21045c0.68527,0.20589 1.34949,0.48108 1.98029,0.82069c0.32616,-0.24951 0.65392,-0.49576 0.9771,-0.73508c0.71526,-0.52878 1.73,-0.45254 2.36046,0.17776l1.57951,1.57941c0.63034,0.62989 0.7069,1.64464 0.17784,2.36015c-0.23838,0.32208 -0.48489,0.65027 -0.73517,0.97725c0.33955,0.63111 0.61478,1.29525 0.82077,1.98018c0.4089,0.05463 0.81482,0.11212 1.2101,0.17164c0.87994,0.13128 1.54346,0.90305 1.54358,1.79427zM49.60732,14.0191v-1.61121c-0.359,-0.05219 -0.72521,-0.10233 -1.09268,-0.15044c-0.7267,-0.09499 -1.32145,-0.61032 -1.5152,-1.3136c-0.18562,-0.67392 -0.4549,-1.32297 -0.80029,-1.93166c-0.36049,-0.63478 -0.30499,-1.42041 0.14179,-2.00138c0.22568,-0.29354 0.44918,-0.5883 0.6665,-0.87981l-1.13949,-1.1391c-0.29251,0.21812 -0.5872,0.44153 -0.87959,0.66617c-0.58079,0.44643 -1.36642,0.5031 -2.00134,0.14229c-0.60814,-0.34573 -1.25805,-0.61521 -1.93119,-0.80112c-0.70335,-0.19366 -1.21914,-0.78808 -1.31401,-1.51541c-0.04784,-0.36652 -0.0983,-0.73263 -0.15038,-1.09222h-1.61167c-0.05207,0.35959 -0.10254,0.7257 -0.1506,1.09262c-0.09441,0.72692 -0.6102,1.32134 -1.3139,1.51541c-0.67303,0.18591 -1.32294,0.45499 -1.93085,0.80071c-0.63538,0.36081 -1.42113,0.30455 -2.0018,-0.14229c-0.29228,-0.22464 -0.58697,-0.44806 -0.87925,-0.66617l-1.13949,1.1391c0.21732,0.2915 0.44071,0.58627 0.6665,0.8794c0.44666,0.58097 0.50228,1.367 0.14156,2.00179c-0.34561,0.60828 -0.61478,1.25733 -0.80029,1.93125c-0.19363,0.70328 -0.7885,1.21901 -1.51531,1.314c-0.36736,0.0477 -0.73357,0.09825 -1.09245,0.15003v1.61162c0.35889,0.05259 0.72521,0.10274 1.09257,0.15044c0.7267,0.09499 1.32156,0.61032 1.51531,1.314c0.18551,0.67311 0.45479,1.32297 0.80029,1.93125c0.3606,0.63478 0.30499,1.42 -0.14168,2.00138c-0.22556,0.29313 -0.44895,0.5879 -0.6665,0.8794l1.13949,1.13951c0.2924,-0.21812 0.58708,-0.44113 0.87959,-0.66617c0.58079,-0.44724 1.36654,-0.50269 2.00146,-0.14188c0.60837,0.34532 1.25793,0.6144 1.93108,0.7999c0.70347,0.19447 1.21914,0.78889 1.3139,1.51622c0.04795,0.36652 0.09842,0.73304 0.15049,1.09181h1.61167c0.05219,-0.35877 0.10265,-0.72529 0.15049,-1.09222c0.09453,-0.72692 0.61031,-1.32175 1.3139,-1.51581c0.67303,-0.1855 1.32271,-0.45458 1.93096,-0.7999c0.63492,-0.3604 1.42067,-0.30536 2.00157,0.14188c0.2924,0.22505 0.5872,0.44806 0.87948,0.66617l1.13949,-1.13951c-0.21755,-0.29109 -0.44106,-0.58627 -0.66639,-0.87899c-0.44689,-0.58137 -0.50262,-1.3666 -0.14179,-2.00179c0.34538,-0.60787 0.61466,-1.25815 0.80029,-1.93125c0.19363,-0.70328 0.7885,-1.2186 1.5152,-1.3136c0.36747,-0.0477 0.73368,-0.09825 1.09257,-0.15085zM43.42202,13.2135c0,2.55666 -2.07973,4.63632 -4.63623,4.63632c-2.5565,0 -4.63634,-2.07966 -4.63634,-4.63632c0,-2.55666 2.07996,-4.63632 4.63634,-4.63632c2.5565,0 4.63623,2.07966 4.63623,4.63632zM41.36117,13.2135c-0.00011,-1.42041 -1.1554,-2.57582 -2.57538,-2.57582c-1.4201,0 -2.57538,1.15541 -2.57538,2.57582c0,1.42 1.1554,2.57541 2.57538,2.57541c1.41998,0 2.57538,-1.15541 2.57538,-2.57541z" fill="#000000" fill-opacity="0"></path><path d="M34.35567,39.7178l-1.17611,2.8396c-0.4034,0.97358 -1.47697,1.51622 -2.49722,1.26182c-0.60711,-0.15126 -1.22726,-0.31189 -1.84456,-0.47741c-0.68996,0.87369 -1.48121,1.66503 -2.35348,2.35404c0.16663,0.62174 0.32707,1.24143 0.47722,1.84442c0.25429,1.02005 -0.28839,2.09352 -1.26183,2.49714l-2.83951,1.1762c-0.97389,0.4028 -2.11658,0.02772 -2.65835,-0.87369c-0.32364,-0.53897 -0.64854,-1.09059 -0.96611,-1.64138c-1.10435,0.12965 -2.22336,0.12924 -3.32897,-0.00082c-0.32146,0.55732 -0.64636,1.10934 -0.96657,1.64179c-0.39539,0.65761 -1.10996,1.03514 -1.84559,1.03514c-0.27317,0 -0.5492,-0.05219 -0.81299,-0.16145l-2.83962,-1.1762c-0.97355,-0.40362 -1.51611,-1.47708 -1.26183,-2.49714c0.15095,-0.60624 0.31151,-1.22635 0.47733,-1.84482c-0.87353,-0.68982 -1.66477,-1.48075 -2.35428,-2.35322c-0.61798,0.16593 -1.23791,0.32656 -1.84387,0.47741c-1.02093,0.2544 -2.09393,-0.28865 -2.49722,-1.26223l-1.17622,-2.83919c-0.40329,-0.97399 -0.02769,-2.11676 0.87341,-2.65818c0.53638,-0.32249 1.08822,-0.64742 1.64154,-0.96665c-0.12943,-1.10404 -0.12909,-2.22317 0.00057,-3.32884c-0.55286,-0.31923 -1.10493,-0.64375 -1.642,-0.96624c-0.90099,-0.54142 -1.27659,-1.6846 -0.87341,-2.65858l1.17588,-2.83919c0.4034,-0.97358 1.47675,-1.51663 2.49733,-1.26223c0.60551,0.15126 1.22566,0.31148 1.84479,0.47782c0.68985,-0.87369 1.48098,-1.66544 2.35336,-2.35485c-0.16537,-0.61562 -0.32581,-1.23613 -0.47722,-1.8436c-0.25429,-1.02046 0.28839,-2.09393 1.26183,-2.49714l2.83951,-1.17661c0.97366,-0.40321 2.11636,-0.02772 2.65835,0.87369c0.32135,0.5353 0.64625,1.08651 0.96611,1.64138c1.10447,-0.12924 2.22313,-0.12883 3.32897,0.00082c0.31883,-0.55324 0.64396,-1.10486 0.96657,-1.6422c0.54176,-0.90142 1.68468,-1.2769 2.65835,-0.87369l2.83939,1.17661c0.97366,0.40321 1.51623,1.47667 1.26194,2.49714c-0.15106,0.60624 -0.31174,1.22676 -0.47745,1.84442c0.87364,0.68982 1.66489,1.48116 2.35439,2.35363c0.61752,-0.16593 1.23734,-0.32616 1.84399,-0.47741c1.0207,-0.25399 2.09393,0.28865 2.49722,1.26182l1.17611,2.8396c0.00011,0.00041 0.00011,0.00041 0.00011,0.00041c0.40329,0.97399 0.02758,2.11676 -0.87364,2.65818c-0.53524,0.32167 -1.08696,0.6462 -1.6412,0.96583c0.12955,1.10404 0.1292,2.22317 -0.00057,3.32924c0.55206,0.31841 1.10413,0.64334 1.642,0.96665c0.90099,0.54142 1.27659,1.6846 0.87353,2.65818zM32.19205,38.95582c-0.51716,-0.31026 -1.04668,-0.62133 -1.57585,-0.92547c-0.75108,-0.43257 -1.16741,-1.26508 -1.06087,-2.12165c0.12245,-0.98418 0.12268,-1.98099 0.00046,-2.96354c-0.10643,-0.85494 0.31013,-1.68705 1.0611,-2.1192c0.53089,-0.30577 1.0603,-0.61644 1.57516,-0.92547l-1.08101,-2.60966c-0.58239,0.14555 -1.17657,0.30006 -1.76788,0.45947c-0.83714,0.22546 -1.7197,-0.0689 -2.24934,-0.74894c-0.60825,-0.78115 -1.31332,-1.48564 -2.09553,-2.09474c-0.68092,-0.53 -0.97538,-1.41307 -0.75016,-2.25007c0.15942,-0.59197 0.31391,-1.18599 0.45994,-1.76899l-2.61005,-1.0808c-0.30933,0.51614 -0.62038,1.04615 -0.92537,1.57574c-0.43224,0.75098 -1.26457,1.16764 -2.12139,1.06082c-0.98454,-0.12231 -1.98143,-0.12231 -2.96333,-0.00041c-0.85453,0.10682 -1.68743,-0.31026 -2.11979,-1.06123c-0.30613,-0.53123 -0.61707,-1.06082 -0.92514,-1.57493l-2.61005,1.0808c0.14637,0.58423 0.30087,1.17783 0.45971,1.76818c0.22533,0.837 -0.06855,1.71966 -0.74879,2.24926c-0.78083,0.60828 -1.48579,1.31319 -2.09484,2.09556c-0.53032,0.68085 -1.41357,0.97562 -2.25014,0.75016c-0.59292,-0.15982 -1.18721,-0.31433 -1.76868,-0.45947l-1.08112,2.60925c0.51636,0.30985 1.04588,0.62092 1.57585,0.92628c0.7513,0.43216 1.16741,1.26508 1.06075,2.12124c-0.12222,0.98377 -0.12245,1.98099 -0.00034,2.96273c0.10632,0.85575 -0.31013,1.68786 -1.06098,2.12043c-0.5302,0.30496 -1.05961,0.61562 -1.57516,0.92506l1.08101,2.61007c0.58205,-0.14636 1.17634,-0.30047 1.76811,-0.46029c0.83668,-0.22464 1.71959,0.0689 2.24911,0.74934c0.60837,0.78074 1.31321,1.48564 2.09564,2.09474c0.68092,0.53 0.97538,1.41348 0.75005,2.25007c-0.15942,0.59157 -0.31391,1.18639 -0.45994,1.76818l2.61005,1.08162c0.30704,-0.51247 0.61798,-1.04166 0.9256,-1.57615c0.43224,-0.75098 1.26366,-1.16723 2.12139,-1.06001c0.98362,0.1219 1.98074,0.12231 2.96299,0.00041c0.85545,-0.10641 1.68755,0.30985 2.1199,1.06082c0.30384,0.52797 0.61466,1.05675 0.92514,1.57534l2.61005,-1.08162c-0.14523,-0.57893 -0.29961,-1.17335 -0.45971,-1.76777c-0.22533,-0.83618 0.06855,-1.71925 0.74867,-2.24926c0.78106,-0.60828 1.48602,-1.31319 2.09507,-2.09515c0.52998,-0.68126 1.41312,-0.97562 2.25002,-0.75057c0.5912,0.15941 1.18572,0.31393 1.76891,0.45988zM20.55741,41.63845c-0.96313,0.39913 -1.97491,0.5985 -2.98668,0.5985c-1.01177,0 -2.02354,-0.19936 -2.98645,-0.5985c-1.92581,-0.79786 -3.42602,-2.29737 -4.22367,-4.22332c-1.6468,-3.97544 0.24799,-8.5502 4.22356,-10.19688c3.97625,-1.64668 8.55011,0.24788 10.1968,4.22332c0.00011,0.00041 0.00011,0.00041 0.00011,0.00041c1.64658,3.97585 -0.24811,8.5502 -4.22367,10.19647zM22.66541,32.31812c-0.87868,-2.12083 -2.93678,-3.40426 -5.10178,-3.40426c-0.70198,0 -1.41506,0.13495 -2.10297,0.41993c-2.80918,1.16397 -4.14814,4.39578 -2.98439,7.20439c0.56374,1.3617 1.62357,2.4209 2.98428,2.98474c1.36116,0.56384 2.85976,0.56384 4.22047,0c2.80907,-1.16356 4.14803,-4.39578 2.98439,-7.2048zM51.78284,12.09641v2.23377c0,0.89204 -0.66364,1.6634 -1.54369,1.79508c-0.39516,0.05912 -0.8012,0.11619 -1.20998,0.17082c-0.20611,0.68574 -0.48145,1.34947 -0.82077,1.98059c0.24982,0.32616 0.49644,0.65394 0.73483,0.97684c0.52929,0.7151 0.45273,1.73026 -0.17761,2.36056l-1.57951,1.57941c-0.63023,0.6303 -1.6452,0.70694 -2.36046,0.17735c-0.32307,-0.23891 -0.65105,-0.48597 -0.97698,-0.73467c-0.63091,0.3392 -1.29513,0.6144 -1.98029,0.82069c-0.0547,0.40892 -0.11204,0.81458 -0.17109,1.21004c-0.13161,0.88022 -0.90317,1.54313 -1.79466,1.54313h-2.23377c-0.89149,0 -1.66306,-0.66332 -1.79466,-1.54313c-0.05917,-0.39546 -0.11662,-0.80112 -0.17109,-1.21004c-0.68516,-0.20629 -1.34937,-0.48149 -1.9804,-0.82069c-0.32616,0.24869 -0.6538,0.49576 -0.97698,0.73467c-0.71537,0.52919 -1.73023,0.45295 -2.36046,-0.17735l-1.57951,-1.57982c-0.63034,-0.62989 -0.70679,-1.64505 -0.17784,-2.36015c0.23861,-0.3229 0.48523,-0.65027 0.73505,-0.97684c-0.33943,-0.63152 -0.61455,-1.29525 -0.82066,-1.98059c-0.4089,-0.05463 -0.81482,-0.11171 -1.2101,-0.17123c-0.88005,-0.13128 -1.54346,-0.90305 -1.54346,-1.79468v-2.23377c0,-0.89122 0.66364,-1.66299 1.54358,-1.79427c0.39516,-0.05952 0.80132,-0.1166 1.20998,-0.17164c0.20622,-0.68493 0.48145,-1.34947 0.82077,-1.98018c-0.25005,-0.32697 -0.49667,-0.65517 -0.73483,-0.97725c-0.52917,-0.71551 -0.45261,-1.73026 0.17784,-2.36056l1.5794,-1.57901c0.63011,-0.6303 1.64486,-0.70694 2.36046,-0.17776c0.32295,0.23932 0.65094,0.48516 0.97698,0.73508c0.63068,-0.33961 1.2949,-0.61481 1.98029,-0.82069c0.05459,-0.40892 0.11204,-0.81539 0.17109,-1.21045c0.13149,-0.8794 0.90305,-1.54354 1.79455,-1.54354h2.23377c0.89149,0 1.66306,0.66414 1.79466,1.54354c0.05917,0.39546 0.11639,0.80194 0.17109,1.21045c0.68527,0.20589 1.34949,0.48108 1.98029,0.82069c0.32616,-0.24951 0.65392,-0.49576 0.9771,-0.73508c0.71526,-0.52878 1.73,-0.45254 2.36046,0.17776l1.57951,1.57941c0.63034,0.62989 0.7069,1.64464 0.17784,2.36015c-0.23838,0.32208 -0.48489,0.65027 -0.73517,0.97725c0.33955,0.63111 0.61478,1.29525 0.82077,1.98018c0.4089,0.05463 0.81482,0.11212 1.2101,0.17164c0.87994,0.13128 1.54346,0.90305 1.54358,1.79427zM49.60732,14.0191v-1.61121c-0.359,-0.05219 -0.72521,-0.10233 -1.09268,-0.15044c-0.7267,-0.09499 -1.32145,-0.61032 -1.5152,-1.3136c-0.18562,-0.67392 -0.4549,-1.32297 -0.80029,-1.93166c-0.36049,-0.63478 -0.30499,-1.42041 0.14179,-2.00138c0.22568,-0.29354 0.44918,-0.5883 0.6665,-0.87981l-1.13949,-1.1391c-0.29251,0.21812 -0.5872,0.44153 -0.87959,0.66617c-0.58079,0.44643 -1.36642,0.5031 -2.00134,0.14229c-0.60814,-0.34573 -1.25805,-0.61521 -1.93119,-0.80112c-0.70335,-0.19366 -1.21914,-0.78808 -1.31401,-1.51541c-0.04784,-0.36652 -0.0983,-0.73263 -0.15038,-1.09222h-1.61167c-0.05207,0.35959 -0.10254,0.7257 -0.1506,1.09262c-0.09441,0.72692 -0.6102,1.32134 -1.3139,1.51541c-0.67303,0.18591 -1.32294,0.45499 -1.93085,0.80071c-0.63538,0.36081 -1.42113,0.30455 -2.0018,-0.14229c-0.29228,-0.22464 -0.58697,-0.44806 -0.87925,-0.66617l-1.13949,1.1391c0.21732,0.2915 0.44071,0.58627 0.6665,0.8794c0.44666,0.58097 0.50228,1.367 0.14156,2.00179c-0.34561,0.60828 -0.61478,1.25733 -0.80029,1.93125c-0.19363,0.70328 -0.7885,1.21901 -1.51531,1.314c-0.36736,0.0477 -0.73357,0.09825 -1.09245,0.15003v1.61162c0.35889,0.05259 0.72521,0.10274 1.09257,0.15044c0.7267,0.09499 1.32156,0.61032 1.51531,1.314c0.18551,0.67311 0.45479,1.32297 0.80029,1.93125c0.3606,0.63478 0.30499,1.42 -0.14168,2.00138c-0.22556,0.29313 -0.44895,0.5879 -0.6665,0.8794l1.13949,1.13951c0.2924,-0.21812 0.58708,-0.44113 0.87959,-0.66617c0.58079,-0.44724 1.36654,-0.50269 2.00146,-0.14188c0.60837,0.34532 1.25793,0.6144 1.93108,0.7999c0.70347,0.19447 1.21914,0.78889 1.3139,1.51622c0.04795,0.36652 0.09842,0.73304 0.15049,1.09181h1.61167c0.05219,-0.35877 0.10265,-0.72529 0.15049,-1.09222c0.09453,-0.72692 0.61031,-1.32175 1.3139,-1.51581c0.67303,-0.1855 1.32271,-0.45458 1.93096,-0.7999c0.63492,-0.3604 1.42067,-0.30536 2.00157,0.14188c0.2924,0.22505 0.5872,0.44806 0.87948,0.66617l1.13949,-1.13951c-0.21755,-0.29109 -0.44106,-0.58627 -0.66639,-0.87899c-0.44689,-0.58137 -0.50262,-1.3666 -0.14179,-2.00179c0.34538,-0.60787 0.61466,-1.25815 0.80029,-1.93125c0.19363,-0.70328 0.7885,-1.2186 1.5152,-1.3136c0.36747,-0.0477 0.73368,-0.09825 1.09257,-0.15085zM43.42202,13.2135c0,2.55666 -2.07973,4.63632 -4.63623,4.63632c-2.5565,0 -4.63634,-2.07966 -4.63634,-4.63632c0,-2.55666 2.07996,-4.63632 4.63634,-4.63632c2.5565,0 4.63623,2.07966 4.63623,4.63632zM41.36117,13.2135c-0.00011,-1.42041 -1.1554,-2.57582 -2.57538,-2.57582c-1.4201,0 -2.57538,1.15541 -2.57538,2.57582c0,1.42 1.1554,2.57541 2.57538,2.57541c1.41998,0 2.57538,-1.15541 2.57538,-2.57541z" fill="url(#LinearGradient1108)"></path></g></g></svg>
