<?xml version="1.0" encoding="UTF-8"?>
<svg id="SVGDoc" width="48" height="60" xmlns="http://www.w3.org/2000/svg" version="1.1" xmlns:xlink="http://www.w3.org/1999/xlink" xmlns:avocode="https://avocode.com/" viewBox="0 0 48 60"><defs><linearGradient id="LinearGradient1083" gradientUnits="userSpaceOnUse" x1="23.91281306743622" y1="59.28500843048096" x2="24.089223742485046" y2="0.7149667739868164"><stop stop-opacity="1" stop-color="#f26725" offset="0"></stop><stop stop-opacity="1" stop-color="#ffb62a" offset="1"></stop></linearGradient></defs><desc>Generated with Avocode.</desc><g><g><title>Forma 1</title><path d="M23.90984,34.04695c-5.88272,0 -10.65353,-4.7468 -10.65353,-10.58093c0,-5.83413 4.78271,-10.58011 10.65353,-10.58011c5.88272,0 10.65342,4.74599 10.65342,10.58011c0,5.84636 -4.78271,10.59316 -10.65342,10.58093zM32.11216,23.58588c0,-4.50708 -3.67069,-8.15392 -8.20232,-8.15392c-4.53163,0 -8.20244,3.64684 -8.20244,8.15392c0,4.50748 3.67081,8.15351 8.20244,8.15351c4.53163,0 8.20232,-3.64602 8.20232,-8.15351zM46.44829,54.25112l-5.63164,-1.09996l-1.84135,5.35671c-0.23907,0.78848 -1.67393,1.20678 -2.3315,0.11905l-9.25461,-15.93642l-3.35987,3.65825l-3.46745,-3.78994l-9.38599,16.06811c-0.57392,1.04003 -1.91311,0.66944 -2.20013,-0.23891l-1.84135,-5.3559l-5.63164,1.09996c-0.88474,0.22709 -1.82934,-0.72978 -1.2196,-1.82974l9.3742,-16.18715l-5.51216,-1.19577l2.14027,-6.68254l-5.21313,-4.72275l5.21313,-4.72234l-2.14027,-6.68336l6.89907,-1.4942l1.50661,-6.85051l6.71963,2.14l4.7588,-5.18874l4.74689,5.17651l6.73164,-2.12776l1.50661,6.87457l6.89896,1.4942l-2.14016,6.68295l5.21313,4.72234l-5.21313,4.72234l2.14016,6.68336l-5.67936,1.23124l9.42192,16.24749c0.71732,1.15989 -0.19135,2.11594 -1.2077,1.82892zM18.19443,41.51879l-5.64354,1.78163l-1.2077,-5.48799l-7.7599,13.40218l4.04137,-0.72896c0.11959,0 0.11959,0 0.23918,0c0.49015,0 0.98042,0.35836 1.10001,0.84841l1.35109,3.76629zM24.04133,42.6905l3.99353,-4.36357l5.65556,1.79345l1.26743,-5.76319l5.79906,-1.25489l-1.80553,-5.61927l4.38812,-3.96892l-4.38812,-3.96933l1.80553,-5.61886l-5.79906,-1.2557l-1.26743,-5.76237l-5.65556,1.79345l-4.01745,-4.35215l-3.99353,4.36398l-5.65556,-1.79305l-1.26743,5.76237l-5.79906,1.2553l1.80553,5.61886l-4.38824,3.96933l4.40014,3.99297l-1.80542,5.61927l5.79895,1.2553l1.26743,5.76278l5.65556,-1.79386zM44.23626,51.20278l-7.59247,-13.05523l-1.13594,5.14064l-5.94246,-1.87662l7.92732,13.68879l1.35109,-3.76629c0.25108,-0.60951 0.74135,-0.84841 1.35109,-0.84841z" fill="#000000" fill-opacity="0"></path><path d="M23.90984,34.04695c-5.88272,0 -10.65353,-4.7468 -10.65353,-10.58093c0,-5.83413 4.78271,-10.58011 10.65353,-10.58011c5.88272,0 10.65342,4.74599 10.65342,10.58011c0,5.84636 -4.78271,10.59316 -10.65342,10.58093zM32.11216,23.58588c0,-4.50708 -3.67069,-8.15392 -8.20232,-8.15392c-4.53163,0 -8.20244,3.64684 -8.20244,8.15392c0,4.50748 3.67081,8.15351 8.20244,8.15351c4.53163,0 8.20232,-3.64602 8.20232,-8.15351zM46.44829,54.25112l-5.63164,-1.09996l-1.84135,5.35671c-0.23907,0.78848 -1.67393,1.20678 -2.3315,0.11905l-9.25461,-15.93642l-3.35987,3.65825l-3.46745,-3.78994l-9.38599,16.06811c-0.57392,1.04003 -1.91311,0.66944 -2.20013,-0.23891l-1.84135,-5.3559l-5.63164,1.09996c-0.88474,0.22709 -1.82934,-0.72978 -1.2196,-1.82974l9.3742,-16.18715l-5.51216,-1.19577l2.14027,-6.68254l-5.21313,-4.72275l5.21313,-4.72234l-2.14027,-6.68336l6.89907,-1.4942l1.50661,-6.85051l6.71963,2.14l4.7588,-5.18874l4.74689,5.17651l6.73164,-2.12776l1.50661,6.87457l6.89896,1.4942l-2.14016,6.68295l5.21313,4.72234l-5.21313,4.72234l2.14016,6.68336l-5.67936,1.23124l9.42192,16.24749c0.71732,1.15989 -0.19135,2.11594 -1.2077,1.82892zM18.19443,41.51879l-5.64354,1.78163l-1.2077,-5.48799l-7.7599,13.40218l4.04137,-0.72896c0.11959,0 0.11959,0 0.23918,0c0.49015,0 0.98042,0.35836 1.10001,0.84841l1.35109,3.76629zM24.04133,42.6905l3.99353,-4.36357l5.65556,1.79345l1.26743,-5.76319l5.79906,-1.25489l-1.80553,-5.61927l4.38812,-3.96892l-4.38812,-3.96933l1.80553,-5.61886l-5.79906,-1.2557l-1.26743,-5.76237l-5.65556,1.79345l-4.01745,-4.35215l-3.99353,4.36398l-5.65556,-1.79305l-1.26743,5.76237l-5.79906,1.2553l1.80553,5.61886l-4.38824,3.96933l4.40014,3.99297l-1.80542,5.61927l5.79895,1.2553l1.26743,5.76278l5.65556,-1.79386zM44.23626,51.20278l-7.59247,-13.05523l-1.13594,5.14064l-5.94246,-1.87662l7.92732,13.68879l1.35109,-3.76629c0.25108,-0.60951 0.74135,-0.84841 1.35109,-0.84841z" fill="url(#LinearGradient1083)"></path></g></g></svg>
