<?xml version="1.0" encoding="UTF-8"?>
<svg id="SVGDoc" width="60" height="60" xmlns="http://www.w3.org/2000/svg" version="1.1" xmlns:xlink="http://www.w3.org/1999/xlink" xmlns:avocode="https://avocode.com/" viewBox="0 0 60 60"><defs><linearGradient id="LinearGradient1058" gradientUnits="userSpaceOnUse" x1="29.999929152429104" y1="59.986128747463226" x2="29.998334608972073" y2="0.012808740139007568"><stop stop-opacity="1" stop-color="#f26725" offset="0"></stop><stop stop-opacity="1" stop-color="#ffb62a" offset="1"></stop></linearGradient></defs><desc>Generated with Avocode.</desc><g><g><title>Forma 1</title><path d="M8.99864,35.99643h8.00022v1.99893h-8.00022zM59.99992,47.99084v7.99614c0,0.55202 -0.44769,0.99967 -0.99998,0.99967h-3.14209c-0.35934,1.41307 -1.46358,2.51711 -2.87762,2.87589c-2.13066,0.54142 -4.29703,-0.74649 -4.83856,-2.87589h-7.28416c-0.35946,1.41307 -1.46358,2.51711 -2.87762,2.87589c-2.13066,0.54142 -4.29714,-0.74649 -4.83856,-2.87589h-4.14219c-0.55218,0 -0.99998,-0.44765 -0.99998,-0.99967v-17.99161c0,-0.55202 0.44781,-0.99967 0.99998,-0.99967h20.0005c0.55229,0 1.0001,0.44765 1.0001,0.99967v2.9986h6.00014c0.37868,0 0.7251,0.21404 0.89447,0.55243l3.00007,5.9972c0.06935,0.13862 0.10551,0.29191 0.10551,0.44724zM38.99944,55.98698c0,-1.10445 -0.89539,-1.99893 -2.00008,-1.99893c-1.1047,0 -2.00008,0.89448 -2.00008,1.99893c0,1.10404 0.89539,1.99893 2.00008,1.99893c1.10413,-0.00122 1.99894,-0.8953 2.00008,-1.99893zM47.99965,38.99463h-18.00041v15.99309h3.14209c0.4533,-1.76084 2.03911,-2.9933 3.85803,-2.99901c1.81892,0.00571 3.40473,1.23817 3.85815,2.99901h7.14214zM53.99979,46.99117h3.38207l-2.0002,-3.99827h-1.38187zM53.99979,55.98698c0,-1.10445 -0.89539,-1.99893 -2.00008,-1.99893c-1.10458,0 -1.99997,0.89448 -1.99997,1.99893c0,1.10404 0.89539,1.99893 1.99997,1.99893c1.10424,-0.00122 1.99894,-0.8953 2.00008,-1.99893zM57.99984,48.99011h-5.00004c-0.55229,0 -1.0001,-0.44724 -1.0001,-0.99926v-4.99794h-1.99997v9.55231c0.60528,-0.3604 1.29559,-0.55243 1.99997,-0.5565c1.81892,0.00571 3.40473,1.23817 3.85815,2.99901h2.14199zM21.99902,14.00655h1.99905v1.99893h-1.99905zM25.99907,14.00655h1.99905v1.99893h-1.99905zM29.99924,14.00655h1.99905v1.99893h-1.99905zM33.99929,14.00655h1.99905v1.99893h-1.99905zM55.99735,18.90787c-0.00332,1.71273 -1.39446,3.09808 -3.10741,3.09482h-18.78365l-5.29816,7.56969c-0.25383,0.36244 -0.71571,0.51533 -1.13571,0.37549l-2.99812,-0.99967c-0.03044,-0.00978 -0.06031,-0.02161 -0.08972,-0.03465c-0.50468,-0.22423 -0.73208,-0.81458 -0.50789,-1.3189l2.48474,-5.59196h-0.27237c-3.65868,0.00856 -7.16846,-1.4465 -9.74716,-4.04108l-6.25019,-6.24712c-0.18494,-0.18795 -0.2869,-0.44317 -0.28358,-0.70654h-0.00938v-9.99588c0,-0.55161 0.44769,-0.99926 0.99998,-0.99926h5.00015c0.44163,0 0.83107,0.28987 0.95798,0.71306l2.78618,9.28242h7.97527l-1.68949,-6.7543c-0.01968,-0.07909 -0.02975,-0.16022 -0.02975,-0.24095c-0.00023,-0.55243 0.44758,-1.00049 1.0001,-1.00089h3.00007c0.34481,0 0.66525,0.17776 0.84812,0.46967l4.70627,7.52647h7.75589c3.2555,0.00856 6.3755,1.3034 8.67897,3.60322l3.09826,3.09686c0.58434,0.583 0.91209,1.37475 0.91061,2.19952zM28.27988,4.01107l1.50021,5.9972h3.41492l-3.75011,-5.9972zM11.99871,10.00827h5.65601l-2.40005,-7.99614h-3.25596zM33.06465,20.00334h-3.42636l-3.28674,7.39682l1.24569,0.41544zM53.675,18.12509l-2.12013,-2.11961h-9.55536v-1.99893h7.36897c-1.75747,-1.28995 -3.87863,-1.98956 -6.05896,-1.99893h-29.89677l4.54319,4.54051c2.20448,2.21827 5.20523,3.46215 8.33313,3.45522h1.16077l0.62439,-1.40492c0.16045,-0.36122 0.51865,-0.59401 0.91404,-0.59401h5.99625c0.20508,0 0.40489,0.06319 0.57289,0.18061c0.45273,0.31596 0.56305,0.93974 0.24651,1.39228l-0.29846,0.42604h17.38449c0.45101,0.00652 0.85922,-0.26582 1.02585,-0.68534c0.17532,-0.40892 0.07954,-0.88388 -0.24078,-1.19292zM25.99907,57.98591v1.99934c-1.08295,-0.00612 -2.1143,-0.46477 -2.8442,-1.26467c-0.36026,-0.4554 -0.90614,-0.72529 -1.48693,-0.73467c-0.21206,-0.00163 -0.42252,0.03792 -0.61947,0.11701c-0.0087,0.00367 -0.01453,0.01223 -0.02346,0.0159c-0.31071,0.15615 -0.5928,0.36326 -0.8345,0.61317c-0.73723,0.79297 -1.76949,1.24673 -2.85267,1.25326c-1.08307,-0.00612 -2.1143,-0.46518 -2.84374,-1.26508c-0.10036,-0.13087 -0.21767,-0.24869 -0.3487,-0.34817c-0.82169,-0.62907 -1.99791,-0.47252 -2.62699,0.34858c-0.73036,0.7999 -1.76193,1.25856 -2.84534,1.26467c-1.08376,-0.00652 -2.11681,-0.46029 -2.85507,-1.25285c-0.24387,-0.25196 -0.5286,-0.45988 -0.84229,-0.61603c-0.00847,-0.00367 -0.01385,-0.01101 -0.0222,-0.01508c-0.19661,-0.07787 -0.40615,-0.11742 -0.61741,-0.11538c-0.58216,0.00938 -1.12942,0.27927 -1.49128,0.73508c-0.73082,0.79949 -1.76273,1.25815 -2.84637,1.26426v-1.99934c0.58193,-0.00938 1.12896,-0.27927 1.49082,-0.73467c0.62874,-0.67433 1.47171,-1.11097 2.38586,-1.23573l-3.81855,-10.68734c-0.00217,-0.00612 -0.00423,-0.01223 -0.00629,-0.01794c-0.17532,-0.5243 0.10746,-1.09099 0.63183,-1.2663l2.43851,-0.81295l1.89411,-10.41173c0.0864,-0.47578 0.50045,-0.8211 0.98385,-0.8211h4.00017v-2.9986c0,-0.55202 0.44769,-0.99967 0.99998,-0.99967h4.00005c0.55229,0 1.0001,0.44765 1.0001,0.99967v2.9986h4.00005c0.48328,0 0.89756,0.34491 0.98396,0.8211l1.894,10.41173l2.43851,0.81295c0.00618,0.00204 0.01236,0.00408 0.01831,0.00612c0.52094,0.1855 0.79273,0.75791 0.60722,1.27813l-3.81855,10.68693c0.91564,0.12394 1.7601,0.56058 2.38976,1.23613c0.36026,0.4554 0.90614,0.72529 1.48693,0.73467zM11.99871,31.99816h2.00008v-1.99934h-2.00008zM11.99871,42.38095l-9.71512,3.23629l3.87348,10.84022c0.37113,0.22423 0.71526,0.49087 1.02573,0.79378c0.10002,0.13046 0.21687,0.24747 0.34733,0.34776c0.8226,0.6303 2.00089,0.47456 2.63168,-0.34776c0.50606,-0.52756 1.13811,-0.91813 1.83689,-1.13421zM13.31512,40.04526l7.3978,2.46534l-1.5485,-8.5131h-12.33135l-1.5485,8.5131l7.3978,-2.46534c0.20542,-0.06809 0.42744,-0.06809 0.63274,0zM23.71403,45.61724l-9.71512,-3.23629v13.73038c0.70541,0.21445 1.34354,0.60747 1.85257,1.14073c0.10048,0.13087 0.21801,0.24869 0.34939,0.3494c0.82088,0.62744 1.99539,0.47089 2.62333,-0.3494c0.30727,-0.30047 0.64751,-0.56466 1.01429,-0.78848zM37.99934,14.00655h1.99905v1.99893h-1.99905z" fill="#000000" fill-opacity="0"></path><path d="M8.99864,35.99643h8.00022v1.99893h-8.00022zM59.99992,47.99084v7.99614c0,0.55202 -0.44769,0.99967 -0.99998,0.99967h-3.14209c-0.35934,1.41307 -1.46358,2.51711 -2.87762,2.87589c-2.13066,0.54142 -4.29703,-0.74649 -4.83856,-2.87589h-7.28416c-0.35946,1.41307 -1.46358,2.51711 -2.87762,2.87589c-2.13066,0.54142 -4.29714,-0.74649 -4.83856,-2.87589h-4.14219c-0.55218,0 -0.99998,-0.44765 -0.99998,-0.99967v-17.99161c0,-0.55202 0.44781,-0.99967 0.99998,-0.99967h20.0005c0.55229,0 1.0001,0.44765 1.0001,0.99967v2.9986h6.00014c0.37868,0 0.7251,0.21404 0.89447,0.55243l3.00007,5.9972c0.06935,0.13862 0.10551,0.29191 0.10551,0.44724zM38.99944,55.98698c0,-1.10445 -0.89539,-1.99893 -2.00008,-1.99893c-1.1047,0 -2.00008,0.89448 -2.00008,1.99893c0,1.10404 0.89539,1.99893 2.00008,1.99893c1.10413,-0.00122 1.99894,-0.8953 2.00008,-1.99893zM47.99965,38.99463h-18.00041v15.99309h3.14209c0.4533,-1.76084 2.03911,-2.9933 3.85803,-2.99901c1.81892,0.00571 3.40473,1.23817 3.85815,2.99901h7.14214zM53.99979,46.99117h3.38207l-2.0002,-3.99827h-1.38187zM53.99979,55.98698c0,-1.10445 -0.89539,-1.99893 -2.00008,-1.99893c-1.10458,0 -1.99997,0.89448 -1.99997,1.99893c0,1.10404 0.89539,1.99893 1.99997,1.99893c1.10424,-0.00122 1.99894,-0.8953 2.00008,-1.99893zM57.99984,48.99011h-5.00004c-0.55229,0 -1.0001,-0.44724 -1.0001,-0.99926v-4.99794h-1.99997v9.55231c0.60528,-0.3604 1.29559,-0.55243 1.99997,-0.5565c1.81892,0.00571 3.40473,1.23817 3.85815,2.99901h2.14199zM21.99902,14.00655h1.99905v1.99893h-1.99905zM25.99907,14.00655h1.99905v1.99893h-1.99905zM29.99924,14.00655h1.99905v1.99893h-1.99905zM33.99929,14.00655h1.99905v1.99893h-1.99905zM55.99735,18.90787c-0.00332,1.71273 -1.39446,3.09808 -3.10741,3.09482h-18.78365l-5.29816,7.56969c-0.25383,0.36244 -0.71571,0.51533 -1.13571,0.37549l-2.99812,-0.99967c-0.03044,-0.00978 -0.06031,-0.02161 -0.08972,-0.03465c-0.50468,-0.22423 -0.73208,-0.81458 -0.50789,-1.3189l2.48474,-5.59196h-0.27237c-3.65868,0.00856 -7.16846,-1.4465 -9.74716,-4.04108l-6.25019,-6.24712c-0.18494,-0.18795 -0.2869,-0.44317 -0.28358,-0.70654h-0.00938v-9.99588c0,-0.55161 0.44769,-0.99926 0.99998,-0.99926h5.00015c0.44163,0 0.83107,0.28987 0.95798,0.71306l2.78618,9.28242h7.97527l-1.68949,-6.7543c-0.01968,-0.07909 -0.02975,-0.16022 -0.02975,-0.24095c-0.00023,-0.55243 0.44758,-1.00049 1.0001,-1.00089h3.00007c0.34481,0 0.66525,0.17776 0.84812,0.46967l4.70627,7.52647h7.75589c3.2555,0.00856 6.3755,1.3034 8.67897,3.60322l3.09826,3.09686c0.58434,0.583 0.91209,1.37475 0.91061,2.19952zM28.27988,4.01107l1.50021,5.9972h3.41492l-3.75011,-5.9972zM11.99871,10.00827h5.65601l-2.40005,-7.99614h-3.25596zM33.06465,20.00334h-3.42636l-3.28674,7.39682l1.24569,0.41544zM53.675,18.12509l-2.12013,-2.11961h-9.55536v-1.99893h7.36897c-1.75747,-1.28995 -3.87863,-1.98956 -6.05896,-1.99893h-29.89677l4.54319,4.54051c2.20448,2.21827 5.20523,3.46215 8.33313,3.45522h1.16077l0.62439,-1.40492c0.16045,-0.36122 0.51865,-0.59401 0.91404,-0.59401h5.99625c0.20508,0 0.40489,0.06319 0.57289,0.18061c0.45273,0.31596 0.56305,0.93974 0.24651,1.39228l-0.29846,0.42604h17.38449c0.45101,0.00652 0.85922,-0.26582 1.02585,-0.68534c0.17532,-0.40892 0.07954,-0.88388 -0.24078,-1.19292zM25.99907,57.98591v1.99934c-1.08295,-0.00612 -2.1143,-0.46477 -2.8442,-1.26467c-0.36026,-0.4554 -0.90614,-0.72529 -1.48693,-0.73467c-0.21206,-0.00163 -0.42252,0.03792 -0.61947,0.11701c-0.0087,0.00367 -0.01453,0.01223 -0.02346,0.0159c-0.31071,0.15615 -0.5928,0.36326 -0.8345,0.61317c-0.73723,0.79297 -1.76949,1.24673 -2.85267,1.25326c-1.08307,-0.00612 -2.1143,-0.46518 -2.84374,-1.26508c-0.10036,-0.13087 -0.21767,-0.24869 -0.3487,-0.34817c-0.82169,-0.62907 -1.99791,-0.47252 -2.62699,0.34858c-0.73036,0.7999 -1.76193,1.25856 -2.84534,1.26467c-1.08376,-0.00652 -2.11681,-0.46029 -2.85507,-1.25285c-0.24387,-0.25196 -0.5286,-0.45988 -0.84229,-0.61603c-0.00847,-0.00367 -0.01385,-0.01101 -0.0222,-0.01508c-0.19661,-0.07787 -0.40615,-0.11742 -0.61741,-0.11538c-0.58216,0.00938 -1.12942,0.27927 -1.49128,0.73508c-0.73082,0.79949 -1.76273,1.25815 -2.84637,1.26426v-1.99934c0.58193,-0.00938 1.12896,-0.27927 1.49082,-0.73467c0.62874,-0.67433 1.47171,-1.11097 2.38586,-1.23573l-3.81855,-10.68734c-0.00217,-0.00612 -0.00423,-0.01223 -0.00629,-0.01794c-0.17532,-0.5243 0.10746,-1.09099 0.63183,-1.2663l2.43851,-0.81295l1.89411,-10.41173c0.0864,-0.47578 0.50045,-0.8211 0.98385,-0.8211h4.00017v-2.9986c0,-0.55202 0.44769,-0.99967 0.99998,-0.99967h4.00005c0.55229,0 1.0001,0.44765 1.0001,0.99967v2.9986h4.00005c0.48328,0 0.89756,0.34491 0.98396,0.8211l1.894,10.41173l2.43851,0.81295c0.00618,0.00204 0.01236,0.00408 0.01831,0.00612c0.52094,0.1855 0.79273,0.75791 0.60722,1.27813l-3.81855,10.68693c0.91564,0.12394 1.7601,0.56058 2.38976,1.23613c0.36026,0.4554 0.90614,0.72529 1.48693,0.73467zM11.99871,31.99816h2.00008v-1.99934h-2.00008zM11.99871,42.38095l-9.71512,3.23629l3.87348,10.84022c0.37113,0.22423 0.71526,0.49087 1.02573,0.79378c0.10002,0.13046 0.21687,0.24747 0.34733,0.34776c0.8226,0.6303 2.00089,0.47456 2.63168,-0.34776c0.50606,-0.52756 1.13811,-0.91813 1.83689,-1.13421zM13.31512,40.04526l7.3978,2.46534l-1.5485,-8.5131h-12.33135l-1.5485,8.5131l7.3978,-2.46534c0.20542,-0.06809 0.42744,-0.06809 0.63274,0zM23.71403,45.61724l-9.71512,-3.23629v13.73038c0.70541,0.21445 1.34354,0.60747 1.85257,1.14073c0.10048,0.13087 0.21801,0.24869 0.34939,0.3494c0.82088,0.62744 1.99539,0.47089 2.62333,-0.3494c0.30727,-0.30047 0.64751,-0.56466 1.01429,-0.78848zM37.99934,14.00655h1.99905v1.99893h-1.99905z" fill="url(#LinearGradient1058)"></path></g></g></svg>
