<?xml version="1.0" encoding="UTF-8"?>
<svg id="SVGDoc" width="60" height="60" xmlns="http://www.w3.org/2000/svg" version="1.1" xmlns:xlink="http://www.w3.org/1999/xlink" xmlns:avocode="https://avocode.com/" viewBox="0 0 60 60"><defs><linearGradient id="LinearGradient1033" gradientUnits="userSpaceOnUse" x1="29.999924659729004" y1="59.97232162952423" x2="29.99992847442627" y2="-0.014410853385925293"><stop stop-opacity="1" stop-color="#f26725" offset="0"></stop><stop stop-opacity="1" stop-color="#ffb62a" offset="1"></stop></linearGradient></defs><desc>Generated with Avocode.</desc><g><g><title>Forma 1</title><path d="M59.99992,8.98344v39.99088c0,0.55243 -0.44769,1.00008 -0.99998,1.00008h-15.99998v-1.99934h15v-37.99195h-7.00001c-0.55229,0 -0.99998,-0.44765 -0.99998,-0.99967v-6.99851h-26.00006v9.99833h-1.99997v-10.99759c0,-0.55243 0.44781,-1.00008 0.99998,-1.00008h28.00003c0.26527,0 0.51945,0.106 0.70702,0.29313l7.99999,7.99818c0.18757,0.18754 0.29297,0.44153 0.29297,0.70654zM56.58592,7.98377l-4.58599,-4.58495v4.58495zM32.99999,14.98268v43.98956c0,0.55202 -0.44781,1.00008 -1.0001,1.00008h-30.99998c-0.55218,0 -0.99998,-0.44806 -0.99998,-1.00008v-43.98956c0,-0.55243 0.44781,-1.00008 0.99998,-1.00008h30.99998c0.55241,0 1.0001,0.44765 1.0001,1.00008zM30.99991,15.98195h-29.00002v41.99063h29.00002zM28.99994,19.98144v7.99777c0,0.55202 -0.44769,1.00008 -0.99998,1.00008h-22.99999c-0.55229,0 -0.99998,-0.44806 -0.99998,-1.00008v-7.99777c0,-0.55243 0.44769,-1.00008 0.99998,-1.00008h22.99999c0.55241,0 0.99998,0.44765 0.99998,1.00008zM26.99997,20.9807h-21.00002v5.99884h21.00002zM10.99998,49.9744v4.99876c0,0.55243 -0.44781,0.99967 -1.0001,0.99967h-4.99992c-0.55229,0 -0.99998,-0.44724 -0.99998,-0.99967v-4.99876c0,-0.55202 0.44769,-1.00008 0.99998,-1.00008h4.99992c0.55241,0 1.0001,0.44806 1.0001,1.00008zM8.9999,50.97447h-2.99995v2.99901h2.99995zM19.99996,49.9744v4.99876c0,0.55243 -0.44781,0.99967 -0.99998,0.99967h-5.00004c-0.55229,0 -0.99998,-0.44724 -0.99998,-0.99967v-4.99876c0,-0.55202 0.44769,-1.00008 0.99998,-1.00008h5.00004c0.55229,0 0.99998,0.44806 0.99998,1.00008zM17.99999,50.97447h-3.00007v2.99901h3.00007zM10.99998,40.97655v4.99876c0,0.55243 -0.44781,0.99967 -1.0001,0.99967h-4.99992c-0.55229,0 -0.99998,-0.44724 -0.99998,-0.99967v-4.99876c0,-0.55202 0.44769,-0.99967 0.99998,-0.99967h4.99992c0.55241,0 1.0001,0.44765 1.0001,0.99967zM8.9999,41.97622h-2.99995v2.99942h2.99995zM19.99996,40.97655v4.99876c0,0.55243 -0.44781,0.99967 -0.99998,0.99967h-5.00004c-0.55229,0 -0.99998,-0.44724 -0.99998,-0.99967v-4.99876c0,-0.55202 0.44769,-0.99967 0.99998,-0.99967h5.00004c0.55229,0 0.99998,0.44765 0.99998,0.99967zM17.99999,41.97622h-3.00007v2.99942h3.00007zM10.99998,31.9783v4.99917c0,0.55202 -0.44781,0.99967 -1.0001,0.99967h-4.99992c-0.55229,0 -0.99998,-0.44765 -0.99998,-0.99967v-4.99917c0,-0.55202 0.44769,-0.99967 0.99998,-0.99967h4.99992c0.55241,0 1.0001,0.44765 1.0001,0.99967zM8.9999,32.97797h-2.99995v2.99983h2.99995zM19.99996,31.9783v4.99917c0,0.55202 -0.44781,0.99967 -0.99998,0.99967h-5.00004c-0.55229,0 -0.99998,-0.44765 -0.99998,-0.99967v-4.99917c0,-0.55202 0.44769,-0.99967 0.99998,-0.99967h5.00004c0.55229,0 0.99998,0.44765 0.99998,0.99967zM17.99999,32.97797h-3.00007v2.99983h3.00007zM28.99994,31.9783v4.99917c0,0.55202 -0.44769,0.99967 -0.99998,0.99967h-5.00004c-0.55218,0 -0.99998,-0.44765 -0.99998,-0.99967v-4.99917c0,-0.55202 0.44781,-0.99967 0.99998,-0.99967h5.00004c0.55241,0 0.99998,0.44765 0.99998,0.99967zM26.99997,32.97797h-3.00007v2.99983h3.00007zM28.99994,40.97655v13.9966c0,0.55243 -0.44769,0.99967 -0.99998,0.99967h-5.00004c-0.55218,0 -0.99998,-0.44724 -0.99998,-0.99967v-13.9966c0,-0.55202 0.44781,-0.99967 0.99998,-0.99967h5.00004c0.55241,0 0.99998,0.44765 0.99998,0.99967zM26.99997,41.97622h-3.00007v11.99726h3.00007zM22.99992,22.98045h1.99997v1.99975h-1.99997zM18.99998,22.98045h1.99997v1.99975h-1.99997zM14.99992,22.98045h1.99997v1.99975h-1.99997zM28.99994,5.98443h19.00005v1.99934h-19.00005zM28.99994,9.98311h19.00005v2.00016h-19.00005zM52.99992,13.98261v12.99693h-17.99995v-5.99884h1.99997v3.9995h1.99997v-6.9981h2.00008v6.9981h1.99997v-3.9995h1.99997v3.9995h1.99997v-8.99825h2.00008v8.99825h1.99997v-10.99759zM44.99992,34.97731v10.998h-1.99997v-9.99752h-1.99997v19.99503c-0.00046,0.19773 -0.05882,0.39098 -0.168,0.55487l-2.00008,2.99942c-0.07324,0.11008 -0.16743,0.20426 -0.27718,0.27723c-0.45948,0.30618 -1.08044,0.18183 -1.3868,-0.27723l-1.99997,-2.99942c-0.10929,-0.16389 -0.16766,-0.35714 -0.168,-0.55487v-24.9942c0,-0.55243 0.44769,-1.00008 0.99998,-1.00008h3.99994c0.55229,0 1.0001,0.44765 1.0001,1.00008v2.99942h2.99995c0.55241,0 0.99998,0.44765 0.99998,0.99926zM38.9999,35.97779h-1.99997v19.69537l0.99998,1.49951l0.99998,-1.49951zM38.9999,31.9783h-1.99997v1.99975h1.99997zM42.99995,29.97855h9.99996v1.99975h-9.99996zM46.99989,33.97804h6.00002v1.99975h-6.00002zM46.99989,37.97713h6.00002v1.99975h-6.00002zM46.99989,41.97622h6.00002v1.99975h-6.00002z" fill="#000000" fill-opacity="0"></path><path d="M59.99992,8.98344v39.99088c0,0.55243 -0.44769,1.00008 -0.99998,1.00008h-15.99998v-1.99934h15v-37.99195h-7.00001c-0.55229,0 -0.99998,-0.44765 -0.99998,-0.99967v-6.99851h-26.00006v9.99833h-1.99997v-10.99759c0,-0.55243 0.44781,-1.00008 0.99998,-1.00008h28.00003c0.26527,0 0.51945,0.106 0.70702,0.29313l7.99999,7.99818c0.18757,0.18754 0.29297,0.44153 0.29297,0.70654zM56.58592,7.98377l-4.58599,-4.58495v4.58495zM32.99999,14.98268v43.98956c0,0.55202 -0.44781,1.00008 -1.0001,1.00008h-30.99998c-0.55218,0 -0.99998,-0.44806 -0.99998,-1.00008v-43.98956c0,-0.55243 0.44781,-1.00008 0.99998,-1.00008h30.99998c0.55241,0 1.0001,0.44765 1.0001,1.00008zM30.99991,15.98195h-29.00002v41.99063h29.00002zM28.99994,19.98144v7.99777c0,0.55202 -0.44769,1.00008 -0.99998,1.00008h-22.99999c-0.55229,0 -0.99998,-0.44806 -0.99998,-1.00008v-7.99777c0,-0.55243 0.44769,-1.00008 0.99998,-1.00008h22.99999c0.55241,0 0.99998,0.44765 0.99998,1.00008zM26.99997,20.9807h-21.00002v5.99884h21.00002zM10.99998,49.9744v4.99876c0,0.55243 -0.44781,0.99967 -1.0001,0.99967h-4.99992c-0.55229,0 -0.99998,-0.44724 -0.99998,-0.99967v-4.99876c0,-0.55202 0.44769,-1.00008 0.99998,-1.00008h4.99992c0.55241,0 1.0001,0.44806 1.0001,1.00008zM8.9999,50.97447h-2.99995v2.99901h2.99995zM19.99996,49.9744v4.99876c0,0.55243 -0.44781,0.99967 -0.99998,0.99967h-5.00004c-0.55229,0 -0.99998,-0.44724 -0.99998,-0.99967v-4.99876c0,-0.55202 0.44769,-1.00008 0.99998,-1.00008h5.00004c0.55229,0 0.99998,0.44806 0.99998,1.00008zM17.99999,50.97447h-3.00007v2.99901h3.00007zM10.99998,40.97655v4.99876c0,0.55243 -0.44781,0.99967 -1.0001,0.99967h-4.99992c-0.55229,0 -0.99998,-0.44724 -0.99998,-0.99967v-4.99876c0,-0.55202 0.44769,-0.99967 0.99998,-0.99967h4.99992c0.55241,0 1.0001,0.44765 1.0001,0.99967zM8.9999,41.97622h-2.99995v2.99942h2.99995zM19.99996,40.97655v4.99876c0,0.55243 -0.44781,0.99967 -0.99998,0.99967h-5.00004c-0.55229,0 -0.99998,-0.44724 -0.99998,-0.99967v-4.99876c0,-0.55202 0.44769,-0.99967 0.99998,-0.99967h5.00004c0.55229,0 0.99998,0.44765 0.99998,0.99967zM17.99999,41.97622h-3.00007v2.99942h3.00007zM10.99998,31.9783v4.99917c0,0.55202 -0.44781,0.99967 -1.0001,0.99967h-4.99992c-0.55229,0 -0.99998,-0.44765 -0.99998,-0.99967v-4.99917c0,-0.55202 0.44769,-0.99967 0.99998,-0.99967h4.99992c0.55241,0 1.0001,0.44765 1.0001,0.99967zM8.9999,32.97797h-2.99995v2.99983h2.99995zM19.99996,31.9783v4.99917c0,0.55202 -0.44781,0.99967 -0.99998,0.99967h-5.00004c-0.55229,0 -0.99998,-0.44765 -0.99998,-0.99967v-4.99917c0,-0.55202 0.44769,-0.99967 0.99998,-0.99967h5.00004c0.55229,0 0.99998,0.44765 0.99998,0.99967zM17.99999,32.97797h-3.00007v2.99983h3.00007zM28.99994,31.9783v4.99917c0,0.55202 -0.44769,0.99967 -0.99998,0.99967h-5.00004c-0.55218,0 -0.99998,-0.44765 -0.99998,-0.99967v-4.99917c0,-0.55202 0.44781,-0.99967 0.99998,-0.99967h5.00004c0.55241,0 0.99998,0.44765 0.99998,0.99967zM26.99997,32.97797h-3.00007v2.99983h3.00007zM28.99994,40.97655v13.9966c0,0.55243 -0.44769,0.99967 -0.99998,0.99967h-5.00004c-0.55218,0 -0.99998,-0.44724 -0.99998,-0.99967v-13.9966c0,-0.55202 0.44781,-0.99967 0.99998,-0.99967h5.00004c0.55241,0 0.99998,0.44765 0.99998,0.99967zM26.99997,41.97622h-3.00007v11.99726h3.00007zM22.99992,22.98045h1.99997v1.99975h-1.99997zM18.99998,22.98045h1.99997v1.99975h-1.99997zM14.99992,22.98045h1.99997v1.99975h-1.99997zM28.99994,5.98443h19.00005v1.99934h-19.00005zM28.99994,9.98311h19.00005v2.00016h-19.00005zM52.99992,13.98261v12.99693h-17.99995v-5.99884h1.99997v3.9995h1.99997v-6.9981h2.00008v6.9981h1.99997v-3.9995h1.99997v3.9995h1.99997v-8.99825h2.00008v8.99825h1.99997v-10.99759zM44.99992,34.97731v10.998h-1.99997v-9.99752h-1.99997v19.99503c-0.00046,0.19773 -0.05882,0.39098 -0.168,0.55487l-2.00008,2.99942c-0.07324,0.11008 -0.16743,0.20426 -0.27718,0.27723c-0.45948,0.30618 -1.08044,0.18183 -1.3868,-0.27723l-1.99997,-2.99942c-0.10929,-0.16389 -0.16766,-0.35714 -0.168,-0.55487v-24.9942c0,-0.55243 0.44769,-1.00008 0.99998,-1.00008h3.99994c0.55229,0 1.0001,0.44765 1.0001,1.00008v2.99942h2.99995c0.55241,0 0.99998,0.44765 0.99998,0.99926zM38.9999,35.97779h-1.99997v19.69537l0.99998,1.49951l0.99998,-1.49951zM38.9999,31.9783h-1.99997v1.99975h1.99997zM42.99995,29.97855h9.99996v1.99975h-9.99996zM46.99989,33.97804h6.00002v1.99975h-6.00002zM46.99989,37.97713h6.00002v1.99975h-6.00002zM46.99989,41.97622h6.00002v1.99975h-6.00002z" fill="url(#LinearGradient1033)"></path></g></g></svg>
