<?xml version="1.0" encoding="UTF-8"?>
<svg id="SVGDoc" width="60" height="60" xmlns="http://www.w3.org/2000/svg" version="1.1" xmlns:xlink="http://www.w3.org/1999/xlink" xmlns:avocode="https://avocode.com/" viewBox="0 0 60 60"><defs><linearGradient id="LinearGradient1208" gradientUnits="userSpaceOnUse" x1="30.007436990737915" y1="60.007166266441345" x2="29.992471933364868" y2="-0.008512139320373535"><stop stop-opacity="1" stop-color="#f26725" offset="0"></stop><stop stop-opacity="1" stop-color="#ffb62a" offset="1"></stop></linearGradient></defs><desc>Generated with Avocode.</desc><g><g><title>Shape 1</title><path d="M28.99956,18.99663c0,5.50145 -4.50108,10.00241 -10.00237,10.00241c-5.5014,0 -10.00248,-4.50096 -10.00248,-10.00241c0,-5.50104 4.50108,-10.002 10.00248,-10.002c5.5014,0 10.00259,4.50096 10.00237,10.002zM26.99924,18.99663c0,-4.40067 -3.601,-8.00184 -8.00205,-8.00184c-4.40117,0 -8.00205,3.60118 -8.00205,8.00184c0,4.40108 3.60088,8.00225 8.00205,8.00225c4.40105,0 8.00205,-3.60118 8.00205,-8.00225zM60.00744,42.0025v6.00169c0,0.60013 -0.40009,1.00008 -1.00021,1.00008h-2.10056c-0.40009,0 -0.70015,0.19977 -0.90019,0.60054v0.09907c-0.10002,0.30047 0,0.70042 0.20004,0.9006l1.50043,1.50073c0.40009,0.39995 0.40009,1.00008 0,1.40003l-4.20113,4.2013c-0.40009,0.39995 -1.00033,0.39995 -1.4003,0l-1.50043,-1.50073c-0.30006,-0.29966 -0.70015,-0.29966 -1.00021,-0.20018c-0.40009,0.20018 -0.60013,0.50024 -0.60013,0.90019v2.10086c0,0.60013 -0.40009,1.00049 -1.00021,1.00049h-6.00151c-0.60013,0 -1.00021,-0.40036 -1.00021,-1.00049v-2.10086c0,-0.39995 -0.20004,-0.70001 -0.60013,-0.90019h-0.10002c-0.30006,-0.09948 -0.70004,0 -0.90019,0.20018l-1.50032,1.50073c-0.4002,0.39995 -1.00033,0.39995 -1.40041,0l-4.20101,-4.2013c-0.40009,-0.39995 -0.40009,-1.00008 0,-1.40003l1.50032,-1.50073c0.30006,-0.30006 0.30006,-0.70001 0.20016,-0.99967c-0.20016,-0.40076 -0.50022,-0.60054 -0.90031,-0.60054h-2.10045c-0.60024,0 -1.00021,-0.39995 -1.00021,-1.00008v-6.00169c0,-0.60013 0.39997,-1.00008 1.00021,-1.00008h2.10045c0.40009,0 0.70015,-0.20018 0.90031,-0.60054v-0.09948c0.09991,-0.30006 0,-0.70042 -0.20016,-0.90019l-1.50032,-1.50073c-0.40009,-0.40036 -0.40009,-1.00008 0,-1.40043l4.20101,-4.2009c0.4002,-0.40036 1.00033,-0.40036 1.40041,0l1.50032,1.50073c0.30006,0.29925 0.70015,0.29925 1.00021,0.19977c0.40009,-0.19977 0.60013,-0.50024 0.60013,-0.90019v-2.10086c0,-0.60013 0.40009,-1.00049 1.00021,-1.00049h6.00151c0.60013,0 1.00021,0.40036 1.00021,1.00049v2.10086c0,0.39995 0.20004,0.70042 0.60013,0.90019h0.10002c0.30006,0.09948 0.70015,0 0.90019,-0.19977l1.50043,-1.50073c0.40009,-0.40036 1.00033,-0.40036 1.4003,0l4.20113,4.2009c0.40009,0.40036 0.40009,1.00008 0,1.40043l-1.50043,1.50073c-0.30006,0.29966 -0.30006,0.69961 -0.20004,0.99967c0.20004,0.40036 0.50011,0.60054 0.90019,0.60054h2.10056c0.60013,0 1.00021,0.39995 1.00021,1.00008zM58.00678,47.0037v-4.00113h-1.10035c-1.20026,0 -2.30061,-0.70001 -2.70069,-1.80038c-0.50011,-1.10037 -0.20004,-2.40092 0.60013,-3.20123l0.70015,-0.70001l-2.8006,-2.80046l-0.70015,0.60013c-0.80029,0.80031 -2.10056,1.10037 -3.2008,0.60013c-1.10035,-0.50024 -1.8005,-1.50032 -1.8005,-2.70098v-0.99967h-4.00097v1.09996c0,1.20026 -0.70015,2.30103 -1.80038,2.70098c-1.10035,0.50024 -2.40063,0.19977 -3.20091,-0.60054l-0.70015,-0.70001l-2.8006,2.80087l0.80017,0.80031c0.80029,0.80031 1.10035,2.10004 0.60024,3.20041c-0.50022,1.10078 -1.50043,1.80038 -2.70069,1.80038h-1.20037v4.00153h1.10035c1.20026,0 2.30061,0.70001 2.70069,1.80038c0.50011,1.10037 0.20004,2.4001 -0.60013,3.20082l-0.70015,0.69961l2.8006,2.80128l0.80029,-0.80031c0.80029,-0.80031 2.10056,-1.10037 3.2008,-0.60013c1.10035,0.50024 1.8005,1.50073 1.8005,2.70058v1.09996h3.90095v-1.09996c0,-1.19985 0.70015,-2.30063 1.8005,-2.70058c1.10023,-0.50024 2.40051,-0.20018 3.2008,0.60013l0.70015,0.70001l2.8006,-2.80046l-0.60013,-0.70042c-0.80017,-0.7999 -1.10023,-2.10045 -0.60013,-3.20082c0.50022,-1.10037 1.50032,-1.80038 2.70069,-1.80038zM52.00539,45.00314c0,3.90124 -3.10078,7.00177 -7.00172,7.00177c-3.90095,0 -7.00172,-3.10053 -7.00172,-7.00177c0,-3.90124 3.10078,-7.00177 7.00172,-7.00177c3.90095,0 7.00172,3.10053 7.00172,7.00177zM50.00496,45.00314c0,-2.80087 -2.20058,-5.0012 -5.0013,-5.0012c-2.80071,0 -5.0013,2.20033 -5.0013,5.0012c0,2.80087 2.2007,5.00161 5.0013,5.00161c2.80071,0 5.0013,-2.20074 5.0013,-5.00161zM30.40009,34.50089c-0.4002,0.39995 -1.00033,0.39995 -1.4003,0l-0.20016,-0.20018c-0.90019,-0.90019 -2.30061,-1.20026 -3.60088,-0.60013c-1.30028,0.50024 -2.10056,1.7005 -2.10056,3.00064v0.29966c-0.10002,0.60054 -0.50011,1.00049 -1.10023,1.00049h-6.00151c-0.60013,0 -1.00021,-0.39995 -1.00021,-1.00049v-0.19977c0,-1.30055 -0.80029,-2.5004 -2.10056,-3.00023c-1.30028,-0.60054 -2.8006,-0.30047 -3.7009,0.59972l-0.20004,0.20018c-0.4002,0.39954 -1.00033,0.39954 -1.40041,0l-4.20101,-4.2013c-0.40009,-0.40036 -0.40009,-1.00049 0,-1.40043l0.20004,-0.19977c0.90031,-0.9006 1.20037,-2.30063 0.60024,-3.60077c-0.50022,-1.30055 -1.70048,-2.10086 -3.00076,-2.10086h-0.20016c-0.60013,0 -1.00021,-0.39995 -1.00021,-1.00008v-6.00128c0,-0.60013 0.40009,-1.00008 1.00021,-1.00008h0.20016c1.30028,0 2.50053,-0.80071 3.00076,-2.10086c0.60013,-1.30014 0.30006,-2.80087 -0.60024,-3.70106l-0.20004,-0.20018c-0.40009,-0.39995 -0.40009,-1.00008 0,-1.40043l4.20101,-4.2009c0.4002,-0.39995 1.00033,-0.39995 1.40041,0l0.20004,0.20018c0.90031,0.89978 2.30061,1.20026 3.601,0.59972c1.30028,-0.49984 2.10045,-1.70009 2.10045,-3.00023v-0.30047c0,-0.59972 0.40009,-1.00049 1.00021,-1.00049h6.00151c0.60013,0 1.00021,0.40076 1.00021,1.00049v0.20018c0,1.30014 0.80029,2.50081 2.10056,3.00105c1.30028,0.59972 2.8006,0.29966 3.70079,-0.60054l0.20016,-0.19977c0.4002,-0.40036 1.00033,-0.40036 1.40041,0l4.20101,4.2009c0.40009,0.40036 0.40009,1.00008 0,1.40084l-0.20016,0.19977c-0.90019,0.90019 -1.20026,2.30063 -0.60013,3.60077c0.50022,1.30055 1.70048,2.10045 3.00076,2.10045h0.30006c0.60024,0 1.00021,0.40036 1.00021,1.00049v6.00128c0,0.60013 -0.39997,1.00008 -1.00021,1.00008h-0.20004c-1.30028,0 -2.50065,0.80031 -3.00076,2.10086c-0.60013,1.30055 -0.30006,2.80046 0.60013,3.70065l0.20016,0.19977c0.39997,0.40076 0.39997,1.00049 0,1.40084zM32.4004,29.59958c-1.10023,-1.50032 -1.30028,-3.401 -0.60013,-5.20138c0.70026,-1.80038 2.30061,-3.00064 4.1011,-3.3007v-4.10101c-1.8005,-0.30047 -3.30082,-1.50032 -4.00097,-3.30111c-0.80017,-1.79998 -0.50011,-3.80054 0.50011,-5.20097l-2.90073,-2.90076c-1.50032,1.10037 -3.40084,1.30055 -5.20123,0.60013c-1.8005,-0.70042 -3.00076,-2.30063 -3.30082,-4.10142h-4.1011c-0.30006,1.80079 -1.50032,3.30152 -3.30082,4.00072c-1.80038,0.80071 -3.80081,0.50024 -5.20123,-0.49984l-2.90062,2.80087c1.10023,1.50073 1.30039,3.40059 0.60013,5.20138c-0.70026,1.80038 -2.30061,3.00064 -4.1011,3.3007v4.10101c1.8005,0.30006 3.30082,1.50032 4.00097,3.3007c0.80017,1.80079 0.50011,3.80095 -0.50011,5.20138l2.90073,2.90116c1.50032,-1.10037 3.40084,-1.30055 5.20123,-0.60013c1.8005,0.90019 3.10078,2.4001 3.30082,4.20049h4.1011c0.30006,-1.80038 1.50032,-3.3003 3.30082,-4.00072c1.80038,-0.80031 3.80081,-0.50024 5.20123,0.49984z" fill="#000000" fill-opacity="0"></path><path d="M28.99956,18.99663c0,5.50145 -4.50108,10.00241 -10.00237,10.00241c-5.5014,0 -10.00248,-4.50096 -10.00248,-10.00241c0,-5.50104 4.50108,-10.002 10.00248,-10.002c5.5014,0 10.00259,4.50096 10.00237,10.002zM26.99924,18.99663c0,-4.40067 -3.601,-8.00184 -8.00205,-8.00184c-4.40117,0 -8.00205,3.60118 -8.00205,8.00184c0,4.40108 3.60088,8.00225 8.00205,8.00225c4.40105,0 8.00205,-3.60118 8.00205,-8.00225zM60.00744,42.0025v6.00169c0,0.60013 -0.40009,1.00008 -1.00021,1.00008h-2.10056c-0.40009,0 -0.70015,0.19977 -0.90019,0.60054v0.09907c-0.10002,0.30047 0,0.70042 0.20004,0.9006l1.50043,1.50073c0.40009,0.39995 0.40009,1.00008 0,1.40003l-4.20113,4.2013c-0.40009,0.39995 -1.00033,0.39995 -1.4003,0l-1.50043,-1.50073c-0.30006,-0.29966 -0.70015,-0.29966 -1.00021,-0.20018c-0.40009,0.20018 -0.60013,0.50024 -0.60013,0.90019v2.10086c0,0.60013 -0.40009,1.00049 -1.00021,1.00049h-6.00151c-0.60013,0 -1.00021,-0.40036 -1.00021,-1.00049v-2.10086c0,-0.39995 -0.20004,-0.70001 -0.60013,-0.90019h-0.10002c-0.30006,-0.09948 -0.70004,0 -0.90019,0.20018l-1.50032,1.50073c-0.4002,0.39995 -1.00033,0.39995 -1.40041,0l-4.20101,-4.2013c-0.40009,-0.39995 -0.40009,-1.00008 0,-1.40003l1.50032,-1.50073c0.30006,-0.30006 0.30006,-0.70001 0.20016,-0.99967c-0.20016,-0.40076 -0.50022,-0.60054 -0.90031,-0.60054h-2.10045c-0.60024,0 -1.00021,-0.39995 -1.00021,-1.00008v-6.00169c0,-0.60013 0.39997,-1.00008 1.00021,-1.00008h2.10045c0.40009,0 0.70015,-0.20018 0.90031,-0.60054v-0.09948c0.09991,-0.30006 0,-0.70042 -0.20016,-0.90019l-1.50032,-1.50073c-0.40009,-0.40036 -0.40009,-1.00008 0,-1.40043l4.20101,-4.2009c0.4002,-0.40036 1.00033,-0.40036 1.40041,0l1.50032,1.50073c0.30006,0.29925 0.70015,0.29925 1.00021,0.19977c0.40009,-0.19977 0.60013,-0.50024 0.60013,-0.90019v-2.10086c0,-0.60013 0.40009,-1.00049 1.00021,-1.00049h6.00151c0.60013,0 1.00021,0.40036 1.00021,1.00049v2.10086c0,0.39995 0.20004,0.70042 0.60013,0.90019h0.10002c0.30006,0.09948 0.70015,0 0.90019,-0.19977l1.50043,-1.50073c0.40009,-0.40036 1.00033,-0.40036 1.4003,0l4.20113,4.2009c0.40009,0.40036 0.40009,1.00008 0,1.40043l-1.50043,1.50073c-0.30006,0.29966 -0.30006,0.69961 -0.20004,0.99967c0.20004,0.40036 0.50011,0.60054 0.90019,0.60054h2.10056c0.60013,0 1.00021,0.39995 1.00021,1.00008zM58.00678,47.0037v-4.00113h-1.10035c-1.20026,0 -2.30061,-0.70001 -2.70069,-1.80038c-0.50011,-1.10037 -0.20004,-2.40092 0.60013,-3.20123l0.70015,-0.70001l-2.8006,-2.80046l-0.70015,0.60013c-0.80029,0.80031 -2.10056,1.10037 -3.2008,0.60013c-1.10035,-0.50024 -1.8005,-1.50032 -1.8005,-2.70098v-0.99967h-4.00097v1.09996c0,1.20026 -0.70015,2.30103 -1.80038,2.70098c-1.10035,0.50024 -2.40063,0.19977 -3.20091,-0.60054l-0.70015,-0.70001l-2.8006,2.80087l0.80017,0.80031c0.80029,0.80031 1.10035,2.10004 0.60024,3.20041c-0.50022,1.10078 -1.50043,1.80038 -2.70069,1.80038h-1.20037v4.00153h1.10035c1.20026,0 2.30061,0.70001 2.70069,1.80038c0.50011,1.10037 0.20004,2.4001 -0.60013,3.20082l-0.70015,0.69961l2.8006,2.80128l0.80029,-0.80031c0.80029,-0.80031 2.10056,-1.10037 3.2008,-0.60013c1.10035,0.50024 1.8005,1.50073 1.8005,2.70058v1.09996h3.90095v-1.09996c0,-1.19985 0.70015,-2.30063 1.8005,-2.70058c1.10023,-0.50024 2.40051,-0.20018 3.2008,0.60013l0.70015,0.70001l2.8006,-2.80046l-0.60013,-0.70042c-0.80017,-0.7999 -1.10023,-2.10045 -0.60013,-3.20082c0.50022,-1.10037 1.50032,-1.80038 2.70069,-1.80038zM52.00539,45.00314c0,3.90124 -3.10078,7.00177 -7.00172,7.00177c-3.90095,0 -7.00172,-3.10053 -7.00172,-7.00177c0,-3.90124 3.10078,-7.00177 7.00172,-7.00177c3.90095,0 7.00172,3.10053 7.00172,7.00177zM50.00496,45.00314c0,-2.80087 -2.20058,-5.0012 -5.0013,-5.0012c-2.80071,0 -5.0013,2.20033 -5.0013,5.0012c0,2.80087 2.2007,5.00161 5.0013,5.00161c2.80071,0 5.0013,-2.20074 5.0013,-5.00161zM30.40009,34.50089c-0.4002,0.39995 -1.00033,0.39995 -1.4003,0l-0.20016,-0.20018c-0.90019,-0.90019 -2.30061,-1.20026 -3.60088,-0.60013c-1.30028,0.50024 -2.10056,1.7005 -2.10056,3.00064v0.29966c-0.10002,0.60054 -0.50011,1.00049 -1.10023,1.00049h-6.00151c-0.60013,0 -1.00021,-0.39995 -1.00021,-1.00049v-0.19977c0,-1.30055 -0.80029,-2.5004 -2.10056,-3.00023c-1.30028,-0.60054 -2.8006,-0.30047 -3.7009,0.59972l-0.20004,0.20018c-0.4002,0.39954 -1.00033,0.39954 -1.40041,0l-4.20101,-4.2013c-0.40009,-0.40036 -0.40009,-1.00049 0,-1.40043l0.20004,-0.19977c0.90031,-0.9006 1.20037,-2.30063 0.60024,-3.60077c-0.50022,-1.30055 -1.70048,-2.10086 -3.00076,-2.10086h-0.20016c-0.60013,0 -1.00021,-0.39995 -1.00021,-1.00008v-6.00128c0,-0.60013 0.40009,-1.00008 1.00021,-1.00008h0.20016c1.30028,0 2.50053,-0.80071 3.00076,-2.10086c0.60013,-1.30014 0.30006,-2.80087 -0.60024,-3.70106l-0.20004,-0.20018c-0.40009,-0.39995 -0.40009,-1.00008 0,-1.40043l4.20101,-4.2009c0.4002,-0.39995 1.00033,-0.39995 1.40041,0l0.20004,0.20018c0.90031,0.89978 2.30061,1.20026 3.601,0.59972c1.30028,-0.49984 2.10045,-1.70009 2.10045,-3.00023v-0.30047c0,-0.59972 0.40009,-1.00049 1.00021,-1.00049h6.00151c0.60013,0 1.00021,0.40076 1.00021,1.00049v0.20018c0,1.30014 0.80029,2.50081 2.10056,3.00105c1.30028,0.59972 2.8006,0.29966 3.70079,-0.60054l0.20016,-0.19977c0.4002,-0.40036 1.00033,-0.40036 1.40041,0l4.20101,4.2009c0.40009,0.40036 0.40009,1.00008 0,1.40084l-0.20016,0.19977c-0.90019,0.90019 -1.20026,2.30063 -0.60013,3.60077c0.50022,1.30055 1.70048,2.10045 3.00076,2.10045h0.30006c0.60024,0 1.00021,0.40036 1.00021,1.00049v6.00128c0,0.60013 -0.39997,1.00008 -1.00021,1.00008h-0.20004c-1.30028,0 -2.50065,0.80031 -3.00076,2.10086c-0.60013,1.30055 -0.30006,2.80046 0.60013,3.70065l0.20016,0.19977c0.39997,0.40076 0.39997,1.00049 0,1.40084zM32.4004,29.59958c-1.10023,-1.50032 -1.30028,-3.401 -0.60013,-5.20138c0.70026,-1.80038 2.30061,-3.00064 4.1011,-3.3007v-4.10101c-1.8005,-0.30047 -3.30082,-1.50032 -4.00097,-3.30111c-0.80017,-1.79998 -0.50011,-3.80054 0.50011,-5.20097l-2.90073,-2.90076c-1.50032,1.10037 -3.40084,1.30055 -5.20123,0.60013c-1.8005,-0.70042 -3.00076,-2.30063 -3.30082,-4.10142h-4.1011c-0.30006,1.80079 -1.50032,3.30152 -3.30082,4.00072c-1.80038,0.80071 -3.80081,0.50024 -5.20123,-0.49984l-2.90062,2.80087c1.10023,1.50073 1.30039,3.40059 0.60013,5.20138c-0.70026,1.80038 -2.30061,3.00064 -4.1011,3.3007v4.10101c1.8005,0.30006 3.30082,1.50032 4.00097,3.3007c0.80017,1.80079 0.50011,3.80095 -0.50011,5.20138l2.90073,2.90116c1.50032,-1.10037 3.40084,-1.30055 5.20123,-0.60013c1.8005,0.90019 3.10078,2.4001 3.30082,4.20049h4.1011c0.30006,-1.80038 1.50032,-3.3003 3.30082,-4.00072c1.80038,-0.80031 3.80081,-0.50024 5.20123,0.49984z" fill="url(#LinearGradient1208)"></path></g></g></svg>
