<?xml version="1.0" encoding="UTF-8"?>
<svg id="SVGDoc" width="60" height="60" xmlns="http://www.w3.org/2000/svg" version="1.1" xmlns:xlink="http://www.w3.org/1999/xlink" xmlns:avocode="https://avocode.com/" viewBox="0 0 60 60"><defs><linearGradient id="LinearGradient1233" gradientUnits="userSpaceOnUse" x1="29.987449407577515" y1="59.986849293112755" x2="30.012401342391968" y2="0.011950001120567322"><stop stop-opacity="1" stop-color="#f26725" offset="0"></stop><stop stop-opacity="1" stop-color="#ffb62a" offset="1"></stop></linearGradient></defs><desc>Generated with Avocode.</desc><g><g><title>Forma 1</title><path d="M59.98745,0.01195v49.73481l-10.24029,10.24009h-30.38795v-14.50989h-8.38394c-1.03992,0 -2.07104,-0.34328 -2.90199,-0.96705l-1.80508,-1.35477c-0.49919,-0.37386 -1.11729,-0.58015 -1.74122,-0.58015h-2.57984v1.93492h-1.93474v-18.37974h1.93474v1.93452h2.26639c0.77591,0 1.50421,-0.3021 2.05273,-0.84964l2.21809,-2.21786c2.02274,-2.02258 3.13614,-4.71174 3.13614,-7.57336c0,-1.59939 1.30199,-2.90198 2.90199,-2.90198c1.6,0 2.90211,1.30259 2.90211,2.90198v3.58935c0,2.23417 -0.6617,4.3864 -1.91437,6.23326c-0.01362,0.05422 -0.02037,0.10804 -0.02037,0.16308c0,0.36081 0.29411,0.65517 0.65495,0.65517h3.21442v-28.05273zM17.42458,30.96666c0,0.53367 0.43327,0.96746 0.96725,0.96746h6.77135c0.53398,0 0.96737,-0.43379 0.96737,-0.96746c0,-0.53286 -0.43339,-0.96746 -0.96737,-0.96746h-6.77135c-0.53398,0 -0.96725,0.4346 -0.96725,0.96746zM17.42458,34.8361c0,0.53408 0.43327,0.96746 0.96725,0.96746h6.77135c0.53398,0 0.96737,-0.43338 0.96737,-0.96746c0,-0.53367 -0.43339,-0.96746 -0.96737,-0.96746h-6.77135c-0.53398,0 -0.96725,0.43379 -0.96725,0.96746zM17.42458,38.70513c0,0.53408 0.43327,0.96746 0.96725,0.96746h6.77135c0.53398,0 0.96737,-0.43338 0.96737,-0.96746c0,-0.53367 -0.43339,-0.96746 -0.96737,-0.96746h-6.77135c-0.53398,0 -0.96725,0.43379 -0.96725,0.96746zM15.48985,34.8361c0,-0.74608 0.29022,-1.42 0.75451,-1.93452c-0.46337,-0.51451 -0.75451,-1.18884 -0.75451,-1.93492c0,-0.35796 0.07347,-0.69757 0.19249,-1.01353c-1.20724,-0.21975 -2.12711,-1.27323 -2.12711,-2.54361c0,-0.32983 0.06191,-0.65272 0.18562,-0.96053l0.10448,-0.19406c1.07574,-1.54639 1.64452,-3.3586 1.64452,-5.24174v-3.58935c0,-0.53286 -0.43339,-0.96705 -0.96737,-0.96705c-0.53398,0 -0.96725,0.4342 -0.96725,0.96705c0,3.37817 -1.3147,6.5533 -3.70308,8.94118l-2.21809,2.21786c-0.91312,0.91324 -2.12814,1.41634 -3.42052,1.41634h-2.26639v10.64127h2.57984c1.03992,0 2.07104,0.34328 2.90199,0.96705l1.80508,1.35437c0.49919,0.37426 1.11729,0.58056 1.74122,0.58056h4.69254c-0.10826,-0.30414 -0.17796,-0.62704 -0.17796,-0.96746c0,-0.74649 0.29022,-1.42041 0.75451,-1.93452c-0.46337,-0.51492 -0.75451,-1.18884 -0.75451,-1.93533c0,-0.74568 0.29022,-1.42 0.75451,-1.93452c-0.46337,-0.51451 -0.75451,-1.18843 -0.75451,-1.93452zM25.16319,43.54244c0.53398,0 0.96737,-0.43379 0.96737,-0.96746c0,-0.53408 -0.43339,-0.96746 -0.96737,-0.96746h-6.77135c-0.53398,0 -0.96725,0.43338 -0.96725,0.96746c0,0.53367 0.43327,0.96746 0.96725,0.96746zM56.68491,50.31345h-6.37081v6.37106zM58.05283,1.94647h-36.759v26.11821h3.86936c1.6,0 2.90211,1.30177 2.90211,2.90198c0,0.74608 -0.29022,1.42041 -0.75451,1.93492c0.46326,0.51451 0.75451,1.18843 0.75451,1.93452c0,0.74608 -0.29022,1.42 -0.75451,1.93452c0.46326,0.51451 0.75451,1.18884 0.75451,1.93452c0,0.74649 -0.29022,1.42041 -0.75451,1.93533c0.46326,0.5141 0.75451,1.18803 0.75451,1.93452c0,1.60021 -1.30211,2.90198 -2.90211,2.90198h-3.86936v12.57497h27.08553v-9.67299h9.67346zM43.25928,22.94443l-3.58589,3.58568v7.33852h-9.67346v-9.67299h9.27292l2.61864,-2.61863zM37.73865,28.46504l-2.90199,2.90198l-2.61864,-2.61822l1.3678,-1.36782l1.25084,1.2504l2.50156,-2.50121h-5.40356v5.80396h5.80399zM39.67339,36.77061v9.67381h-9.67346v-9.67381zM37.73865,38.70513h-5.80399v5.80477h5.80399zM44.51,24.19565h11.60809v1.93452h-11.60809zM44.51,31.93412h11.60809v1.93452h-11.60809zM44.51,28.06468h4.83673v1.93452h-4.83673zM51.28136,28.06468h4.83673v1.93452h-4.83673zM44.51,36.77061h11.60809v1.93452h-11.60809zM44.51,44.5099h11.60809v1.93452h-11.60809zM44.51,40.64046h4.83673v1.93452h-4.83673zM51.28136,40.64046h4.83673v1.93452h-4.83673zM34.28917,6.61295l-1.40556,2.4001l-0.20805,2.86243l-2.67563,-0.68126l-2.67471,0.68004l-0.20794,-2.86243l-1.40556,-2.4001l2.49001,-1.07836l1.79821,-2.22317l1.79924,2.22439zM31.51478,7.51926l-0.92182,-0.39954l-0.59303,-0.73304l-0.59395,0.73222l-0.92182,0.39954l0.52906,0.90427l0.0745,1.00742l0.91221,-0.23239l0.91324,0.23239l0.07347,-1.00742zM43.96252,6.61295l-1.40556,2.4001l-0.20794,2.86243l-2.67563,-0.68126l-2.67574,0.68126l-0.20702,-2.86366l-1.40545,-2.4001l2.48989,-1.07836l1.79832,-2.22317l1.79924,2.22439zM41.18824,7.51926l-0.92194,-0.39954l-0.59292,-0.73304l-0.59303,0.73304l-0.92285,0.39873l0.52917,0.90427l0.0745,1.00742l0.91221,-0.23239l0.91312,0.23239l0.07347,-1.00742zM39.12579,14.35183l-1.40556,2.3997l-0.20794,2.86243l-2.67563,-0.68085l-2.67563,0.68004l-0.20805,-2.86243l-1.40556,-2.3997l2.49092,-1.07876l1.79832,-2.22357l1.79924,2.22439zM36.35151,15.25814l-0.92194,-0.39913l-0.59292,-0.73385l-0.59303,0.73385l-0.92182,0.39832l0.52917,0.90427l0.07347,1.00701l0.91221,-0.23198l0.91221,0.23279l0.07347,-1.0066zM48.79925,14.35183l-1.40556,2.3997l-0.20794,2.86243l-2.67574,-0.68085l-2.67563,0.68004l-0.20794,-2.86243l-1.40556,-2.3997l2.49092,-1.07876l1.79821,-2.22357l1.79924,2.22439zM46.02486,15.25814l-0.92182,-0.39913l-0.59303,-0.73385l-0.59292,0.73385l-0.92194,0.39832l0.52917,0.90427l0.07347,1.00701l0.91221,-0.23198l0.91221,0.23279l0.07359,-1.0066zM53.63586,6.61295l-1.40545,2.4001l-0.20805,2.86243l-2.67563,-0.68126l-2.67563,0.68126l-0.20702,-2.86366l-1.40556,-2.4001l2.48989,-1.07836l1.79832,-2.22317l1.79924,2.22439zM50.86159,7.51926l-0.92182,-0.39954l-0.59303,-0.73304l-0.59303,0.73304l-0.92274,0.39873l0.52906,0.90427l0.0745,1.00742l0.91221,-0.23239l0.91312,0.23239l0.07359,-1.00742z" fill="#000000" fill-opacity="0"></path><path d="M59.98745,0.01195v49.73481l-10.24029,10.24009h-30.38795v-14.50989h-8.38394c-1.03992,0 -2.07104,-0.34328 -2.90199,-0.96705l-1.80508,-1.35477c-0.49919,-0.37386 -1.11729,-0.58015 -1.74122,-0.58015h-2.57984v1.93492h-1.93474v-18.37974h1.93474v1.93452h2.26639c0.77591,0 1.50421,-0.3021 2.05273,-0.84964l2.21809,-2.21786c2.02274,-2.02258 3.13614,-4.71174 3.13614,-7.57336c0,-1.59939 1.30199,-2.90198 2.90199,-2.90198c1.6,0 2.90211,1.30259 2.90211,2.90198v3.58935c0,2.23417 -0.6617,4.3864 -1.91437,6.23326c-0.01362,0.05422 -0.02037,0.10804 -0.02037,0.16308c0,0.36081 0.29411,0.65517 0.65495,0.65517h3.21442v-28.05273zM17.42458,30.96666c0,0.53367 0.43327,0.96746 0.96725,0.96746h6.77135c0.53398,0 0.96737,-0.43379 0.96737,-0.96746c0,-0.53286 -0.43339,-0.96746 -0.96737,-0.96746h-6.77135c-0.53398,0 -0.96725,0.4346 -0.96725,0.96746zM17.42458,34.8361c0,0.53408 0.43327,0.96746 0.96725,0.96746h6.77135c0.53398,0 0.96737,-0.43338 0.96737,-0.96746c0,-0.53367 -0.43339,-0.96746 -0.96737,-0.96746h-6.77135c-0.53398,0 -0.96725,0.43379 -0.96725,0.96746zM17.42458,38.70513c0,0.53408 0.43327,0.96746 0.96725,0.96746h6.77135c0.53398,0 0.96737,-0.43338 0.96737,-0.96746c0,-0.53367 -0.43339,-0.96746 -0.96737,-0.96746h-6.77135c-0.53398,0 -0.96725,0.43379 -0.96725,0.96746zM15.48985,34.8361c0,-0.74608 0.29022,-1.42 0.75451,-1.93452c-0.46337,-0.51451 -0.75451,-1.18884 -0.75451,-1.93492c0,-0.35796 0.07347,-0.69757 0.19249,-1.01353c-1.20724,-0.21975 -2.12711,-1.27323 -2.12711,-2.54361c0,-0.32983 0.06191,-0.65272 0.18562,-0.96053l0.10448,-0.19406c1.07574,-1.54639 1.64452,-3.3586 1.64452,-5.24174v-3.58935c0,-0.53286 -0.43339,-0.96705 -0.96737,-0.96705c-0.53398,0 -0.96725,0.4342 -0.96725,0.96705c0,3.37817 -1.3147,6.5533 -3.70308,8.94118l-2.21809,2.21786c-0.91312,0.91324 -2.12814,1.41634 -3.42052,1.41634h-2.26639v10.64127h2.57984c1.03992,0 2.07104,0.34328 2.90199,0.96705l1.80508,1.35437c0.49919,0.37426 1.11729,0.58056 1.74122,0.58056h4.69254c-0.10826,-0.30414 -0.17796,-0.62704 -0.17796,-0.96746c0,-0.74649 0.29022,-1.42041 0.75451,-1.93452c-0.46337,-0.51492 -0.75451,-1.18884 -0.75451,-1.93533c0,-0.74568 0.29022,-1.42 0.75451,-1.93452c-0.46337,-0.51451 -0.75451,-1.18843 -0.75451,-1.93452zM25.16319,43.54244c0.53398,0 0.96737,-0.43379 0.96737,-0.96746c0,-0.53408 -0.43339,-0.96746 -0.96737,-0.96746h-6.77135c-0.53398,0 -0.96725,0.43338 -0.96725,0.96746c0,0.53367 0.43327,0.96746 0.96725,0.96746zM56.68491,50.31345h-6.37081v6.37106zM58.05283,1.94647h-36.759v26.11821h3.86936c1.6,0 2.90211,1.30177 2.90211,2.90198c0,0.74608 -0.29022,1.42041 -0.75451,1.93492c0.46326,0.51451 0.75451,1.18843 0.75451,1.93452c0,0.74608 -0.29022,1.42 -0.75451,1.93452c0.46326,0.51451 0.75451,1.18884 0.75451,1.93452c0,0.74649 -0.29022,1.42041 -0.75451,1.93533c0.46326,0.5141 0.75451,1.18803 0.75451,1.93452c0,1.60021 -1.30211,2.90198 -2.90211,2.90198h-3.86936v12.57497h27.08553v-9.67299h9.67346zM43.25928,22.94443l-3.58589,3.58568v7.33852h-9.67346v-9.67299h9.27292l2.61864,-2.61863zM37.73865,28.46504l-2.90199,2.90198l-2.61864,-2.61822l1.3678,-1.36782l1.25084,1.2504l2.50156,-2.50121h-5.40356v5.80396h5.80399zM39.67339,36.77061v9.67381h-9.67346v-9.67381zM37.73865,38.70513h-5.80399v5.80477h5.80399zM44.51,24.19565h11.60809v1.93452h-11.60809zM44.51,31.93412h11.60809v1.93452h-11.60809zM44.51,28.06468h4.83673v1.93452h-4.83673zM51.28136,28.06468h4.83673v1.93452h-4.83673zM44.51,36.77061h11.60809v1.93452h-11.60809zM44.51,44.5099h11.60809v1.93452h-11.60809zM44.51,40.64046h4.83673v1.93452h-4.83673zM51.28136,40.64046h4.83673v1.93452h-4.83673zM34.28917,6.61295l-1.40556,2.4001l-0.20805,2.86243l-2.67563,-0.68126l-2.67471,0.68004l-0.20794,-2.86243l-1.40556,-2.4001l2.49001,-1.07836l1.79821,-2.22317l1.79924,2.22439zM31.51478,7.51926l-0.92182,-0.39954l-0.59303,-0.73304l-0.59395,0.73222l-0.92182,0.39954l0.52906,0.90427l0.0745,1.00742l0.91221,-0.23239l0.91324,0.23239l0.07347,-1.00742zM43.96252,6.61295l-1.40556,2.4001l-0.20794,2.86243l-2.67563,-0.68126l-2.67574,0.68126l-0.20702,-2.86366l-1.40545,-2.4001l2.48989,-1.07836l1.79832,-2.22317l1.79924,2.22439zM41.18824,7.51926l-0.92194,-0.39954l-0.59292,-0.73304l-0.59303,0.73304l-0.92285,0.39873l0.52917,0.90427l0.0745,1.00742l0.91221,-0.23239l0.91312,0.23239l0.07347,-1.00742zM39.12579,14.35183l-1.40556,2.3997l-0.20794,2.86243l-2.67563,-0.68085l-2.67563,0.68004l-0.20805,-2.86243l-1.40556,-2.3997l2.49092,-1.07876l1.79832,-2.22357l1.79924,2.22439zM36.35151,15.25814l-0.92194,-0.39913l-0.59292,-0.73385l-0.59303,0.73385l-0.92182,0.39832l0.52917,0.90427l0.07347,1.00701l0.91221,-0.23198l0.91221,0.23279l0.07347,-1.0066zM48.79925,14.35183l-1.40556,2.3997l-0.20794,2.86243l-2.67574,-0.68085l-2.67563,0.68004l-0.20794,-2.86243l-1.40556,-2.3997l2.49092,-1.07876l1.79821,-2.22357l1.79924,2.22439zM46.02486,15.25814l-0.92182,-0.39913l-0.59303,-0.73385l-0.59292,0.73385l-0.92194,0.39832l0.52917,0.90427l0.07347,1.00701l0.91221,-0.23198l0.91221,0.23279l0.07359,-1.0066zM53.63586,6.61295l-1.40545,2.4001l-0.20805,2.86243l-2.67563,-0.68126l-2.67563,0.68126l-0.20702,-2.86366l-1.40556,-2.4001l2.48989,-1.07836l1.79832,-2.22317l1.79924,2.22439zM50.86159,7.51926l-0.92182,-0.39954l-0.59303,-0.73304l-0.59303,0.73304l-0.92274,0.39873l0.52906,0.90427l0.0745,1.00742l0.91221,-0.23239l0.91312,0.23239l0.07359,-1.00742z" fill="url(#LinearGradient1233)"></path></g></g></svg>
