<?xml version="1.0" encoding="UTF-8"?>
<svg id="SVGDoc" width="60" height="60" xmlns="http://www.w3.org/2000/svg" version="1.1" xmlns:xlink="http://www.w3.org/1999/xlink" xmlns:avocode="https://avocode.com/" viewBox="0 0 60 60"><defs><linearGradient id="LinearGradient1183" gradientUnits="userSpaceOnUse" x1="29.987364005297422" y1="60.00275182723999" x2="30.01258296892047" y2="-0.003954410552978516"><stop stop-opacity="1" stop-color="#f26725" offset="0"></stop><stop stop-opacity="1" stop-color="#ffb62a" offset="1"></stop></linearGradient></defs><desc>Generated with Avocode.</desc><g><g><title>Forma 1</title><path d="M59.98721,29.9996c0,16.57039 -13.42575,30.00315 -29.9873,30.00315c-16.56155,0 -29.98718,-13.43276 -29.98718,-30.00315c-0.02026,-6.48766 2.08649,-12.80369 5.99739,-17.97898v-3.02347c0.00172,-1.65647 1.34331,-2.99901 2.9987,-3.00064h3.02193c10.64495,-8.00062 25.29339,-8.00062 35.93834,0h3.02193c1.65539,0.00163 2.99698,1.34417 2.9987,3.00064v3.02347c3.9109,5.17529 6.01765,11.49131 5.99751,17.97898zM15.57051,5.99651h28.8588c-4.35104,-2.63453 -9.34364,-4.01866 -14.4294,-4.00031c-5.08575,-0.01835 -10.07824,1.36578 -14.4294,4.00031zM8.00928,35.99966h43.98125v-27.00251c-0.00034,-0.55202 -0.44758,-0.99926 -0.99953,-0.99967h-41.98219c-0.55183,0.00041 -0.99918,0.44765 -0.99953,0.99967zM8.00928,39.00071c0.00034,0.55161 0.44769,0.99967 0.99953,1.00008h41.98231c0.55183,-0.00041 0.99918,-0.44847 0.99953,-1.00008v-1.00008h-43.98136zM26.00169,46.00125c-2.37396,0.00326 -4.41925,1.674 -4.89727,4.00031h17.79121c-0.47802,-2.32631 -2.52342,-3.99705 -4.89727,-4.00031zM32.9986,44.0011v-2.00016h-5.99739v2.00016zM57.98792,29.9992c0.01831,-5.08845 -1.36505,-10.08313 -3.99834,-14.43732v23.43884c-0.00172,1.65606 -1.34331,2.9986 -2.9987,3.00023h-15.99312v2.08006c3.43826,0.49902 5.99098,3.44462 5.99739,6.92104c0.00011,0.265 -0.10506,0.51981 -0.29263,0.70694c-0.18734,0.18754 -0.44163,0.29313 -0.7069,0.29313h-19.99157c-0.26505,0 -0.51933,-0.10559 -0.7069,-0.29313c-0.18757,-0.18672 -0.29274,-0.44194 -0.29263,-0.70694c0.00629,-3.47642 2.55913,-6.42202 5.99751,-6.92104v-2.08006h-15.99323c-1.65539,-0.00163 -2.99698,-1.34417 -2.9987,-3.00023v-23.43884c-2.63317,4.35419 -4.01653,9.34887 -3.99822,14.43732c0.01728,15.45901 12.5378,27.98628 27.98801,28.0034c15.45021,-0.01712 27.97085,-12.54439 27.98801,-28.0034zM39.9264,16.65327c0.0436,0.10967 0.06718,0.22627 0.06947,0.34491v10.00078c-0.00561,0.04322 -0.01419,0.08562 -0.02563,0.1272c-0.00767,0.13372 -0.05173,0.26337 -0.12772,0.37345c-0.02941,0.05463 -0.0642,0.10641 -0.10368,0.15411c-0.04852,0.05137 -0.10265,0.09744 -0.16125,0.13739c-0.03021,0.02935 -0.06237,0.05708 -0.09613,0.08235l-8.98109,4.99183l-0.0016,0.00082l-0.01362,0.00775c-0.04578,0.02283 -0.09338,0.04158 -0.14214,0.05667c-0.02998,0.01142 -0.05791,0.02732 -0.08915,0.03547c-0.08274,0.02242 -0.16811,0.03343 -0.25383,0.03384l-0.00046,-0.00041l-0.00046,0.00041c-0.12005,0.0053 -0.23964,-0.01916 -0.3479,-0.07175c-0.04658,-0.01468 -0.09224,-0.03262 -0.13607,-0.05422l-0.01991,-0.01142l-0.00172,-0.00082l-0.00103,-0.00041l-8.97366,-4.98816c-0.03387,-0.02487 -0.06603,-0.053 -0.09624,-0.08195c-0.05848,-0.03995 -0.11261,-0.08602 -0.16125,-0.13739c-0.07645,-0.10029 -0.1403,-0.20915 -0.19032,-0.32453c-0.02083,-0.06605 -0.03456,-0.13413 -0.04108,-0.20303c-0.01144,-0.04199 -0.02003,-0.08439 -0.02563,-0.1272v-10.00078c0.0024,-0.11905 0.02598,-0.23524 0.06958,-0.34532c0.01076,-0.02935 0.02209,-0.05626 0.03536,-0.08399c0.04429,-0.0954 0.10334,-0.18306 0.17498,-0.25929c0.00629,-0.00693 0.01041,-0.01549 0.01705,-0.02202c0.06454,-0.06401 0.13779,-0.11945 0.21744,-0.16389l8.9962,-5.0008c0.03273,-0.01223 0.06626,-0.02324 0.10025,-0.0318c0.06374,-0.02854 0.13046,-0.04974 0.1989,-0.06401c0.12302,-0.02161 0.24891,-0.02161 0.37193,0c0.06832,0.01427 0.13504,0.03506 0.1989,0.06401c0.03387,0.00856 0.06741,0.01957 0.10025,0.0318l8.9962,5.0008c0.07965,0.04444 0.15278,0.09989 0.21732,0.16389c0.00675,0.00652 0.01076,0.01508 0.01717,0.02202c0.07164,0.07624 0.13058,0.16389 0.17475,0.25929c0.01339,0.02772 0.02483,0.05504 0.03582,0.08439zM29.00038,22.58688l-6.99703,-3.88942v7.7136l6.99703,3.88942zM36.93743,16.99819l-6.93752,-3.8568l-6.93741,3.8568l6.93741,3.85639zM37.99658,18.69746l-6.99703,3.88942v7.7136l6.99703,-3.88942z" fill="#000000" fill-opacity="0"></path><path d="M59.98721,29.9996c0,16.57039 -13.42575,30.00315 -29.9873,30.00315c-16.56155,0 -29.98718,-13.43276 -29.98718,-30.00315c-0.02026,-6.48766 2.08649,-12.80369 5.99739,-17.97898v-3.02347c0.00172,-1.65647 1.34331,-2.99901 2.9987,-3.00064h3.02193c10.64495,-8.00062 25.29339,-8.00062 35.93834,0h3.02193c1.65539,0.00163 2.99698,1.34417 2.9987,3.00064v3.02347c3.9109,5.17529 6.01765,11.49131 5.99751,17.97898zM15.57051,5.99651h28.8588c-4.35104,-2.63453 -9.34364,-4.01866 -14.4294,-4.00031c-5.08575,-0.01835 -10.07824,1.36578 -14.4294,4.00031zM8.00928,35.99966h43.98125v-27.00251c-0.00034,-0.55202 -0.44758,-0.99926 -0.99953,-0.99967h-41.98219c-0.55183,0.00041 -0.99918,0.44765 -0.99953,0.99967zM8.00928,39.00071c0.00034,0.55161 0.44769,0.99967 0.99953,1.00008h41.98231c0.55183,-0.00041 0.99918,-0.44847 0.99953,-1.00008v-1.00008h-43.98136zM26.00169,46.00125c-2.37396,0.00326 -4.41925,1.674 -4.89727,4.00031h17.79121c-0.47802,-2.32631 -2.52342,-3.99705 -4.89727,-4.00031zM32.9986,44.0011v-2.00016h-5.99739v2.00016zM57.98792,29.9992c0.01831,-5.08845 -1.36505,-10.08313 -3.99834,-14.43732v23.43884c-0.00172,1.65606 -1.34331,2.9986 -2.9987,3.00023h-15.99312v2.08006c3.43826,0.49902 5.99098,3.44462 5.99739,6.92104c0.00011,0.265 -0.10506,0.51981 -0.29263,0.70694c-0.18734,0.18754 -0.44163,0.29313 -0.7069,0.29313h-19.99157c-0.26505,0 -0.51933,-0.10559 -0.7069,-0.29313c-0.18757,-0.18672 -0.29274,-0.44194 -0.29263,-0.70694c0.00629,-3.47642 2.55913,-6.42202 5.99751,-6.92104v-2.08006h-15.99323c-1.65539,-0.00163 -2.99698,-1.34417 -2.9987,-3.00023v-23.43884c-2.63317,4.35419 -4.01653,9.34887 -3.99822,14.43732c0.01728,15.45901 12.5378,27.98628 27.98801,28.0034c15.45021,-0.01712 27.97085,-12.54439 27.98801,-28.0034zM39.9264,16.65327c0.0436,0.10967 0.06718,0.22627 0.06947,0.34491v10.00078c-0.00561,0.04322 -0.01419,0.08562 -0.02563,0.1272c-0.00767,0.13372 -0.05173,0.26337 -0.12772,0.37345c-0.02941,0.05463 -0.0642,0.10641 -0.10368,0.15411c-0.04852,0.05137 -0.10265,0.09744 -0.16125,0.13739c-0.03021,0.02935 -0.06237,0.05708 -0.09613,0.08235l-8.98109,4.99183l-0.0016,0.00082l-0.01362,0.00775c-0.04578,0.02283 -0.09338,0.04158 -0.14214,0.05667c-0.02998,0.01142 -0.05791,0.02732 -0.08915,0.03547c-0.08274,0.02242 -0.16811,0.03343 -0.25383,0.03384l-0.00046,-0.00041l-0.00046,0.00041c-0.12005,0.0053 -0.23964,-0.01916 -0.3479,-0.07175c-0.04658,-0.01468 -0.09224,-0.03262 -0.13607,-0.05422l-0.01991,-0.01142l-0.00172,-0.00082l-0.00103,-0.00041l-8.97366,-4.98816c-0.03387,-0.02487 -0.06603,-0.053 -0.09624,-0.08195c-0.05848,-0.03995 -0.11261,-0.08602 -0.16125,-0.13739c-0.07645,-0.10029 -0.1403,-0.20915 -0.19032,-0.32453c-0.02083,-0.06605 -0.03456,-0.13413 -0.04108,-0.20303c-0.01144,-0.04199 -0.02003,-0.08439 -0.02563,-0.1272v-10.00078c0.0024,-0.11905 0.02598,-0.23524 0.06958,-0.34532c0.01076,-0.02935 0.02209,-0.05626 0.03536,-0.08399c0.04429,-0.0954 0.10334,-0.18306 0.17498,-0.25929c0.00629,-0.00693 0.01041,-0.01549 0.01705,-0.02202c0.06454,-0.06401 0.13779,-0.11945 0.21744,-0.16389l8.9962,-5.0008c0.03273,-0.01223 0.06626,-0.02324 0.10025,-0.0318c0.06374,-0.02854 0.13046,-0.04974 0.1989,-0.06401c0.12302,-0.02161 0.24891,-0.02161 0.37193,0c0.06832,0.01427 0.13504,0.03506 0.1989,0.06401c0.03387,0.00856 0.06741,0.01957 0.10025,0.0318l8.9962,5.0008c0.07965,0.04444 0.15278,0.09989 0.21732,0.16389c0.00675,0.00652 0.01076,0.01508 0.01717,0.02202c0.07164,0.07624 0.13058,0.16389 0.17475,0.25929c0.01339,0.02772 0.02483,0.05504 0.03582,0.08439zM29.00038,22.58688l-6.99703,-3.88942v7.7136l6.99703,3.88942zM36.93743,16.99819l-6.93752,-3.8568l-6.93741,3.8568l6.93741,3.85639zM37.99658,18.69746l-6.99703,3.88942v7.7136l6.99703,-3.88942z" fill="url(#LinearGradient1183)"></path></g></g></svg>
