<?xml version="1.0" encoding="UTF-8"?>
<svg id="SVGDoc" width="60" height="60" xmlns="http://www.w3.org/2000/svg" version="1.1" xmlns:xlink="http://www.w3.org/1999/xlink" xmlns:avocode="https://avocode.com/" viewBox="0 0 60 60"><defs><linearGradient id="LinearGradient1258" gradientUnits="userSpaceOnUse" x1="30.017248302698135" y1="60.008238554000854" x2="30.024950176477432" y2="-0.011433839797973633"><stop stop-opacity="1" stop-color="#f26725" offset="0"></stop><stop stop-opacity="1" stop-color="#ffb62a" offset="1"></stop></linearGradient></defs><desc>Generated with Avocode.</desc><g><g><title>Forma 1</title><path d="M60.01725,47.87683v2.26393c0.00023,0.39587 -0.23403,0.75505 -0.59715,0.91487l-1.38222,0.6091c-0.05367,0.19325 -0.11238,0.37875 -0.17487,0.55977l0.77019,1.32583c0.17693,0.30536 0.1799,0.68167 0.0079,0.98989c-0.40524,0.72081 -0.88852,1.39554 -1.44093,2.01076c-0.24193,0.27193 -0.61363,0.39016 -0.96863,0.3074l-1.45454,-0.33146c-0.14271,0.1113 -0.28931,0.21934 -0.43991,0.32371l-0.14076,1.54109c-0.03227,0.35551 -0.25211,0.66658 -0.57667,0.81621c-0.74192,0.34613 -1.52069,0.60706 -2.32155,0.7787c-0.06752,0.01345 -0.13641,0.02079 -0.20531,0.02079c-0.29148,0.00041 -0.56854,-0.12639 -0.75863,-0.34736l-1.01852,-1.1815h-0.48878l-1.01852,1.1815c-0.23724,0.27683 -0.60699,0.40199 -0.96382,0.32656c-0.80086,-0.17164 -1.57963,-0.43257 -2.32155,-0.7787c-0.32455,-0.14962 -0.5444,-0.46029 -0.57678,-0.81621l-0.14065,-1.54109c-0.1506,-0.10437 -0.29812,-0.21282 -0.44083,-0.32493l-1.4526,0.33268c-0.35511,0.08276 -0.72727,-0.03547 -0.96966,-0.3074c-0.55252,-0.61562 -1.03569,-1.28995 -1.44081,-2.01076c-0.172,-0.30822 -0.16903,-0.68452 0.0079,-0.98989l0.77019,-1.32623c-0.0626,-0.18102 -0.12108,-0.36611 -0.17487,-0.55977l-1.38222,-0.60869c-0.36312,-0.16022 -0.5975,-0.519 -0.59715,-0.91528v-2.26353c-0.00034,-0.39628 0.23403,-0.75546 0.59715,-0.91446l1.38222,-0.60991c0.05402,-0.19284 0.11227,-0.37956 0.17487,-0.56058l-0.76927,-1.3246c-0.17681,-0.30577 -0.17979,-0.68167 -0.00767,-0.98948c0.40432,-0.72121 0.88715,-1.39595 1.43978,-2.01157c0.24239,-0.27153 0.61375,-0.38935 0.96874,-0.3074l1.45454,0.33227c0.14271,-0.11212 0.28931,-0.21975 0.43991,-0.32453l0.14076,-1.54109c0.03227,-0.3547 0.25211,-0.66658 0.57667,-0.81621c0.74192,-0.34654 1.52081,-0.60706 2.32155,-0.77829c0.35683,-0.07705 0.72727,0.04852 0.96382,0.32656l1.01852,1.1815h0.48878l1.01852,-1.1815c0.23712,-0.27723 0.60699,-0.4024 0.96382,-0.32656c0.80086,0.17123 1.57963,0.43216 2.32155,0.77829c0.32444,0.14962 0.5444,0.4611 0.57667,0.81621l0.14076,1.54109c0.1506,0.10519 0.2972,0.21282 0.43991,0.32453l1.45454,-0.33227c0.355,-0.08235 0.72659,0.03547 0.96874,0.3074c0.55252,0.61562 1.03569,1.28995 1.44081,2.01076c0.172,0.30822 0.16903,0.68452 -0.0079,0.99029l-0.77019,1.32542c0.06248,0.18102 0.12108,0.36652 0.17487,0.55977l1.38222,0.60991c0.36312,0.159 0.59738,0.51818 0.59704,0.91446zM58.01556,49.48886v-0.96094l-1.23264,-0.54264c-0.28988,-0.1272 -0.50205,-0.38446 -0.57175,-0.69349c-0.09144,-0.41177 -0.21778,-0.81498 -0.37743,-1.20596c-0.11936,-0.28824 -0.0975,-0.61562 0.05871,-0.88552l0.71262,-1.22635c-0.16136,-0.25073 -0.33531,-0.49413 -0.52208,-0.73059l-1.34113,0.30699c-0.3138,0.07216 -0.64339,-0.01142 -0.88463,-0.22505c-0.31174,-0.27316 -0.64579,-0.5194 -0.99895,-0.73671c-0.26768,-0.16552 -0.4422,-0.44724 -0.47115,-0.75994l-0.13,-1.42775c-0.26871,-0.10519 -0.53867,-0.19732 -0.80738,-0.27356l-0.9169,1.06327c-0.19032,0.22097 -0.46715,0.34776 -0.75851,0.34817h-1.40568c-0.29148,-0.00041 -0.56831,-0.12679 -0.75851,-0.34817l-0.9169,-1.06327c-0.26871,0.07624 -0.53867,0.16838 -0.80738,0.27356l-0.13,1.42775c-0.02895,0.3127 -0.20348,0.59442 -0.47127,0.75994c-0.35305,0.2173 -0.6871,0.46355 -0.99884,0.73671c-0.24124,0.21322 -0.57072,0.2968 -0.88463,0.22505l-1.34113,-0.30699c-0.18677,0.23646 -0.36072,0.48067 -0.52105,0.72937l0.71171,1.22635c0.15644,0.26989 0.17807,0.59687 0.05871,0.88511c-0.15953,0.39139 -0.28576,0.79501 -0.37743,1.20759c-0.06958,0.30903 -0.28175,0.56629 -0.57175,0.69349l-1.23264,0.54264v0.96094l1.23264,0.54305c0.28988,0.1272 0.50205,0.38486 0.57175,0.69349c0.09144,0.41177 0.21778,0.81539 0.37743,1.20556c0.11936,0.28865 0.0975,0.61603 -0.05871,0.88592l-0.71251,1.22635c0.16125,0.25033 0.33531,0.49413 0.52197,0.72978l1.3401,-0.30699c0.31471,-0.07175 0.64465,0.01264 0.88657,0.22586c0.31128,0.27316 0.6451,0.52022 0.99815,0.73711c0.26779,0.16512 0.4422,0.44683 0.47115,0.75954l0.13,1.42816c0.26871,0.10478 0.53867,0.19692 0.80738,0.27316l0.9169,-1.06368c0.1902,-0.22056 0.46703,-0.34736 0.7584,-0.34736h1.40568c0.29137,0 0.5682,0.12679 0.7584,0.34736l0.9169,1.06368c0.26871,-0.07624 0.53867,-0.16838 0.80738,-0.27316l0.13,-1.42816c0.02895,-0.3127 0.20348,-0.59442 0.47115,-0.75954c0.35316,-0.2173 0.68722,-0.46396 0.99895,-0.73711c0.24078,-0.21404 0.57072,-0.29803 0.88463,-0.22464l1.34113,0.30659c0.18677,-0.23728 0.36072,-0.48027 0.52208,-0.73059l-0.71262,-1.22635c-0.15633,-0.26989 -0.17807,-0.59727 -0.05871,-0.88592c0.15965,-0.39016 0.28599,-0.79378 0.37743,-1.20556c0.06958,-0.30863 0.28175,-0.56629 0.57175,-0.69349zM54.07628,49.00859c0,2.76092 -2.24075,4.99957 -5.00484,4.99957c-2.76398,0 -5.00473,-2.23866 -5.00473,-4.99957c0,-2.76132 2.24075,-4.99957 5.00473,-4.99957c2.76283,0.00326 5.00153,2.23988 5.00484,4.99957zM52.07436,49.00859c0,-1.65647 -1.34445,-2.99942 -3.00293,-2.99942c-1.65836,0 -3.00282,1.34295 -3.00282,2.99942c0,1.65647 1.34445,2.99983 3.00282,2.99983c1.65779,-0.00163 3.00098,-1.34417 3.00293,-2.99983zM43.0658,19.01156c0,8.28356 -6.72215,14.99831 -15.01431,14.99831c-8.28838,-0.00856 -15.00526,-6.71842 -15.01431,-14.99831c0,-8.28356 6.72215,-14.99872 15.01431,-14.99872c8.29216,0 15.01431,6.71516 15.01431,14.99872zM31.76099,31.46504c-0.24502,-0.16104 -0.50011,-0.3176 -0.72624,-0.48842c-0.34161,-0.25807 -0.48134,-0.70409 -0.34801,-1.11056l0.45948,-1.39636c-0.18871,-0.17735 -0.37342,-0.36163 -0.55126,-0.55039l-1.39881,0.45907c-0.4073,0.13372 -0.85464,-0.00652 -1.11248,-0.34899c-0.73837,-0.96991 -1.35578,-2.02666 -1.83861,-3.14578c-0.16823,-0.39424 -0.06638,-0.85168 0.25314,-1.13666l1.11237,-0.99641c-0.07519,-0.24869 -0.14259,-0.49984 -0.20233,-0.75057l-1.45054,-0.30496c-0.46326,-0.09703 -0.79468,-0.50554 -0.79479,-0.97847v-3.40997c0.00011,-0.47293 0.33165,-0.88062 0.79479,-0.97806l1.45054,-0.30496c0.05974,-0.25033 0.12714,-0.50187 0.20336,-0.75057l-1.11328,-0.99641c-0.31952,-0.28539 -0.42126,-0.74241 -0.25314,-1.13625c0.48283,-1.12035 1.10104,-2.1771 1.84067,-3.147c0.25921,-0.34002 0.70461,-0.47945 1.11134,-0.34817l1.3979,0.45907c0.17796,-0.18836 0.36255,-0.37304 0.55126,-0.5508l-0.45948,-1.39717c-0.13367,-0.40688 0.00652,-0.85331 0.34904,-1.11097c0.22602,-0.17042 0.48031,-0.32656 0.72475,-0.4872c-1.20335,-0.3604 -2.45281,-0.54427 -3.70914,-0.5455c-1.25782,0 -2.509,0.18224 -3.71452,0.5406c-6.88648,2.04786 -10.807,9.28486 -8.7569,16.16391c2.04998,6.87946 9.29455,10.79619 16.18092,8.74793zM37.71294,27.68814c-3.0978,-0.83211 -5.51765,-3.24934 -6.35044,-6.34415c-1.28941,-4.79165 1.55376,-9.72028 6.35044,-11.00819c-1.03306,-1.15133 -2.26238,-2.11023 -3.63098,-2.83185c-0.43327,0.22097 -0.85464,0.46437 -1.26251,0.72937l0.43304,1.31604c0.1268,0.38731 0.0071,0.81172 -0.30304,1.07591c-0.46165,0.39016 -0.88989,0.81865 -1.28048,1.27976c-0.26436,0.30985 -0.68974,0.42971 -1.07723,0.30373l-1.32248,-0.43501c-0.32787,0.4819 -0.62347,0.9854 -0.88451,1.50603l1.04977,0.93974c0.30384,0.27112 0.41256,0.6992 0.27466,1.08243c-0.20485,0.56751 -0.36209,1.15052 -0.47012,1.74331c-0.07244,0.39995 -0.38052,0.71673 -0.77911,0.80071l-1.29524,0.27234v1.78693l1.29524,0.27275c0.3986,0.08358 0.70667,0.39995 0.77911,0.80031c0.10769,0.59238 0.26493,1.17498 0.47012,1.74086c0.1379,0.38405 0.0293,0.81254 -0.27466,1.08406l-1.04977,0.94055c0.26081,0.52104 0.5563,1.02372 0.88451,1.50562l1.32168,-0.4346c0.38704,-0.12598 0.81207,-0.00693 1.0762,0.30251c0.39104,0.46151 0.81974,0.88959 1.28151,1.27935c0.31094,0.26378 0.43121,0.68901 0.30407,1.07591l-0.43304,1.31645c0.40775,0.26541 0.82924,0.50921 1.26286,0.73059c1.36837,-0.72203 2.59769,-1.68052 3.63041,-2.83145zM39.05167,25.92404c2.68295,-4.21884 2.68295,-9.60613 0,-13.82496c-3.07022,0.44153 -5.48229,2.85102 -5.92415,5.9177c-0.54989,3.81766 2.10239,7.35809 5.92415,7.90726zM55.01836,17.99314v2.03685c0.00034,0.39587 -0.23403,0.75546 -0.59715,0.91487l-1.20037,0.52878c-0.04108,0.14392 -0.08411,0.28457 -0.13103,0.42197l0.66959,1.15378c0.17727,0.30536 0.17967,0.68208 0.00698,0.98989c-0.3677,0.65476 -0.80578,1.26671 -1.30692,1.82607c-0.24227,0.27316 -0.61501,0.39139 -0.97069,0.30863l-1.26194,-0.28783c-0.10563,0.08113 -0.21412,0.16063 -0.32455,0.2385l-0.12314,1.34132c-0.0333,0.3547 -0.25246,0.66454 -0.57575,0.81498c-0.67451,0.31556 -1.3829,0.55324 -2.11143,0.70776c-0.06752,0.01468 -0.1363,0.02202 -0.20531,0.02202c-0.2821,0 -0.55115,-0.11905 -0.74089,-0.32738l-1.09497,-1.20352c-3.67298,7.50201 -11.86352,11.68048 -20.10086,10.25436l-3.12321,3.90002c-0.33428,0.41707 -0.93784,0.4982 -1.37043,0.18387l-2.02423,-1.47056l-11.62445,14.29137c-0.34721,0.42604 -0.97298,0.4929 -1.40282,0.15085l-5.00473,-3.9999c-0.00114,-0.00122 -0.0024,-0.00204 -0.00355,-0.00326c-0.4303,-0.34858 -0.49656,-0.97888 -0.14786,-1.40859l11.37108,-13.97989l-2.17381,-1.57941c-0.2219,-0.15982 -0.36793,-0.40443 -0.40375,-0.67555c-0.03593,-0.27071 0.04005,-0.54387 0.21023,-0.7575l2.67769,-3.34392c-0.33291,-0.53041 -0.63915,-1.07713 -0.91782,-1.63853c-4.66278,-9.38883 -0.82375,-20.77536 8.5746,-25.43329c9.39823,-4.65792 20.79723,-0.82273 25.46001,8.56528l1.10481,-1.19944c0.23838,-0.25929 0.59624,-0.37426 0.94128,-0.30129c0.72807,0.15492 1.43612,0.3922 2.1104,0.70776c0.32341,0.15003 0.54245,0.4607 0.57575,0.81539l0.12314,1.34091c0.11044,0.07665 0.21893,0.15656 0.32558,0.23891l1.26091,-0.28824c0.35568,-0.08235 0.72807,0.03628 0.97069,0.30903c0.50159,0.55936 0.94013,1.17172 1.30783,1.82648c0.17212,0.30822 0.16903,0.68411 -0.0079,0.98907l-0.66959,1.15337c0.04692,0.13821 0.08995,0.27846 0.13103,0.42197l1.20037,0.52919c0.36324,0.15941 0.5975,0.51859 0.59715,0.91487zM16.81031,39.16967l-3.56873,-2.59335l-10.80334,13.2811l3.44181,2.75072zM22.77337,37.24983c-3.81535,-1.10893 -7.18815,-3.38143 -9.64634,-6.49989l-1.65676,2.06702l7.25739,5.27314l0.11387,0.08276l2.01851,1.46648zM45.06772,19.01156c0,-9.38801 -7.61845,-16.99806 -17.01622,-16.99806c-9.39342,0.0106 -17.00569,7.61453 -17.01622,16.99806c0,9.3876 7.61845,16.99847 17.01622,16.99847c9.39777,0 17.01622,-7.61086 17.01622,-16.99847zM53.01678,19.3789v-0.73467l-1.04897,-0.46151c-0.28988,-0.12761 -0.50205,-0.38527 -0.57175,-0.69349c-0.08148,-0.36611 -0.19329,-0.72488 -0.33428,-1.07265c-0.11925,-0.28743 -0.09762,-0.61399 0.05859,-0.88307l0.60997,-1.05104c-0.12245,-0.18632 -0.25314,-0.36856 -0.39196,-0.54754l-1.14372,0.26133c-0.31403,0.07339 -0.64407,-0.01019 -0.88554,-0.22301c-0.27637,-0.24339 -0.57312,-0.46273 -0.88657,-0.65517c-0.26711,-0.16593 -0.44106,-0.44683 -0.47024,-0.75913l-0.11238,-1.22309c-0.20531,-0.07909 -0.41256,-0.14962 -0.61787,-0.20915l-1.31023,1.42082c1.54152,4.16584 1.54369,8.74385 0.00629,12.91091l1.3068,1.43713c0.20565,-0.05952 0.41061,-0.12883 0.61489,-0.20792l0.11238,-1.2235c0.02895,-0.31229 0.20267,-0.59238 0.46921,-0.75791c0.31368,-0.19325 0.61054,-0.413 0.8876,-0.65598c0.24113,-0.21404 0.57152,-0.29762 0.88554,-0.22382l1.14372,0.26174c0.13916,-0.17857 0.26974,-0.36122 0.39196,-0.54754l-0.60997,-1.05063c-0.15621,-0.26949 -0.17796,-0.59646 -0.05859,-0.88388c0.14099,-0.34776 0.2528,-0.70613 0.33428,-1.07224c0.06958,-0.30863 0.28175,-0.56629 0.57175,-0.69349l1.04897,-0.46151z" fill="#000000" fill-opacity="0"></path><path d="M60.01725,47.87683v2.26393c0.00023,0.39587 -0.23403,0.75505 -0.59715,0.91487l-1.38222,0.6091c-0.05367,0.19325 -0.11238,0.37875 -0.17487,0.55977l0.77019,1.32583c0.17693,0.30536 0.1799,0.68167 0.0079,0.98989c-0.40524,0.72081 -0.88852,1.39554 -1.44093,2.01076c-0.24193,0.27193 -0.61363,0.39016 -0.96863,0.3074l-1.45454,-0.33146c-0.14271,0.1113 -0.28931,0.21934 -0.43991,0.32371l-0.14076,1.54109c-0.03227,0.35551 -0.25211,0.66658 -0.57667,0.81621c-0.74192,0.34613 -1.52069,0.60706 -2.32155,0.7787c-0.06752,0.01345 -0.13641,0.02079 -0.20531,0.02079c-0.29148,0.00041 -0.56854,-0.12639 -0.75863,-0.34736l-1.01852,-1.1815h-0.48878l-1.01852,1.1815c-0.23724,0.27683 -0.60699,0.40199 -0.96382,0.32656c-0.80086,-0.17164 -1.57963,-0.43257 -2.32155,-0.7787c-0.32455,-0.14962 -0.5444,-0.46029 -0.57678,-0.81621l-0.14065,-1.54109c-0.1506,-0.10437 -0.29812,-0.21282 -0.44083,-0.32493l-1.4526,0.33268c-0.35511,0.08276 -0.72727,-0.03547 -0.96966,-0.3074c-0.55252,-0.61562 -1.03569,-1.28995 -1.44081,-2.01076c-0.172,-0.30822 -0.16903,-0.68452 0.0079,-0.98989l0.77019,-1.32623c-0.0626,-0.18102 -0.12108,-0.36611 -0.17487,-0.55977l-1.38222,-0.60869c-0.36312,-0.16022 -0.5975,-0.519 -0.59715,-0.91528v-2.26353c-0.00034,-0.39628 0.23403,-0.75546 0.59715,-0.91446l1.38222,-0.60991c0.05402,-0.19284 0.11227,-0.37956 0.17487,-0.56058l-0.76927,-1.3246c-0.17681,-0.30577 -0.17979,-0.68167 -0.00767,-0.98948c0.40432,-0.72121 0.88715,-1.39595 1.43978,-2.01157c0.24239,-0.27153 0.61375,-0.38935 0.96874,-0.3074l1.45454,0.33227c0.14271,-0.11212 0.28931,-0.21975 0.43991,-0.32453l0.14076,-1.54109c0.03227,-0.3547 0.25211,-0.66658 0.57667,-0.81621c0.74192,-0.34654 1.52081,-0.60706 2.32155,-0.77829c0.35683,-0.07705 0.72727,0.04852 0.96382,0.32656l1.01852,1.1815h0.48878l1.01852,-1.1815c0.23712,-0.27723 0.60699,-0.4024 0.96382,-0.32656c0.80086,0.17123 1.57963,0.43216 2.32155,0.77829c0.32444,0.14962 0.5444,0.4611 0.57667,0.81621l0.14076,1.54109c0.1506,0.10519 0.2972,0.21282 0.43991,0.32453l1.45454,-0.33227c0.355,-0.08235 0.72659,0.03547 0.96874,0.3074c0.55252,0.61562 1.03569,1.28995 1.44081,2.01076c0.172,0.30822 0.16903,0.68452 -0.0079,0.99029l-0.77019,1.32542c0.06248,0.18102 0.12108,0.36652 0.17487,0.55977l1.38222,0.60991c0.36312,0.159 0.59738,0.51818 0.59704,0.91446zM58.01556,49.48886v-0.96094l-1.23264,-0.54264c-0.28988,-0.1272 -0.50205,-0.38446 -0.57175,-0.69349c-0.09144,-0.41177 -0.21778,-0.81498 -0.37743,-1.20596c-0.11936,-0.28824 -0.0975,-0.61562 0.05871,-0.88552l0.71262,-1.22635c-0.16136,-0.25073 -0.33531,-0.49413 -0.52208,-0.73059l-1.34113,0.30699c-0.3138,0.07216 -0.64339,-0.01142 -0.88463,-0.22505c-0.31174,-0.27316 -0.64579,-0.5194 -0.99895,-0.73671c-0.26768,-0.16552 -0.4422,-0.44724 -0.47115,-0.75994l-0.13,-1.42775c-0.26871,-0.10519 -0.53867,-0.19732 -0.80738,-0.27356l-0.9169,1.06327c-0.19032,0.22097 -0.46715,0.34776 -0.75851,0.34817h-1.40568c-0.29148,-0.00041 -0.56831,-0.12679 -0.75851,-0.34817l-0.9169,-1.06327c-0.26871,0.07624 -0.53867,0.16838 -0.80738,0.27356l-0.13,1.42775c-0.02895,0.3127 -0.20348,0.59442 -0.47127,0.75994c-0.35305,0.2173 -0.6871,0.46355 -0.99884,0.73671c-0.24124,0.21322 -0.57072,0.2968 -0.88463,0.22505l-1.34113,-0.30699c-0.18677,0.23646 -0.36072,0.48067 -0.52105,0.72937l0.71171,1.22635c0.15644,0.26989 0.17807,0.59687 0.05871,0.88511c-0.15953,0.39139 -0.28576,0.79501 -0.37743,1.20759c-0.06958,0.30903 -0.28175,0.56629 -0.57175,0.69349l-1.23264,0.54264v0.96094l1.23264,0.54305c0.28988,0.1272 0.50205,0.38486 0.57175,0.69349c0.09144,0.41177 0.21778,0.81539 0.37743,1.20556c0.11936,0.28865 0.0975,0.61603 -0.05871,0.88592l-0.71251,1.22635c0.16125,0.25033 0.33531,0.49413 0.52197,0.72978l1.3401,-0.30699c0.31471,-0.07175 0.64465,0.01264 0.88657,0.22586c0.31128,0.27316 0.6451,0.52022 0.99815,0.73711c0.26779,0.16512 0.4422,0.44683 0.47115,0.75954l0.13,1.42816c0.26871,0.10478 0.53867,0.19692 0.80738,0.27316l0.9169,-1.06368c0.1902,-0.22056 0.46703,-0.34736 0.7584,-0.34736h1.40568c0.29137,0 0.5682,0.12679 0.7584,0.34736l0.9169,1.06368c0.26871,-0.07624 0.53867,-0.16838 0.80738,-0.27316l0.13,-1.42816c0.02895,-0.3127 0.20348,-0.59442 0.47115,-0.75954c0.35316,-0.2173 0.68722,-0.46396 0.99895,-0.73711c0.24078,-0.21404 0.57072,-0.29803 0.88463,-0.22464l1.34113,0.30659c0.18677,-0.23728 0.36072,-0.48027 0.52208,-0.73059l-0.71262,-1.22635c-0.15633,-0.26989 -0.17807,-0.59727 -0.05871,-0.88592c0.15965,-0.39016 0.28599,-0.79378 0.37743,-1.20556c0.06958,-0.30863 0.28175,-0.56629 0.57175,-0.69349zM54.07628,49.00859c0,2.76092 -2.24075,4.99957 -5.00484,4.99957c-2.76398,0 -5.00473,-2.23866 -5.00473,-4.99957c0,-2.76132 2.24075,-4.99957 5.00473,-4.99957c2.76283,0.00326 5.00153,2.23988 5.00484,4.99957zM52.07436,49.00859c0,-1.65647 -1.34445,-2.99942 -3.00293,-2.99942c-1.65836,0 -3.00282,1.34295 -3.00282,2.99942c0,1.65647 1.34445,2.99983 3.00282,2.99983c1.65779,-0.00163 3.00098,-1.34417 3.00293,-2.99983zM43.0658,19.01156c0,8.28356 -6.72215,14.99831 -15.01431,14.99831c-8.28838,-0.00856 -15.00526,-6.71842 -15.01431,-14.99831c0,-8.28356 6.72215,-14.99872 15.01431,-14.99872c8.29216,0 15.01431,6.71516 15.01431,14.99872zM31.76099,31.46504c-0.24502,-0.16104 -0.50011,-0.3176 -0.72624,-0.48842c-0.34161,-0.25807 -0.48134,-0.70409 -0.34801,-1.11056l0.45948,-1.39636c-0.18871,-0.17735 -0.37342,-0.36163 -0.55126,-0.55039l-1.39881,0.45907c-0.4073,0.13372 -0.85464,-0.00652 -1.11248,-0.34899c-0.73837,-0.96991 -1.35578,-2.02666 -1.83861,-3.14578c-0.16823,-0.39424 -0.06638,-0.85168 0.25314,-1.13666l1.11237,-0.99641c-0.07519,-0.24869 -0.14259,-0.49984 -0.20233,-0.75057l-1.45054,-0.30496c-0.46326,-0.09703 -0.79468,-0.50554 -0.79479,-0.97847v-3.40997c0.00011,-0.47293 0.33165,-0.88062 0.79479,-0.97806l1.45054,-0.30496c0.05974,-0.25033 0.12714,-0.50187 0.20336,-0.75057l-1.11328,-0.99641c-0.31952,-0.28539 -0.42126,-0.74241 -0.25314,-1.13625c0.48283,-1.12035 1.10104,-2.1771 1.84067,-3.147c0.25921,-0.34002 0.70461,-0.47945 1.11134,-0.34817l1.3979,0.45907c0.17796,-0.18836 0.36255,-0.37304 0.55126,-0.5508l-0.45948,-1.39717c-0.13367,-0.40688 0.00652,-0.85331 0.34904,-1.11097c0.22602,-0.17042 0.48031,-0.32656 0.72475,-0.4872c-1.20335,-0.3604 -2.45281,-0.54427 -3.70914,-0.5455c-1.25782,0 -2.509,0.18224 -3.71452,0.5406c-6.88648,2.04786 -10.807,9.28486 -8.7569,16.16391c2.04998,6.87946 9.29455,10.79619 16.18092,8.74793zM37.71294,27.68814c-3.0978,-0.83211 -5.51765,-3.24934 -6.35044,-6.34415c-1.28941,-4.79165 1.55376,-9.72028 6.35044,-11.00819c-1.03306,-1.15133 -2.26238,-2.11023 -3.63098,-2.83185c-0.43327,0.22097 -0.85464,0.46437 -1.26251,0.72937l0.43304,1.31604c0.1268,0.38731 0.0071,0.81172 -0.30304,1.07591c-0.46165,0.39016 -0.88989,0.81865 -1.28048,1.27976c-0.26436,0.30985 -0.68974,0.42971 -1.07723,0.30373l-1.32248,-0.43501c-0.32787,0.4819 -0.62347,0.9854 -0.88451,1.50603l1.04977,0.93974c0.30384,0.27112 0.41256,0.6992 0.27466,1.08243c-0.20485,0.56751 -0.36209,1.15052 -0.47012,1.74331c-0.07244,0.39995 -0.38052,0.71673 -0.77911,0.80071l-1.29524,0.27234v1.78693l1.29524,0.27275c0.3986,0.08358 0.70667,0.39995 0.77911,0.80031c0.10769,0.59238 0.26493,1.17498 0.47012,1.74086c0.1379,0.38405 0.0293,0.81254 -0.27466,1.08406l-1.04977,0.94055c0.26081,0.52104 0.5563,1.02372 0.88451,1.50562l1.32168,-0.4346c0.38704,-0.12598 0.81207,-0.00693 1.0762,0.30251c0.39104,0.46151 0.81974,0.88959 1.28151,1.27935c0.31094,0.26378 0.43121,0.68901 0.30407,1.07591l-0.43304,1.31645c0.40775,0.26541 0.82924,0.50921 1.26286,0.73059c1.36837,-0.72203 2.59769,-1.68052 3.63041,-2.83145zM39.05167,25.92404c2.68295,-4.21884 2.68295,-9.60613 0,-13.82496c-3.07022,0.44153 -5.48229,2.85102 -5.92415,5.9177c-0.54989,3.81766 2.10239,7.35809 5.92415,7.90726zM55.01836,17.99314v2.03685c0.00034,0.39587 -0.23403,0.75546 -0.59715,0.91487l-1.20037,0.52878c-0.04108,0.14392 -0.08411,0.28457 -0.13103,0.42197l0.66959,1.15378c0.17727,0.30536 0.17967,0.68208 0.00698,0.98989c-0.3677,0.65476 -0.80578,1.26671 -1.30692,1.82607c-0.24227,0.27316 -0.61501,0.39139 -0.97069,0.30863l-1.26194,-0.28783c-0.10563,0.08113 -0.21412,0.16063 -0.32455,0.2385l-0.12314,1.34132c-0.0333,0.3547 -0.25246,0.66454 -0.57575,0.81498c-0.67451,0.31556 -1.3829,0.55324 -2.11143,0.70776c-0.06752,0.01468 -0.1363,0.02202 -0.20531,0.02202c-0.2821,0 -0.55115,-0.11905 -0.74089,-0.32738l-1.09497,-1.20352c-3.67298,7.50201 -11.86352,11.68048 -20.10086,10.25436l-3.12321,3.90002c-0.33428,0.41707 -0.93784,0.4982 -1.37043,0.18387l-2.02423,-1.47056l-11.62445,14.29137c-0.34721,0.42604 -0.97298,0.4929 -1.40282,0.15085l-5.00473,-3.9999c-0.00114,-0.00122 -0.0024,-0.00204 -0.00355,-0.00326c-0.4303,-0.34858 -0.49656,-0.97888 -0.14786,-1.40859l11.37108,-13.97989l-2.17381,-1.57941c-0.2219,-0.15982 -0.36793,-0.40443 -0.40375,-0.67555c-0.03593,-0.27071 0.04005,-0.54387 0.21023,-0.7575l2.67769,-3.34392c-0.33291,-0.53041 -0.63915,-1.07713 -0.91782,-1.63853c-4.66278,-9.38883 -0.82375,-20.77536 8.5746,-25.43329c9.39823,-4.65792 20.79723,-0.82273 25.46001,8.56528l1.10481,-1.19944c0.23838,-0.25929 0.59624,-0.37426 0.94128,-0.30129c0.72807,0.15492 1.43612,0.3922 2.1104,0.70776c0.32341,0.15003 0.54245,0.4607 0.57575,0.81539l0.12314,1.34091c0.11044,0.07665 0.21893,0.15656 0.32558,0.23891l1.26091,-0.28824c0.35568,-0.08235 0.72807,0.03628 0.97069,0.30903c0.50159,0.55936 0.94013,1.17172 1.30783,1.82648c0.17212,0.30822 0.16903,0.68411 -0.0079,0.98907l-0.66959,1.15337c0.04692,0.13821 0.08995,0.27846 0.13103,0.42197l1.20037,0.52919c0.36324,0.15941 0.5975,0.51859 0.59715,0.91487zM16.81031,39.16967l-3.56873,-2.59335l-10.80334,13.2811l3.44181,2.75072zM22.77337,37.24983c-3.81535,-1.10893 -7.18815,-3.38143 -9.64634,-6.49989l-1.65676,2.06702l7.25739,5.27314l0.11387,0.08276l2.01851,1.46648zM45.06772,19.01156c0,-9.38801 -7.61845,-16.99806 -17.01622,-16.99806c-9.39342,0.0106 -17.00569,7.61453 -17.01622,16.99806c0,9.3876 7.61845,16.99847 17.01622,16.99847c9.39777,0 17.01622,-7.61086 17.01622,-16.99847zM53.01678,19.3789v-0.73467l-1.04897,-0.46151c-0.28988,-0.12761 -0.50205,-0.38527 -0.57175,-0.69349c-0.08148,-0.36611 -0.19329,-0.72488 -0.33428,-1.07265c-0.11925,-0.28743 -0.09762,-0.61399 0.05859,-0.88307l0.60997,-1.05104c-0.12245,-0.18632 -0.25314,-0.36856 -0.39196,-0.54754l-1.14372,0.26133c-0.31403,0.07339 -0.64407,-0.01019 -0.88554,-0.22301c-0.27637,-0.24339 -0.57312,-0.46273 -0.88657,-0.65517c-0.26711,-0.16593 -0.44106,-0.44683 -0.47024,-0.75913l-0.11238,-1.22309c-0.20531,-0.07909 -0.41256,-0.14962 -0.61787,-0.20915l-1.31023,1.42082c1.54152,4.16584 1.54369,8.74385 0.00629,12.91091l1.3068,1.43713c0.20565,-0.05952 0.41061,-0.12883 0.61489,-0.20792l0.11238,-1.2235c0.02895,-0.31229 0.20267,-0.59238 0.46921,-0.75791c0.31368,-0.19325 0.61054,-0.413 0.8876,-0.65598c0.24113,-0.21404 0.57152,-0.29762 0.88554,-0.22382l1.14372,0.26174c0.13916,-0.17857 0.26974,-0.36122 0.39196,-0.54754l-0.60997,-1.05063c-0.15621,-0.26949 -0.17796,-0.59646 -0.05859,-0.88388c0.14099,-0.34776 0.2528,-0.70613 0.33428,-1.07224c0.06958,-0.30863 0.28175,-0.56629 0.57175,-0.69349l1.04897,-0.46151z" fill="url(#LinearGradient1258)"></path></g></g></svg>
