<?xml version="1.0" encoding="UTF-8"?>
<svg id="SVGDoc" width="60" height="60" xmlns="http://www.w3.org/2000/svg" version="1.1" xmlns:xlink="http://www.w3.org/1999/xlink" xmlns:avocode="https://avocode.com/" viewBox="0 0 60 60"><defs><linearGradient id="LinearGradient1158" gradientUnits="userSpaceOnUse" x1="29.9999361038208" y1="59.97252935171127" x2="29.999947547912598" y2="-0.014214575290679932"><stop stop-opacity="1" stop-color="#f26725" offset="0"></stop><stop stop-opacity="1" stop-color="#ffb62a" offset="1"></stop></linearGradient></defs><desc>Generated with Avocode.</desc><g><g><title>Forma 1</title><path d="M59.99993,8.98403v39.99047c0,0.55243 -0.44769,1.00008 -0.99998,1.00008h-15.99998v-1.99975h15v-37.99154h-7.00001c-0.55229,0 -0.99998,-0.44724 -0.99998,-0.99926v-6.99851h-26.00006v9.99711h-1.99997v-10.99759c0,-0.55161 0.44781,-0.99926 0.99998,-0.99926h28.00003c0.26527,0 0.51945,0.10519 0.70702,0.29273l7.99999,7.99818c0.18757,0.18754 0.29297,0.44194 0.29297,0.70735zM56.58593,7.98395l-4.58599,-4.58535v4.58535zM32.99989,14.98205v43.99037c0,0.55202 -0.44769,0.99967 -0.99998,0.99967h-30.99998c-0.55218,0 -0.99998,-0.44765 -0.99998,-0.99967v-43.99037c0,-0.55202 0.44781,-0.99926 0.99998,-0.99926h30.99998c0.55241,0 0.99998,0.44724 0.99998,0.99926zM30.99992,15.98213h-29.00002v41.99063h29.00002zM28.99995,19.98122v7.99858c0,0.55161 -0.44781,0.99926 -0.99998,0.99926h-22.99999c-0.55229,0 -0.99998,-0.44765 -0.99998,-0.99926v-7.99858c0,-0.55243 0.44769,-1.00008 0.99998,-1.00008h22.99999c0.55241,0 0.99998,0.44765 0.99998,1.00008zM26.99998,20.98089h-21.00002v5.99884h21.00002zM10.99999,49.97458v4.99876c0,0.55202 -0.44781,1.00008 -1.0001,1.00008h-4.99992c-0.55229,0 -0.99998,-0.44806 -0.99998,-1.00008v-4.99876c0,-0.55243 0.44769,-1.00008 0.99998,-1.00008h4.99992c0.55241,0 1.0001,0.44765 1.0001,1.00008zM8.99991,50.97425h-2.99995v2.99942h2.99995zM19.99997,49.97458v4.99876c0,0.55202 -0.44781,1.00008 -0.99998,1.00008h-5.00004c-0.55229,0 -0.99998,-0.44806 -0.99998,-1.00008v-4.99876c0,-0.55243 0.44769,-1.00008 0.99998,-1.00008h5.00004c0.55229,0 0.99998,0.44765 0.99998,1.00008zM17.99989,50.97425h-2.99995v2.99942h2.99995zM10.99999,40.97633v4.99876c0,0.55243 -0.44781,1.00008 -1.0001,1.00008h-4.99992c-0.55229,0 -0.99998,-0.44765 -0.99998,-1.00008v-4.99876c0,-0.55202 0.44769,-0.99967 0.99998,-0.99967h4.99992c0.55241,0 1.0001,0.44765 1.0001,0.99967zM8.99991,41.9764h-2.99995v2.99901h2.99995zM19.99997,40.97633v4.99876c0,0.55243 -0.44781,1.00008 -0.99998,1.00008h-5.00004c-0.55229,0 -0.99998,-0.44765 -0.99998,-1.00008v-4.99876c0,-0.55202 0.44769,-0.99967 0.99998,-0.99967h5.00004c0.55229,0 0.99998,0.44765 0.99998,0.99967zM17.99989,41.9764h-2.99995v2.99901h2.99995zM10.99999,31.97848v4.99876c0,0.55243 -0.44781,0.99967 -1.0001,0.99967h-4.99992c-0.55229,0 -0.99998,-0.44724 -0.99998,-0.99967v-4.99876c0,-0.55202 0.44769,-0.99967 0.99998,-0.99967h4.99992c0.55241,0 1.0001,0.44765 1.0001,0.99967zM8.99991,32.97856h-2.99995v2.99901h2.99995zM19.99997,31.97848v4.99876c0,0.55243 -0.44781,0.99967 -0.99998,0.99967h-5.00004c-0.55229,0 -0.99998,-0.44724 -0.99998,-0.99967v-4.99876c0,-0.55202 0.44769,-0.99967 0.99998,-0.99967h5.00004c0.55229,0 0.99998,0.44765 0.99998,0.99967zM17.99989,32.97856h-2.99995v2.99901h2.99995zM28.99995,31.97848v4.99876c0,0.55243 -0.44781,0.99967 -0.99998,0.99967h-5.00004c-0.55218,0 -0.99998,-0.44724 -0.99998,-0.99967v-4.99876c0,-0.55202 0.44781,-0.99967 0.99998,-0.99967h5.00004c0.55241,0 0.99998,0.44765 0.99998,0.99967zM26.99998,32.97856h-3.00007v2.99901h3.00007zM28.99995,40.97633v13.99701c0,0.55202 -0.44781,1.00008 -0.99998,1.00008h-5.00004c-0.55218,0 -0.99998,-0.44806 -0.99998,-1.00008v-13.99701c0,-0.55202 0.44781,-0.99967 0.99998,-0.99967h5.00004c0.55241,0 0.99998,0.44765 0.99998,0.99967zM26.99998,41.9764h-3.00007v11.99726h3.00007zM22.99992,22.98064h1.99997v1.99934h-1.99997zM18.99998,22.98064h1.99997v1.99934h-1.99997zM14.99993,22.98064h1.99997v1.99934h-1.99997zM28.99995,5.98461h18.99994v1.99934h-18.99994zM28.99995,9.98329h18.99994v1.99934h-18.99994zM52.99992,13.98279v12.99693h-17.99995v-5.99884h1.99997v3.99909h1.99997v-6.99851h2.00008v6.99851h1.99997v-3.99909h1.99997v3.99909h1.99997v-8.99785h2.00008v8.99785h1.99997v-10.99719zM44.99993,34.9779v10.99719h-1.99997v-9.99752h-1.99997v19.99585c-0.00046,0.19692 -0.05882,0.38976 -0.168,0.55487l-2.00008,2.99901c-0.07324,0.10967 -0.16743,0.20385 -0.27718,0.27723c-0.45959,0.30618 -1.08044,0.18224 -1.3868,-0.27723l-1.99997,-2.99901c-0.10929,-0.16512 -0.16766,-0.35796 -0.168,-0.55487v-24.9946c0,-0.55243 0.44769,-0.99967 0.99998,-0.99967h3.99994c0.55229,0 1.0001,0.44724 1.0001,0.99967v2.99942h2.99995c0.55241,0 0.99998,0.44765 0.99998,0.99967zM38.99991,35.97757h-1.99997v19.69537l0.99998,1.49951l0.99998,-1.49951zM38.99991,31.97848h-1.99997v1.99975h1.99997zM42.99996,29.97914h9.99996v1.99934h-9.99996zM46.9999,33.97823h6.00002v1.99934h-6.00002zM46.9999,37.97691h6.00002v1.99975h-6.00002zM46.9999,41.9764h6.00002v1.99934h-6.00002z" fill="#000000" fill-opacity="0"></path><path d="M59.99993,8.98403v39.99047c0,0.55243 -0.44769,1.00008 -0.99998,1.00008h-15.99998v-1.99975h15v-37.99154h-7.00001c-0.55229,0 -0.99998,-0.44724 -0.99998,-0.99926v-6.99851h-26.00006v9.99711h-1.99997v-10.99759c0,-0.55161 0.44781,-0.99926 0.99998,-0.99926h28.00003c0.26527,0 0.51945,0.10519 0.70702,0.29273l7.99999,7.99818c0.18757,0.18754 0.29297,0.44194 0.29297,0.70735zM56.58593,7.98395l-4.58599,-4.58535v4.58535zM32.99989,14.98205v43.99037c0,0.55202 -0.44769,0.99967 -0.99998,0.99967h-30.99998c-0.55218,0 -0.99998,-0.44765 -0.99998,-0.99967v-43.99037c0,-0.55202 0.44781,-0.99926 0.99998,-0.99926h30.99998c0.55241,0 0.99998,0.44724 0.99998,0.99926zM30.99992,15.98213h-29.00002v41.99063h29.00002zM28.99995,19.98122v7.99858c0,0.55161 -0.44781,0.99926 -0.99998,0.99926h-22.99999c-0.55229,0 -0.99998,-0.44765 -0.99998,-0.99926v-7.99858c0,-0.55243 0.44769,-1.00008 0.99998,-1.00008h22.99999c0.55241,0 0.99998,0.44765 0.99998,1.00008zM26.99998,20.98089h-21.00002v5.99884h21.00002zM10.99999,49.97458v4.99876c0,0.55202 -0.44781,1.00008 -1.0001,1.00008h-4.99992c-0.55229,0 -0.99998,-0.44806 -0.99998,-1.00008v-4.99876c0,-0.55243 0.44769,-1.00008 0.99998,-1.00008h4.99992c0.55241,0 1.0001,0.44765 1.0001,1.00008zM8.99991,50.97425h-2.99995v2.99942h2.99995zM19.99997,49.97458v4.99876c0,0.55202 -0.44781,1.00008 -0.99998,1.00008h-5.00004c-0.55229,0 -0.99998,-0.44806 -0.99998,-1.00008v-4.99876c0,-0.55243 0.44769,-1.00008 0.99998,-1.00008h5.00004c0.55229,0 0.99998,0.44765 0.99998,1.00008zM17.99989,50.97425h-2.99995v2.99942h2.99995zM10.99999,40.97633v4.99876c0,0.55243 -0.44781,1.00008 -1.0001,1.00008h-4.99992c-0.55229,0 -0.99998,-0.44765 -0.99998,-1.00008v-4.99876c0,-0.55202 0.44769,-0.99967 0.99998,-0.99967h4.99992c0.55241,0 1.0001,0.44765 1.0001,0.99967zM8.99991,41.9764h-2.99995v2.99901h2.99995zM19.99997,40.97633v4.99876c0,0.55243 -0.44781,1.00008 -0.99998,1.00008h-5.00004c-0.55229,0 -0.99998,-0.44765 -0.99998,-1.00008v-4.99876c0,-0.55202 0.44769,-0.99967 0.99998,-0.99967h5.00004c0.55229,0 0.99998,0.44765 0.99998,0.99967zM17.99989,41.9764h-2.99995v2.99901h2.99995zM10.99999,31.97848v4.99876c0,0.55243 -0.44781,0.99967 -1.0001,0.99967h-4.99992c-0.55229,0 -0.99998,-0.44724 -0.99998,-0.99967v-4.99876c0,-0.55202 0.44769,-0.99967 0.99998,-0.99967h4.99992c0.55241,0 1.0001,0.44765 1.0001,0.99967zM8.99991,32.97856h-2.99995v2.99901h2.99995zM19.99997,31.97848v4.99876c0,0.55243 -0.44781,0.99967 -0.99998,0.99967h-5.00004c-0.55229,0 -0.99998,-0.44724 -0.99998,-0.99967v-4.99876c0,-0.55202 0.44769,-0.99967 0.99998,-0.99967h5.00004c0.55229,0 0.99998,0.44765 0.99998,0.99967zM17.99989,32.97856h-2.99995v2.99901h2.99995zM28.99995,31.97848v4.99876c0,0.55243 -0.44781,0.99967 -0.99998,0.99967h-5.00004c-0.55218,0 -0.99998,-0.44724 -0.99998,-0.99967v-4.99876c0,-0.55202 0.44781,-0.99967 0.99998,-0.99967h5.00004c0.55241,0 0.99998,0.44765 0.99998,0.99967zM26.99998,32.97856h-3.00007v2.99901h3.00007zM28.99995,40.97633v13.99701c0,0.55202 -0.44781,1.00008 -0.99998,1.00008h-5.00004c-0.55218,0 -0.99998,-0.44806 -0.99998,-1.00008v-13.99701c0,-0.55202 0.44781,-0.99967 0.99998,-0.99967h5.00004c0.55241,0 0.99998,0.44765 0.99998,0.99967zM26.99998,41.9764h-3.00007v11.99726h3.00007zM22.99992,22.98064h1.99997v1.99934h-1.99997zM18.99998,22.98064h1.99997v1.99934h-1.99997zM14.99993,22.98064h1.99997v1.99934h-1.99997zM28.99995,5.98461h18.99994v1.99934h-18.99994zM28.99995,9.98329h18.99994v1.99934h-18.99994zM52.99992,13.98279v12.99693h-17.99995v-5.99884h1.99997v3.99909h1.99997v-6.99851h2.00008v6.99851h1.99997v-3.99909h1.99997v3.99909h1.99997v-8.99785h2.00008v8.99785h1.99997v-10.99719zM44.99993,34.9779v10.99719h-1.99997v-9.99752h-1.99997v19.99585c-0.00046,0.19692 -0.05882,0.38976 -0.168,0.55487l-2.00008,2.99901c-0.07324,0.10967 -0.16743,0.20385 -0.27718,0.27723c-0.45959,0.30618 -1.08044,0.18224 -1.3868,-0.27723l-1.99997,-2.99901c-0.10929,-0.16512 -0.16766,-0.35796 -0.168,-0.55487v-24.9946c0,-0.55243 0.44769,-0.99967 0.99998,-0.99967h3.99994c0.55229,0 1.0001,0.44724 1.0001,0.99967v2.99942h2.99995c0.55241,0 0.99998,0.44765 0.99998,0.99967zM38.99991,35.97757h-1.99997v19.69537l0.99998,1.49951l0.99998,-1.49951zM38.99991,31.97848h-1.99997v1.99975h1.99997zM42.99996,29.97914h9.99996v1.99934h-9.99996zM46.9999,33.97823h6.00002v1.99934h-6.00002zM46.9999,37.97691h6.00002v1.99975h-6.00002zM46.9999,41.9764h6.00002v1.99934h-6.00002z" fill="url(#LinearGradient1158)"></path></g></g></svg>
