<?xml version="1.0" encoding="UTF-8"?>
<svg id="SVGDoc" width="32" height="18" xmlns="http://www.w3.org/2000/svg" version="1.1" xmlns:xlink="http://www.w3.org/1999/xlink" xmlns:avocode="https://avocode.com/" viewBox="0 0 32 18"><defs></defs><desc>Generated with Avocode.</desc><g><g><title>Forma 1</title><path d="M14.52728,15.31768c0,1.47708 -1.19385,2.67815 -2.67128,2.67815c-1.47732,0 -2.67128,-1.20107 -2.67128,-2.67815c0,-1.48075 1.19396,-2.68223 2.67128,-2.68223c1.47743,0 2.67128,1.20148 2.67128,2.68223zM13.19164,15.31768c0,-0.74038 -0.59692,-1.33887 -1.33564,-1.33887c-0.73872,0 -1.33564,0.5985 -1.33564,1.33887c0,0.73671 0.59692,1.33928 1.33564,1.33928c0.73872,0 1.33564,-0.60257 1.33564,-1.33928zM32.0032,13.51403c0,0.71306 -0.57678,1.29158 -1.28838,1.29158h-1.37856c-0.24914,-1.71355 -1.72222,-3.03122 -3.50018,-3.03122c-1.77372,0 -3.2468,1.31767 -3.49594,3.03122h-6.98742c-0.24902,-1.71355 -1.72211,-3.03122 -3.49583,-3.03122c-1.77372,0 -3.2468,1.31767 -3.49583,3.03122h-1.72646c-0.71159,0 -1.28838,-0.57852 -1.28838,-1.29158v-2.85958h26.65695zM28.5107,15.31768c0,1.47708 -1.1982,2.67815 -2.67128,2.67815c-1.47732,0 -2.67551,-1.20107 -2.67551,-2.67815c0,-1.48075 1.1982,-2.68223 2.67551,-2.68223c1.47308,0 2.67128,1.20148 2.67128,2.68223zM27.17506,15.31768c0,-0.74038 -0.60116,-1.33887 -1.33564,-1.33887c-0.7386,0 -1.33564,0.5985 -1.33564,1.33887c0,0.73671 0.59704,1.33928 1.33564,1.33928c0.73448,0 1.33564,-0.60257 1.33564,-1.33928zM32.00229,8.99717v0.943h-26.65695l0.00034,-2.53791l-5.34897,-1.01149l9.35165,-0.81295l-9.35165,-1.33317l9.38473,-0.93444l-9.26445,-1.20963l5.22835,-0.6038v-0.20262c0,-0.71469 0.57976,-1.29199 1.28838,-1.29199h14.74789c0.71285,0 1.28838,0.5773 1.28838,1.29199v0.96012h2.55535c0.4509,0 0.88474,0.18102 1.20678,0.49984l5.06344,5.02037c0.32215,0.3229 0.50674,0.76198 0.50674,1.22268zM29.42554,7.59347l-3.96389,-3.7932c-0.0388,-0.03465 -0.09029,-0.05626 -0.14179,-0.05626h-0.93201c-0.11169,0 -0.20187,0.09051 -0.20187,0.20303v3.7932c0,0.1113 0.09029,0.20222 0.20187,0.20222h4.90025c0.18036,0 0.27054,-0.22423 0.13744,-0.34899z" fill="#ffffff" fill-opacity="1"></path></g></g></svg>