<?xml version="1.0" encoding="UTF-8"?>
<svg id="SVGDoc" width="31" height="32" xmlns="http://www.w3.org/2000/svg" version="1.1" xmlns:xlink="http://www.w3.org/1999/xlink" xmlns:avocode="https://avocode.com/" viewBox="0 0 31 32"><defs><linearGradient id="LinearGradient1308" gradientUnits="userSpaceOnUse" x1="15.675208449363708" y1="31.299388587474823" x2="15.699700713157654" y2="0.6993786692619324"><stop stop-opacity="1" stop-color="#f26725" offset="0"></stop><stop stop-opacity="1" stop-color="#ffb62a" offset="1"></stop></linearGradient></defs><desc>Generated with Avocode.</desc><g><g><title>Forma 1</title><path d="M15.68745,31.29938c-1.3789,0 -2.70779,-0.18346 -3.98678,-0.5508c-1.27888,-0.36733 -2.47295,-0.88225 -3.582,-1.54517c-1.10916,-0.66291 -2.1183,-1.45874 -3.02753,-2.38665c-0.90923,-0.92873 -1.68869,-1.95857 -2.33814,-3.09074c-0.64945,-1.13217 -1.15402,-2.35118 -1.51371,-3.65703c-0.35969,-1.30544 -0.53959,-2.66185 -0.53959,-4.06921c0,-1.40777 0.1799,-2.76459 0.53959,-4.07043c0.35969,-1.30544 0.86426,-2.52445 1.51371,-3.65662c0.64945,-1.13176 1.42879,-2.16242 2.33814,-3.09033c0.90923,-0.92832 1.91837,-1.72374 3.02753,-2.38665c1.10905,-0.66332 2.30312,-1.17824 3.582,-1.54517c1.27899,-0.36733 2.60788,-0.5512 3.98678,-0.5512c2.05833,0 4.00177,0.40321 5.83019,1.20882c1.82854,0.8052 3.41721,1.89701 4.76612,3.2742c1.34892,1.37679 2.41802,2.9986 3.20744,4.86544c0.7893,1.86643 1.18401,3.85028 1.18401,5.95195c0,1.40737 -0.1799,2.76377 -0.53959,4.06921c-0.35969,1.30585 -0.86426,2.52486 -1.51371,3.65703c-0.64945,1.13217 -1.42879,2.16201 -2.33814,3.09074c-0.90912,0.92792 -1.91837,1.72374 -3.02753,2.38665c-1.10916,0.66291 -2.30312,1.17783 -3.58212,1.54517c-1.27888,0.36733 -2.60777,0.5508 -3.98666,0.5508zM20.33363,6.66641h-8.15334v0.09173l-3.56712,3.57998c-0.03994,0.04118 -0.05985,0.07135 -0.05985,0.09214v13.49473c0,0.12231 0.04498,0.23443 0.13481,0.33635c0.08995,0.10192 0.20485,0.15289 0.34481,0.15289h7.94346v-1.59124h-6.8644v-11.1994h3.14747c0.11982,0 0.17979,-0.06115 0.17979,-0.18346v-3.18247h5.81532v4.31464h1.55869v-5.41624c0,-0.12231 -0.04498,-0.23443 -0.13493,-0.33676c-0.08984,-0.10192 -0.20485,-0.15289 -0.3447,-0.15289zM24.80003,17.92696h-3.29739v-3.36594c0,-0.18346 -0.07988,-0.2756 -0.23975,-0.2756h-2.30816c-0.15976,0 -0.23975,0.09214 -0.23975,0.2756v3.36594h-3.32726c-0.15987,0 -0.23987,0.08195 -0.23987,0.24503v2.35607c0,0.16349 0.07999,0.24503 0.23987,0.24503h3.32726v3.36594c0,0.18387 0.07999,0.27519 0.23975,0.27519h2.30816c0.15987,0 0.23975,-0.09132 0.23975,-0.27519v-3.36594h3.29739c0.17979,0 0.26974,-0.08154 0.26974,-0.24503v-2.35607c0,-0.16349 -0.08995,-0.24503 -0.26974,-0.24503z" fill="#f26725" fill-opacity="1"></path><path d="M15.68745,31.29938c-1.3789,0 -2.70779,-0.18346 -3.98678,-0.5508c-1.27888,-0.36733 -2.47295,-0.88225 -3.582,-1.54517c-1.10916,-0.66291 -2.1183,-1.45874 -3.02753,-2.38665c-0.90923,-0.92873 -1.68869,-1.95857 -2.33814,-3.09074c-0.64945,-1.13217 -1.15402,-2.35118 -1.51371,-3.65703c-0.35969,-1.30544 -0.53959,-2.66185 -0.53959,-4.06921c0,-1.40777 0.1799,-2.76459 0.53959,-4.07043c0.35969,-1.30544 0.86426,-2.52445 1.51371,-3.65662c0.64945,-1.13176 1.42879,-2.16242 2.33814,-3.09033c0.90923,-0.92832 1.91837,-1.72374 3.02753,-2.38665c1.10905,-0.66332 2.30312,-1.17824 3.582,-1.54517c1.27899,-0.36733 2.60788,-0.5512 3.98678,-0.5512c2.05833,0 4.00177,0.40321 5.83019,1.20882c1.82854,0.8052 3.41721,1.89701 4.76612,3.2742c1.34892,1.37679 2.41802,2.9986 3.20744,4.86544c0.7893,1.86643 1.18401,3.85028 1.18401,5.95195c0,1.40737 -0.1799,2.76377 -0.53959,4.06921c-0.35969,1.30585 -0.86426,2.52486 -1.51371,3.65703c-0.64945,1.13217 -1.42879,2.16201 -2.33814,3.09074c-0.90912,0.92792 -1.91837,1.72374 -3.02753,2.38665c-1.10916,0.66291 -2.30312,1.17783 -3.58212,1.54517c-1.27888,0.36733 -2.60777,0.5508 -3.98666,0.5508zM20.33363,6.66641h-8.15334v0.09173l-3.56712,3.57998c-0.03994,0.04118 -0.05985,0.07135 -0.05985,0.09214v13.49473c0,0.12231 0.04498,0.23443 0.13481,0.33635c0.08995,0.10192 0.20485,0.15289 0.34481,0.15289h7.94346v-1.59124h-6.8644v-11.1994h3.14747c0.11982,0 0.17979,-0.06115 0.17979,-0.18346v-3.18247h5.81532v4.31464h1.55869v-5.41624c0,-0.12231 -0.04498,-0.23443 -0.13493,-0.33676c-0.08984,-0.10192 -0.20485,-0.15289 -0.3447,-0.15289zM24.80003,17.92696h-3.29739v-3.36594c0,-0.18346 -0.07988,-0.2756 -0.23975,-0.2756h-2.30816c-0.15976,0 -0.23975,0.09214 -0.23975,0.2756v3.36594h-3.32726c-0.15987,0 -0.23987,0.08195 -0.23987,0.24503v2.35607c0,0.16349 0.07999,0.24503 0.23987,0.24503h3.32726v3.36594c0,0.18387 0.07999,0.27519 0.23975,0.27519h2.30816c0.15987,0 0.23975,-0.09132 0.23975,-0.27519v-3.36594h3.29739c0.17979,0 0.26974,-0.08154 0.26974,-0.24503v-2.35607c0,-0.16349 -0.08995,-0.24503 -0.26974,-0.24503z" fill="url(#LinearGradient1308)"></path></g></g></svg>