<?xml version="1.0" encoding="UTF-8"?>
<svg id="SVGDoc" width="21" height="21" xmlns="http://www.w3.org/2000/svg" version="1.1" xmlns:xlink="http://www.w3.org/1999/xlink" xmlns:avocode="https://avocode.com/" viewBox="0 0 21 21"><defs></defs><desc>Generated with Avocode.</desc><g><g><title>Shape 1</title><path d="M18.14857,15.74049c0.6617,0.66617 0.65758,1.48238 -0.00835,2.15671c-0.44941,0.45377 -0.928,0.88715 -1.35258,1.3613c-0.62004,0.69553 -1.39412,0.92017 -2.28481,0.87002c-1.29433,-0.07053 -2.48463,-0.49943 -3.63327,-1.05716c-2.55112,-1.24021 -4.7319,-2.96069 -6.55895,-5.1333c-1.35258,-1.60714 -2.46792,-3.35982 -3.20034,-5.33307c-0.35797,-0.9536 -0.6118,-1.93125 -0.53272,-2.96884c0.0499,-0.63641 0.28713,-1.18191 0.75737,-1.62752c0.50777,-0.48271 0.98637,-0.98662 1.48579,-1.4779c0.64922,-0.6409 1.46496,-0.6409 2.11842,-0.00408c0.40363,0.39587 0.79903,0.79949 1.19854,1.19903c0.38704,0.39139 0.77408,0.77421 1.16112,1.1656c0.68253,0.68697 0.68253,1.48646 0.00423,2.16894c-0.48695,0.49127 -0.96977,0.98255 -1.46496,1.46159c-0.12909,0.12883 -0.14156,0.23279 -0.07496,0.39098c0.32879,0.78278 0.79903,1.4783 1.32763,2.12776c1.06544,1.30748 2.26822,2.4686 3.70399,3.37246c0.30796,0.1908 0.64922,0.33227 0.96966,0.50758c0.16228,0.09132 0.27466,0.06238 0.40787,-0.07502c0.48695,-0.49943 0.98225,-0.9907 1.47743,-1.48197c0.64922,-0.64538 1.46496,-0.64538 2.11842,0c0.79491,0.79093 1.58981,1.58186 2.38049,2.37687zM13.49152,7.18092c-0.82821,-0.82803 -1.87695,-1.34866 -3.02982,-1.51092l0.21652,-1.54476c1.48991,0.20833 2.84248,0.88266 3.91205,1.95286c1.01131,1.01516 1.67725,2.2937 1.9186,3.70514l-1.53568,0.26256c-0.18734,-1.09099 -0.69923,-2.0821 -1.48167,-2.86488zM20.56248,9.51661l-1.5358,0.26215c-0.34538,-2.01891 -1.29845,-3.85517 -2.75093,-5.3082c-1.53145,-1.52764 -3.47088,-2.49754 -5.61012,-2.7972l0.21652,-1.54476c2.47627,0.34573 4.71943,1.46567 6.49235,3.23874c1.68137,1.68623 2.78423,3.80992 3.18798,6.14928z" fill="#252525" fill-opacity="1"></path></g></g></svg>